<?xml version="1.0" standalone="no"?><!DOCTYPE svg PUBLIC "-//W3C//DTD SVG 1.1//EN" "http://www.w3.org/Graphics/SVG/1.1/DTD/svg11.dtd" ><svg xmlns="http://www.w3.org/2000/svg"><metadata></metadata><defs><font id="FangSong_GB2312" horiz-adv-x="256"><font-face font-family="FangSong_GB2312" font-weight="400" font-stretch="normal" units-per-em="256" panose-1="2 1 6 9 3 1 1 1 1 1" ascent="220" descent="-36" x-height="1" bbox="0 -36 256 220" underline-thickness="12" underline-position="-22" unicode-range="U+0003-ff1f" /><missing-glyph horiz-adv-x="256" d="M59 58 q-7 104 -7 112 q0 8 5.5 10 q5.5 2 11 0 q5.5 -2 5.5 -12.5 q0 -10.5 -8 -109.5 l-7 0 ZM77.5 20.5 q0.5 -10.5 -7.5 -14.5 q-8 -4 -15.5 0.5 q-7.5 4.5 -6.5 14.5 q1 10 8 12 q7 2 14 0 q7 -2 7.5 -12.5 Z" /><glyph glyph-name="" unicode="!" d="M59 58 q-7 104 -7 112 q0 8 5.5 10 q5.5 2 11 0 q5.5 -2 5.5 -12.5 q0 -10.5 -8 -109.5 l-7 0 ZM77.5 20.5 q0.5 -10.5 -7.5 -14.5 q-8 -4 -15.5 0.5 q-7.5 4.5 -6.5 14.5 q1 10 8 12 q7 2 14 0 q7 -2 7.5 -12.5 Z" /><glyph glyph-name="" unicode="&quot;" d="M41.5 178.5 q4.5 1.5 9 0 q4.5 -1.5 4.5 -8.5 q0 -7 -7 -76 l-5 0 q-6 69 -6 76 q0 7 4.5 8.5 ZM76.5 178.5 q4.5 1.5 9 0 q4.5 -1.5 4.5 -8.5 q0 -7 -7 -76 l-5 0 q-6 69 -6 76 q0 7 4.5 8.5 Z" /><glyph glyph-name="" unicode="%" d="M93 191 l10 0 l-70 -193 l-10 0 l70 193 ZM25.5 180.5 q4.5 1.5 9.5 0 q5 -1.5 10.5 -12.5 q5.5 -11 5.5 -30.5 q0 -19.5 -6 -31.5 q-6 -12 -15 -12 q-9 0 -14.5 12 q-5.5 12 -5.5 31.5 q0 19.5 5.5 30.5 q5.5 11 10 12.5 ZM27.5 101.5 q2.5 -1.5 5 0 q2.5 1.5 4.5 9.5 q2 8 2 26.5 q0 18.5 -2.5 28.5 q-2.5 10 -7 10 q-4.5 0 -6.5 -10 q-2 -10 -2 -28.5 q0 -18.5 2 -26.5 q2 -8 4.5 -9.5 ZM74 52.5 q0 19.5 6 30.5 q6 11 11 12.5 q5 1.5 9.5 0 q4.5 -1.5 10 -12.5 q5.5 -11 5.5 -30.5 q0 -19.5 -5.5 -32 q-5.5 -12.5 -15 -12.5 q-9.5 0 -15.5 12.5 q-6 12.5 -6 32 ZM93 15.5 q3 -1.5 5.5 0 q2.5 1.5 4 9.5 q1.5 8 1.5 27 q0 19 -2 29 q-2 10 -7 10 q-5 0 -7.5 -10 q-2.5 -10 -2.5 -29 q0 -19 2.5 -27 q2.5 -8 5.5 -9.5 Z" /><glyph glyph-name="" unicode="&#39;" d="M30.5 140.5 q13.5 37.5 19.5 38 q6 0.5 9 -2.5 q3 -3 3 -7 q0 -4 -20 -37.5 q-20 -33.5 -22.5 -33.5 q-2.5 0 -2.5 2.5 q0 2.5 13.5 40 Z" /><glyph glyph-name="" unicode="(" d="M121 -14 q-27 15 -42 41.5 q-15 26.5 -15 65 q0 38.5 16 64.5 q16 26 41 42 l0 -6 q-20 -19 -29 -40.5 q-9 -21.5 -9 -60 q0 -38.5 10 -62.5 q10 -24 28 -38 l0 -6 Z" /><glyph glyph-name="" unicode=")" d="M49.5 156.5 q14.5 -25.5 14.5 -63 q0 -37.5 -14 -63.5 q-14 -26 -44 -44 l0 6 q20 16 29.5 39 q9.5 23 9.5 61.5 q0 38.5 -9.5 62 q-9.5 23.5 -29.5 38.5 l0 6 q29 -17 43.5 -42.5 Z" /><glyph glyph-name="" unicode="*" d="M67 86 q6 -27 6 -30.5 q0 -3.5 -3 -6.5 q-3 -3 -6.5 -3 q-3.5 0 -6 3 q-2.5 3 -2.5 6.5 q0 3.5 5 30.5 q-19 -18 -21 -20 q-2 -2 -6 -2 q-4 0 -6.5 3 q-2.5 3 -2.5 8 q0 5 10 8.5 q10 3.5 23 8.5 q-27 10 -30 11.5 q-3 1.5 -3 6.5 q0 5 2.5 7.5 q2.5 2.5 6.5 2.5 q4 0 10.5 -6 q6.5 -6 16.5 -15 q-5 26 -5 30 q0 4 2 6 q2 2 6 3 q4 1 7 -2 q3 -3 3 -5.5 q0 -2.5 -2 -11 q-2 -8.5 -4 -20.5 q20 18 22 19.5 q2 1.5 5.5 1.5 q3.5 0 6.5 -2.5 q3 -2.5 2.5 -8 q-0.5 -5.5 -10 -8.5 q-9.5 -3 -23.5 -9 q26 -8 30 -10 q4 -2 4 -7 q0 -5 -3 -8 q-3 -3 -6.5 -3 q-3.5 0 -10.5 6.5 q-7 6.5 -17 15.5 Z" /><glyph glyph-name="" unicode="+" d="M56 144 l15 0 l0 -45 l48 0 l0 -14 l-48 0 l0 -45 l-15 0 l0 45 l-48 0 l0 14 l48 0 l0 45 Z" /><glyph glyph-name="" unicode="," d="M41 13 q-8 -5 -12.5 -4 q-4.5 1 -7.5 4.5 q-3 3.5 -3 8 q0 4.5 3 8 q3 3.5 7.5 5 q4.5 1.5 10 0 q5.5 -1.5 10.5 -8.5 q5 -7 3.5 -21.5 q-1.5 -14.5 -14 -25.5 q-12.5 -11 -15.5 -11 q-3 0 -3 2.5 q0 2.5 5.5 6.5 q5.5 4 10.5 11.5 q5 7.5 5 24.5 Z" /><glyph glyph-name="" unicode="-" d="M8 99 l112 0 l0 -14 l-112 0 l0 14 Z" /><glyph glyph-name="" unicode="." d="M40 7 q-8 -4 -17 0.5 q-9 4.5 -7.5 15 q1.5 10.5 9 12.5 q7.5 2 14.5 0 q7 -2 8 -13 q1 -11 -7 -15 Z" /><glyph glyph-name="" unicode="/" d="M96 201 l12 0 l-77 -213 l-12 0 l77 213 Z" /><glyph glyph-name="" unicode="0" d="M100.5 157 q11.5 -22 12 -62 q0.5 -40 -11.5 -64 q-12 -24 -31.5 -24 q-19.5 0 -30.5 24 q-11 24 -11 64 q0 40 11 62 q11 22 21 24 q10 2 19.5 0 q9.5 -2 21 -24 ZM51.5 37.5 q5.5 -17.5 12 -20 q6.5 -2.5 12.5 0 q6 2.5 12 20 q6 17.5 6 57.5 q0 40 -6 60 q-6 20 -18.5 20 q-12.5 0 -18 -20 q-5.5 -20 -5.5 -60 q0 -40 5.5 -57.5 Z" /><glyph glyph-name="" unicode="1" d="M56 141 q0 15 -9.5 14.5 q-9.5 -0.5 -20.5 -3.5 l0 6 q24 9 45 25 l0 -154 q2 -12 27 -12 l0 -6 l-70 0 l0 6 q26 0 28 10 l0 114 Z" /><glyph glyph-name="" unicode="2" d="M42 27 l39 0 q10 2 18 14 l6 0 l-10 -30 l-75 0 l0 6 q42 58 51 76 q9 18 9 35.5 q0 17.5 -5 28.5 q-5 11 -18 11 q-13 0 -19 -10 q-6 -10 -8 -23 l-6 0 q3 28 11 36.5 q8 8.5 17.5 10 q9.5 1.5 18.5 0 q9 -1.5 18 -13.5 q9 -12 9 -34 q0 -22 -14 -46 q-14 -24 -42 -61 Z" /><glyph glyph-name="" unicode="3" d="M35 144 q1 16 8 25.5 q7 9.5 16 11.5 q9 2 17 0.5 q8 -1.5 17 -10.5 q9 -9 8.5 -26.5 q-0.5 -17.5 -19.5 -38.5 q14 -7 21 -17 q7 -10 7 -29.5 q0 -19.5 -18.5 -36 q-18.5 -16.5 -33.5 -16.5 q-15 0 -21.5 5.5 q-6.5 5.5 -6.5 10.5 q0 5 3 8 q3 3 7.5 3.5 q4.5 0.5 8.5 -2 q4 -2.5 8 -13.5 q23 0 31 11 q8 11 8 27.5 q0 16.5 -9 26.5 q-9 10 -32 11 l0 6 q12 0 22.5 11 q10.5 11 10.5 26 q0 15 -5.5 22.5 q-5.5 7.5 -16.5 7.5 q-11 0 -16.5 -5 q-5.5 -5 -8.5 -19 l-6 0 Z" /><glyph glyph-name="" unicode="4" d="M91 183 l0 -108 l14 0 l0 -16 l-14 0 l0 -48 l-15 0 l0 48 l-57 0 l0 18 l64 106 l8 0 ZM76 75 l0 83 l-48 -83 l48 0 Z" /><glyph glyph-name="" unicode="5" d="M90 63 q0 21 -15 35 q-15 14 -47 16 l26 65 l50 0 l-7 -16 l-41 0 l-13 -33 q28 -5 42.5 -18.5 q14.5 -13.5 14.5 -41 q0 -27.5 -14.5 -44.5 q-14.5 -17 -32.5 -18 q-18 -1 -24 3.5 q-6 4.5 -6 10.5 q0 6 5 8.5 q5 2.5 10 0.5 q5 -2 8 -12 q26 0 35 11.5 q9 11.5 9 32.5 Z" /><glyph glyph-name="" unicode="6" d="M96 99.5 q9 -14.5 9 -38 q0 -23.5 -10.5 -39 q-10.5 -15.5 -31 -15.5 q-20.5 0 -31 19 q-10.5 19 -10.5 46.5 q0 27.5 10 52.5 q10 25 28 41 q18 16 43 17 l0 -6 q-19 -2 -32 -13.5 q-13 -11.5 -20 -31 q-7 -19.5 -9 -29.5 q6 4 12 7.5 q6 3.5 19.5 3.5 q13.5 0 22.5 -14.5 ZM38 66 q0 -16 7 -30.5 q7 -14.5 15 -17.5 q8 -3 18.5 5 q10.5 8 10.5 44 q0 36 -18.5 36 q-18.5 0 -24.5 -5 q-6 -5 -7 -10.5 q-1 -5.5 -1 -21.5 Z" /><glyph glyph-name="" unicode="7" d="M51 163 q-9 0 -13 -4 q-4 -4 -10 -18 l-6 2 l12 36 l71 0 l-45 -172 l-12 4 l41 152 l-38 0 Z" /><glyph glyph-name="" unicode="8" d="M73 99 q24 -24 27.5 -31 q3.5 -7 3.5 -23 q0 -16 -12.5 -27 q-12.5 -11 -30.5 -11 q-18 0 -28.5 12.5 q-10.5 12.5 -10.5 25.5 q0 13 5.5 24.5 q5.5 11.5 23.5 24.5 q-19 22 -23 28.5 q-4 6.5 -4 22 q0 15.5 10 25 q10 9.5 20 11.5 q10 2 18 0.5 q8 -1.5 19 -12 q11 -10.5 11 -24 q0 -13.5 -5 -23 q-5 -9.5 -24 -23.5 ZM59 87 q-17 -16 -19.5 -22 q-2.5 -6 -2.5 -17.5 q0 -11.5 7 -21 q7 -9.5 19 -9.5 q12 0 19 6 q7 6 7 17.5 q0 11.5 -7 22 q-7 10.5 -23 24.5 ZM66 106 q16 15 18.5 22.5 q2.5 7.5 2.5 18 q0 10.5 -6.5 19 q-6.5 8.5 -16.5 8.5 q-10 0 -17 -7 q-7 -7 -7 -18 q0 -11 5.5 -20 q5.5 -9 20.5 -23 Z" /><glyph glyph-name="" unicode="9" d="M105 115.5 q0 -27.5 -10.5 -53.5 q-10.5 -26 -28 -39 q-17.5 -13 -41.5 -16 l0 6 q22 5 34.5 19.5 q12.5 14.5 18 31 q5.5 16.5 7.5 24.5 q-9 -6 -15.5 -10 q-6.5 -4 -18 -3 q-11.5 1 -20.5 16 q-9 15 -9 37.5 q0 22.5 11 37 q11 14.5 20.5 16 q9.5 1.5 20 0 q10.5 -1.5 21 -20 q10.5 -18.5 10.5 -46 ZM81 157.5 q-7 17.5 -24.5 15.5 q-17.5 -2 -18 -38.5 q-0.5 -36.5 8 -43 q8.5 -6.5 17 -5 q8.5 1.5 15 5.5 q6.5 4 8 10.5 q1.5 6.5 1.5 22 q0 15.5 -7 33 Z" /><glyph glyph-name="" unicode=":" d="M40 100 q-8 -4 -16.5 0 q-8.5 4 -7.5 14.5 q1 10.5 8.5 12.5 q7.5 2 14.5 0 q7 -2 8 -12.5 q1 -10.5 -7 -14.5 ZM39 35 q7 -2 7.5 -12.5 q0.5 -10.5 -7.5 -14.5 q-8 -4 -16 0.5 q-8 4.5 -7 14.5 q1 10 8.5 12 q7.5 2 14.5 0 Z" /><glyph glyph-name="" unicode=";" d="M39 101 q-8 -4 -15.5 0.5 q-7.5 4.5 -7 14 q0.5 9.5 8 11.5 q7.5 2 14.5 0 q7 -2 7.5 -12 q0.5 -10 -7.5 -14 ZM45.5 26.5 q6.5 -7.5 5 -23 q-1.5 -15.5 -13.5 -25.5 q-12 -10 -15 -10 q-3 0 -3 2.5 q0 2.5 5.5 6.5 q5.5 4 10.5 11.5 q5 7.5 5 24.5 q-7 -4 -12 -3.5 q-5 0.5 -8.5 4 q-3.5 3.5 -3.5 8 q0 4.5 3 8 q3 3.5 7 5 q4 1.5 8.5 0.5 q4.5 -1 11 -8.5 Z" /><glyph glyph-name="" unicode="=" d="M8 116 l112 0 l0 -14 l-112 0 l0 14 ZM8 82 l112 0 l0 -14 l-112 0 l0 14 Z" /><glyph glyph-name="" unicode="?" d="M45.5 141.5 q0.5 -5.5 -2.5 -9 q-3 -3.5 -8.5 -3.5 q-5.5 0 -8 4.5 q-2.5 4.5 -2.5 16 q0 11.5 11 20.5 q11 9 19.5 10.5 q8.5 1.5 18.5 0 q10 -1.5 19.5 -11.5 q9.5 -10 9.5 -28 q0 -18 -19 -39.5 q-19 -21.5 -19 -43.5 l-7 0 q0 28 14 49 q14 21 14 35 q0 14 -6 22.5 q-6 8.5 -18 8.5 q-12 0 -17.5 -4 q-5.5 -4 -7.5 -18 q9 -4 9.5 -9.5 ZM76.5 21 q0.5 -10 -7 -14 q-7.5 -4 -15.5 0.5 q-8 4.5 -7 14 q1 9.5 8 11.5 q7 2 14 0 q7 -2 7.5 -12 Z" /><glyph glyph-name="" unicode="a" d="M84 28 q-1 5 -3 14.5 q-2 9.5 -5 25.5 l-34 0 l-10 -36 q-3 -10 10 -13 l0 -6 l-32 0 l0 6 q9 1 17 22 l39 144 l35 -144 q5 -16 8 -19 q3 -3 9 -3 l0 -6 l-42 0 l0 6 q5 0 7 2 q2 2 1 7 ZM74 75 l-14 62 l-17 -62 l31 0 Z" /><glyph glyph-name="" unicode="b" d="M10 17 q16 2 18 9 l0 139 q-3 8 -18 8 l0 6 l49 0 q25 0 38.5 -10.5 q13.5 -10.5 13.5 -31.5 q0 -21 -9 -29 q-9 -8 -23 -11 q16 -2 27.5 -12 q11.5 -10 11.5 -30.5 q0 -20.5 -12.5 -32 q-12.5 -11.5 -95.5 -11.5 l0 6 ZM43 26 q3 -6 8 -6 q5 0 14.5 0 q9.5 0 20 9.5 q10.5 9.5 10.5 28 q0 18.5 -11 27.5 q-11 9 -25 9 q-14 0 -17 -2 l0 -66 ZM60.5 171 q-11.5 0 -17.5 -5 l0 -60 q3 -4 14.5 -4 q11.5 0 22.5 7 q11 7 11 26.5 q0 19.5 -9.5 27.5 q-9.5 8 -21 8 Z" /><glyph glyph-name="" unicode="c" d="M11 95 q0 34 15.5 58.5 q15.5 24.5 29 27 q13.5 2.5 20.5 1 q7 -1.5 14 -6 q7 -4.5 10.5 -7.5 q3.5 -3 3.5 14 l6 0 q0 -10 0 -23 q0 -13 4 -34 l-6 -1 q-14 40 -22 46.5 q-8 6.5 -20.5 5.5 q-12.5 -1 -23.5 -23.5 q-11 -22.5 -11 -55.5 q0 -33 10.5 -55.5 q10.5 -22.5 27 -23 q16.5 -0.5 26 9.5 q9.5 10 15.5 26 l6 -4 q-13 -26 -23.5 -35.5 q-10.5 -9.5 -31.5 -7.5 q-21 2 -35.5 28 q-14.5 26 -14.5 60 Z" /><glyph glyph-name="" unicode="d" d="M11 17 q11 0 13 10 l0 139 q-3 7 -13 7 l0 6 l41 0 q34 -2 50 -21 q16 -19 16 -58.5 q0 -39.5 -16 -64 q-16 -24.5 -91 -24.5 l0 6 ZM39 24 q4 -3 19 -3 q15 0 26.5 20.5 q11.5 20.5 11.5 54.5 q0 34 -11.5 54 q-11.5 20 -27 20 q-15.5 0 -18.5 -6 l0 -140 Z" /><glyph glyph-name="" unicode="e" d="M99 138 q-6 26 -15 31 l-41 0 l0 -65 q25 0 38 0 q6 6 8 26 l6 0 l0 -60 l-6 0 q-2 18 -9 24 q-24 0 -37 0 l0 -64 q3 -9 15 -9 q35 0 40 7.5 q5 7.5 11 27.5 l6 -2 l-9 -43 l-95 0 l0 6 q10 0 17 10 l0 135 q-4 11 -17 11 l0 6 l91 0 l3 -41 l-6 0 Z" /><glyph glyph-name="" unicode="l" d="M43 163 l0 -131 q2 -11 22 -11 l19 0 q13 2 27 38 l6 0 l-12 -48 l-95 0 l0 6 q16 0 18 10 l0 137 q-2 9 -18 9 l0 6 l51 0 l0 -6 q-16 0 -18 -10 Z" /><glyph glyph-name="" unicode="m" d="M96 26 l0 119 l-38 -132 l-38 132 l0 -117 q2 -11 14 -11 l0 -6 l-33 0 l0 6 q8 0 10 10 l0 135 q0 11 -10 11 l0 6 l26 0 l34 -124 l34 124 l29 0 l0 -6 q-13 0 -13 -13 l0 -135 q2 -8 13 -8 l0 -6 l-40 0 l0 6 q10 0 12 9 Z" /><glyph glyph-name="" unicode="n" d="M27 161 l-3 10 q-4 2 -14 2 l0 6 l30 0 l55 -113 l0 96 q-2 11 -13 11 l0 6 l36 0 l0 -6 q-12 0 -14 -9 l0 -154 l-68 137 l0 -120 q2 -10 14 -10 l0 -6 l-35 0 l0 6 q10 0 12 9 l0 135 Z" /><glyph glyph-name="" unicode="o" d="M24.5 154 q12.5 24 25.5 27.5 q13 3.5 26 0 q13 -3.5 26 -27.5 q13 -24 13 -58.5 q0 -34.5 -13 -61.5 q-13 -27 -39 -27 q-26 0 -38.5 27 q-12.5 27 -12.5 61.5 q0 34.5 12.5 58.5 ZM32 95.5 q0 -34.5 8 -55 q8 -20.5 15.5 -23 q7.5 -2.5 15 0 q7.5 2.5 16 23 q8.5 20.5 8.5 55 q0 34.5 -8.5 57 q-8.5 22.5 -23.5 22.5 q-15 0 -23 -22.5 q-8 -22.5 -8 -57 Z" /><glyph glyph-name="" unicode="p" d="M28 164 q-2 9 -18 9 l0 6 l55 0 q25 0 37.5 -11 q12.5 -11 12.5 -33 q0 -22 -11.5 -35 q-11.5 -13 -26 -14 q-14.5 -1 -34.5 5 l0 -64 q2 -10 21 -10 l0 -6 l-54 0 l0 6 q16 0 17 8 l1 139 ZM87 161 q-8 8 -23.5 8 q-15.5 0 -20.5 -6 l0 -62 q7 -5 21 -5 q14 0 22.5 10.5 q8.5 10.5 8.5 28.5 q0 18 -8 26 Z" /><glyph glyph-name="" unicode="r" d="M39 84 l0 -57 q2 -10 14 -10 l0 -6 l-42 0 l0 6 q11 0 13 9 l0 138 q-2 9 -13 9 l0 6 l44 0 q21 -2 30.5 -12 q9.5 -10 9.5 -29.5 q0 -19.5 -8.5 -30 q-8.5 -10.5 -11.5 -12.5 l22 -57 q8 -20 20 -21 l0 -6 l-29 0 l-30 77 q-16 0 -19 -4 ZM69 161 q-6 8 -17 8 q-11 0 -13 -5 l0 -60 q2 -6 12 -6 q11 0 17.5 8.5 q6.5 8.5 6.5 27.5 q0 19 -6 27 Z" /><glyph glyph-name="" unicode="s" d="M97 20.5 q-13 -13.5 -29 -13.5 q-16 0 -25.5 4 q-9.5 4 -14 7 q-4.5 3 -5.5 -10 l-6 0 l0 55 l6 0 q1 -19 10 -31.5 q9 -12.5 24.5 -12.5 q15.5 0 24 9 q8.5 9 8.5 24 q0 15 -16 25.5 q-16 10.5 -26 17.5 q-10 7 -20 15 q-10 8 -10.5 27 q-0.5 19 11.5 31 q12 12 26.5 12.5 q14.5 0.5 21.5 -2.5 q7 -3 12.5 -7 q5.5 -4 6.5 12 l6 0 l0 -56 l-6 0 q-8 29 -13 36 q-5 7 -19 7.5 q-14 0.5 -22 -8 q-8 -8.5 -8 -21.5 q0 -13 17.5 -24.5 q17.5 -11.5 26.5 -17 q9 -5.5 20.5 -15.5 q11.5 -10 11.5 -30 q0 -20 -13 -33.5 Z" /><glyph glyph-name="" unicode="t" d="M97 168 q-24 0 -26 -5 l0 -138 q2 -8 18 -8 l0 -6 l-51 0 l0 6 q16 0 18 9 l0 137 q-2 5 -16 5 q-12 -1 -16 -5.5 q-4 -4.5 -7 -23.5 l-6 0 l2 40 l102 0 l2 -40 l-6 0 q-6 24 -14 29 Z" /><glyph glyph-name="" unicode="w" d="M126 173 q-11 0 -12 -9 l-30 -157 l-21 108 l-21 -108 l-28 148 q-4 18 -12 18 l0 6 l30 0 l0 -6 q-8 0 -5 -13 l18 -95 l13 73 l-4 22 q-2 13 -12 13 l0 6 l32 0 l0 -6 q-7 0 -5 -13 l18 -95 l17 96 q2 12 -7 12 l0 6 l29 0 l0 -6 Z" /><glyph glyph-name="" unicode="x" d="M41 37 q-8 -20 4 -20 l0 -6 l-35 0 l0 6 q11 0 21.5 22 q10.5 22 24.5 52 l-25 66 q-6 16 -18 16 l0 6 l44 0 l0 -6 q-12 0 -8 -11 q10 -26 18 -46 l21 46 q4 11 -8 11 l0 6 l37 0 l0 -6 q-13 0 -15 -5.5 q-2 -5.5 -12 -26 q-10 -20.5 -18 -38.5 l24 -63 q8 -23 22 -23 l0 -6 l-47 0 l0 6 q11 0 9 12 l-19 50 l-20 -42 Z" /><glyph glyph-name="" unicode="[" d="M64 198 l45 0 l0 -13 l-30 0 l0 -186 l30 0 l0 -13 l-45 0 l0 212 Z" /><glyph glyph-name="" unicode="]" d="M63 198 l0 -212 l-46 0 l0 13 l31 0 l0 186 l-31 0 l0 13 l46 0 Z" /><glyph glyph-name="" unicode="_" d="M26 30 l75 0 l0 -10 l-75 0 l0 10 Z" /><glyph glyph-name="" unicode="a" d="M48.5 126.5 q8.5 1.5 21.5 -2.5 q13 -4 17 -27 l0 -69 q0 -8 5 -8 q5 0 12 10 l5 -4 q-13 -19 -24.5 -19 q-11.5 0 -12.5 17 q-12 -18 -27 -18 q-15 0 -23 8.5 q-8 8.5 -8 23 q0 14.5 13 26 q13 11.5 45 19.5 l0 17 q-4 22 -14.5 21.5 q-10.5 -0.5 -15 -5.5 q-4.5 -5 -4.5 -9 q0 -4 1 -6.5 q1 -2.5 1 -6 q0 -3.5 -2.5 -7 q-2.5 -3.5 -7 -3.5 q-4.5 0 -7.5 4 q-3 4 -3 12.5 q0 8.5 10 16.5 q10 8 18.5 9.5 ZM34.5 56 q-6.5 -9 -6.5 -22 q0 -13 9 -16.5 q9 -3.5 16.5 -1.5 q7.5 2 13 9.5 q5.5 7.5 5.5 49.5 q-31 -10 -37.5 -19 Z" /><glyph glyph-name="" unicode="b" d="M101.5 28.5 q-12.5 -18.5 -28.5 -20 q-16 -1.5 -27.5 4 q-11.5 5.5 -17.5 22.5 l0 115 q0 12 -6 12 q-6 0 -9 -2 l0 6 q17 5 30 17 l0 -73 q13 18 30 18 q17 0 29 -16 q12 -16 12 -40.5 q0 -24.5 -12.5 -43 ZM43 36 q4 -13 13.5 -17 q9.5 -4 17.5 -1.5 q8 2.5 15.5 15 q7.5 12.5 7.5 33.5 q0 21 -9 34 q-9 13 -21 13 q-12 0 -18 -7 q-6 -7 -6 -70 Z" /><glyph glyph-name="" unicode="c" d="M111 54 q-14 -34 -24 -40.5 q-10 -6.5 -28.5 -6.5 q-18.5 0 -30.5 17 q-12 17 -12 42.5 q0 25.5 14 42 q14 16.5 27 18 q13 1.5 20 0 q7 -1.5 18 -7 q11 -5.5 11 -14 q0 -8.5 -5 -11.5 q-5 -3 -11 -2 q-6 1 -8 6.5 q-2 5.5 0 13 q2 7.5 -15 8 q-17 0.5 -25.5 -12 q-8.5 -12.5 -8.5 -34 q0 -21.5 10 -36.5 q10 -15 24.5 -15 q14.5 0 23 8 q8.5 8 14.5 26 l6 -2 Z" /><glyph glyph-name="" unicode="d" d="M13 66.5 q0 25.5 11.5 43.5 q11.5 18 29 18.5 q17.5 0.5 30.5 -12.5 l0 33 q0 13 -7.5 13 q-7.5 0 -13.5 -2 l0 6 q20 4 36 17 l0 -140 q0 -15 7 -15 q7 0 10 1 l0 -6 q-32 -16 -32 -1 q-14 -15 -33 -15 q-19 0 -28.5 17 q-9.5 17 -9.5 42.5 ZM30 69 q0 -23 7.5 -35 q7.5 -12 15 -14.5 q7.5 -2.5 13.5 -0.5 q6 2 12 7.5 q6 5.5 6 62.5 q0 12 -6 21 q-6 9 -19.5 9 q-13.5 0 -21 -13.5 q-7.5 -13.5 -7.5 -36.5 Z" /><glyph glyph-name="" unicode="e" d="M15 67.5 q0 24.5 12 41 q12 16.5 24.5 18.5 q12.5 2 23.5 0 q11 -2 21.5 -14 q10.5 -12 11.5 -33 l-79 0 q0 -25 5 -35.5 q5 -10.5 12 -16 q7 -5.5 23 -5.5 q16 0 24 8.5 q8 8.5 12 25.5 l8 0 q-11 -34 -22.5 -41.5 q-11.5 -7.5 -31.5 -7.5 q-20 0 -32 17.5 q-12 17.5 -12 42 ZM61 117 q-15 0 -22 -9.5 q-7 -9.5 -9 -19.5 l58 0 q0 13 -6 21 q-6 8 -21 8 Z" /><glyph glyph-name="" unicode="f" d="M51 116 l0 -85 q2 -12 21 -12 l0 -6 l-55 0 l0 6 q17 0 19 10 l0 87 l-17 0 l0 7 l17 0 l0 25 q4 19 12 26 q8 7 19.5 9 q11.5 2 20 0 q8.5 -2 15.5 -7 q7 -5 7 -11 q0 -6 -3.5 -9 q-3.5 -3 -9.5 -3 q-6 0 -9.5 4 q-3.5 4 -3.5 11 q0 7 -11.5 7 q-11.5 0 -16.5 -7.5 q-5 -7.5 -5 -44.5 l28 0 l0 -7 l-28 0 Z" /><glyph glyph-name="" unicode="g" d="M39 58 q-9 6 -13.5 12 q-4.5 6 -4.5 21.5 q0 15.5 8.5 25 q8.5 9.5 19 11 q10.5 1.5 16.5 0 q6 -1.5 14 -5.5 l30 0 l0 -11 l-19 0 q6 -10 6 -24 q0 -14 -10 -24 q-10 -10 -22 -10 q-12 0 -17 2 q-10 -7 -10 -14.5 q0 -7.5 14.5 -7.5 q14.5 0 29.5 0 q15 0 22.5 -5.5 q7.5 -5.5 7.5 -20.5 q0 -15 -17 -27 q-17 -12 -34.5 -12 q-17.5 0 -30.5 7 q-13 7 -13 17.5 q0 10.5 18 27.5 q-11 5 -11 14.5 q0 9.5 16 23.5 ZM41 19 q-11 -10 -11 -19.5 q0 -9.5 8.5 -14.5 q8.5 -5 25.5 -5 q17 0 26.5 7 q9.5 7 9.5 19.5 q0 12.5 -17 12.5 q-17 0 -24.5 0 q-7.5 0 -17.5 0 ZM52 61 q10 -1 13.5 -0.5 q3.5 0.5 8.5 6 q5 5.5 5 16.5 q0 11 -7.5 24.5 q-7.5 13.5 -20.5 13.5 q-13 0 -13 -20.5 q0 -20.5 14 -39.5 Z" /><glyph glyph-name="" unicode="h" d="M74 17 q12 0 14 8 l0 66 q-2 15 -5.5 19.5 q-3.5 4.5 -13.5 4.5 q-10 0 -17.5 -5.5 q-7.5 -5.5 -12.5 -15.5 l0 -68 q2 -9 15 -9 l0 -6 l-43 0 l0 6 q11 0 13 9 l0 124 q0 12 -4.5 12 q-4.5 0 -8.5 -2 l0 6 q14 4 28 17 l0 -79 q16 16 22.5 20 q6.5 4 21.5 4 q15 0 20 -31 l0 -69 q2 -11 15 -11 l0 -6 l-44 0 l0 6 Z" /><glyph glyph-name="" unicode="i" d="M69 180.5 q7 -2.5 7.5 -12.5 q0.5 -10 -7.5 -14 q-8 -4 -16 0.5 q-8 4.5 -7 14.5 q1 10 8.5 12 q7.5 2 14.5 -0.5 ZM71 131 l0 -102 q2 -12 24 -12 l0 -6 l-59 0 l0 6 q18 0 20 9 l0 70 q0 12 -7 12 q-7 0 -11 -2 l0 6 q17 4 33 19 Z" /><glyph glyph-name="" unicode="j" d="M97.5 169 q0.5 -10 -7 -14 q-7.5 -4 -15.5 0 q-8 4 -7.5 14 q0.5 10 8 12 q7.5 2 14.5 0 q7 -2 7.5 -12 ZM80 95 q0 13 -7.5 13 q-7.5 0 -17.5 -2 l0 6 q21 4 40 19 l0 -114 q-2 -26 -13 -37.5 q-11 -11.5 -27 -11.5 q-16 0 -21.5 4.5 q-5.5 4.5 -5.5 9 q0 4.5 3 8 q3 3.5 8 3.5 q5 0 8.5 -2 q3.5 -2 4.5 -7 q1 -5 13.5 -4.5 q12.5 0.5 14.5 37.5 l0 78 Z" /><glyph glyph-name="" unicode="l" d="M71 183 l0 -155 q2 -11 24 -11 l0 -6 l-59 0 l0 6 q18 0 20 10 l0 123 q0 12 -7.5 12 q-7.5 0 -12.5 -2 l0 6 q18 4 35 17 Z" /><glyph glyph-name="" unicode="m" d="M32.5 110 q-3.5 -5 -5.5 -11 l0 -72 q2 -10 10 -10 l0 -6 l-33 0 l0 6 q5 0 8 9 l0 69 q0 12 -4 12 l-3 -2 l0 6 q11 4 22 17 l0 -19 q7 11 12.5 15 q5.5 4 13 4 q7.5 0 11.5 -7 q4 -7 5 -15 q9 14 14.5 18 q5.5 4 13 4 q7.5 0 13 -8 q5.5 -8 5.5 -27 l0 -67 q2 -9 10 -9 l0 -6 l-34 0 l0 6 q7 0 9 9 l0 65 q0 15 -3 19.5 q-3 4.5 -10 4.5 q-7 0 -10.5 -5 q-3.5 -5 -5.5 -18 l0 -68 q2 -7 10 -7 l0 -6 l-34 0 l0 6 q7 0 9 7 l0 67 q0 10 -3 17 q-3 7 -10 7 q-7 0 -10.5 -5 Z" /><glyph glyph-name="" unicode="n" d="M24 95 q0 12 -4.5 12 q-4.5 0 -9.5 -2 l0 6 q15 4 30 17 l0 -23 q12 15 18 19 q6 4 18 4 q12 0 19 -9.5 q7 -9.5 8 -31.5 l0 -60 q2 -10 16 -10 l0 -6 l-46 0 l0 6 q13 0 15 9 l0 65 q-2 15 -6 19.5 q-4 4.5 -15 4.5 q-11 0 -17.5 -5.5 q-6.5 -5.5 -10.5 -12.5 l0 -71 q2 -9 16 -9 l0 -6 l-46 0 l0 6 q13 0 15 10 l0 68 Z" /><glyph glyph-name="" unicode="o" d="M14 68.5 q0 23.5 12 40 q12 16.5 24.5 18.5 q12.5 2 25 0 q12.5 -2 25 -18.5 q12.5 -16.5 12.5 -40 q0 -23.5 -12.5 -42.5 q-12.5 -19 -37.5 -19 q-25 0 -37 19 q-12 19 -12 42.5 ZM55 15 q8 -2 16 0 q8 2 16.5 16 q8.5 14 8.5 37.5 q0 23.5 -8.5 38 q-8.5 14.5 -24.5 14.5 q-16 0 -24 -14.5 q-8 -14.5 -8 -38 q0 -23.5 8 -37.5 q8 -14 16 -16 Z" /><glyph glyph-name="" unicode="p" d="M104 111 q11 -17 11 -44 q0 -27 -12.5 -43 q-12.5 -16 -27.5 -16.5 q-15 -0.5 -28 7.5 l0 -27 q2 -10 19 -10 l0 -6 l-50 0 l0 6 q14 0 16 8 l0 110 q0 12 -5.5 12 q-5.5 0 -10.5 -2 l0 6 q16 3 31 16 l0 -14 q14 14 30 14 q16 0 27 -17 ZM52.5 22 q5.5 -6 17.5 -6.5 q12 -0.5 20 11.5 q8 12 8 35 q0 23 -7.5 38 q-7.5 15 -20 15 q-12.5 0 -23.5 -11 l0 -69 q0 -7 5.5 -13 Z" /><glyph glyph-name="" unicode="r" d="M103 108 q-3 -3 -9 -3 q-6 0 -8.5 4.5 q-2.5 4.5 -8.5 4 q-6 -0.5 -12 -9 q-6 -8.5 -6 -75.5 q2 -12 23 -12 l0 -6 l-61 0 l0 6 q21 0 23 9 l0 69 q0 12 -7.5 12 q-7.5 0 -13.5 -2 l0 6 q18 4 36 17 l0 -23 q9 14 15 17.5 q6 3.5 13.5 4.5 q7.5 1 13 -2.5 q5.5 -3.5 5.5 -8.5 q0 -5 -3 -8 Z" /><glyph glyph-name="" unicode="s" d="M91 59.5 q8 -7.5 8 -21 q0 -13.5 -10 -22.5 q-10 -9 -22 -9 q-12 0 -17.5 2.5 q-5.5 2.5 -10 5.5 q-4.5 3 -5.5 -8 l-6 0 l0 40 l6 0 q2 -15 9 -23 q7 -8 18.5 -8 q11.5 0 17.5 5.5 q6 5.5 5 14.5 q-1 9 -14 17.5 q-13 8.5 -19 12 q-6 3.5 -14.5 10 q-8.5 6.5 -10.5 19.5 q-2 13 7 21 q9 8 15.5 10.5 q6.5 2.5 13 2 q6.5 -0.5 12.5 -2.5 q6 -2 8.5 -4 q2.5 -2 4.5 6 l6 0 l0 -40 l-6 0 q-7 22 -10.5 27 q-3.5 5 -20 5 q-16.5 0 -16.5 -13.5 q0 -13.5 13.5 -22 q13.5 -8.5 21.5 -13 q8 -4.5 16 -12 Z" /><glyph glyph-name="" unicode="t" d="M30 123 q10 2 18 11.5 q8 9.5 10 26.5 l5 0 l0 -38 l28 0 l0 -7 l-28 0 l0 -81 q2 -15 12.5 -15 q10.5 0 19.5 14 l6 -3 q-11 -18 -22 -22 q-11 -4 -20 -1 q-9 3 -11 19 l0 89 l-18 0 l0 7 Z" /><glyph glyph-name="" unicode="u" d="M87 36.5 q1 1.5 1 72.5 q-2 9 -15 9 l0 6 l30 0 l0 -83 q0 -15 6 -15 q6 0 8 1 l0 -6 q-18 -2 -24 -8 q-6 -6 -6 17 q-11 -11 -18 -17 q-7 -6 -19.5 -6 q-12.5 0 -18 9 q-5.5 9 -7.5 28 l0 66 q-2 8 -15 8 l0 6 l30 0 l0 -77 q2 -14 6 -20 q4 -6 15.5 -6 q11.5 0 18.5 7 q7 7 8 8.5 Z" /><glyph glyph-name="" unicode="v" d="M56 118 q-19 0 -16 -9 l26 -76 l23 70 q4 15 -11 15 l0 6 l37 0 l0 -6 q-9 -1 -11 -9 l-38 -102 l-6 0 l-35 99 q-3 11 -13 12 l0 6 l44 0 l0 -6 Z" /><glyph glyph-name="" unicode="w" d="M8 111 q-2 6 -6 7 l0 6 l32 0 l0 -6 q-11 0 -11 -9 l19 -76 l17 56 l-5 21 q-3 7 -10 8 l0 6 l35 0 l0 -6 q-13 0 -10 -9 l18 -76 l20 75 q1 10 -10 10 l0 6 l29 0 l0 -6 q-9 -1 -11 -9 l-28 -102 l-6 0 l-18 67 l-21 -67 l-6 0 l-28 104 Z" /><glyph glyph-name="" unicode="x" d="M42 27 q-7 -10 6 -10 l0 -6 l-34 0 l0 6 q10 0 19.5 14.5 q9.5 14.5 22.5 33.5 l-23 43 q-5 10 -15 10 l0 6 l44 0 l0 -6 q-13 0 -10 -9 q8 -15 15 -27 l18 26 q5 10 -7 10 l0 6 l34 0 l0 -6 q-10 0 -21.5 -17 q-11.5 -17 -19.5 -28 q22 -41 25.5 -48.5 q3.5 -7.5 16.5 -7.5 l0 -6 l-43 0 l0 6 q10 0 8 5 q-2 5 -17 34 l-19 -29 Z" /><glyph glyph-name="" unicode="y" d="M45 -15 q5 0 13 26 l-32 95 q-3 11 -16 12 l0 6 l46 0 l0 -6 q-15 0 -13 -11 q12 -39 23 -73 l24 69 q2 15 -16 15 l0 6 l43 0 l0 -6 q-13 0 -16 -11 l-38 -106 q-11 -24 -16.5 -28.5 q-5.5 -4.5 -14 -4.5 q-8.5 0 -12 4.5 q-3.5 4.5 -3.5 9.5 q0 5 3 8 q3 3 8 3 q5 0 8.5 -4 q3.5 -4 8.5 -4 Z" /><glyph glyph-name="" unicode="z" d="M47 115 q-12 -2 -16 -25 l-6 0 l0 34 l84 0 l0 -4 l-72 -100 l51 0 q12 2 17 26 l6 0 l0 -35 l-95 0 l0 5 l71 99 l-40 0 Z" /><glyph glyph-name="" unicode="{" d="M124 194 q-25 -2 -25 -76 q0 -18 -14 -26 q14 -8 15 -74 q2 -25 24 -28 l0 -6 q-15 0 -27.5 3.5 q-12.5 3.5 -12.5 79.5 q0 22 -18 22 l0 6 q18 0 18 71 q4 28 14.5 31 q10.5 3 25.5 3 l0 -6 Z" /><glyph glyph-name="" unicode="|" d="M56 198 l15 0 l0 -212 l-15 0 l0 212 Z" /><glyph glyph-name="" unicode="}" d="M28 166 q-2 27 -25 28 l0 6 q21 0 30.5 -4 q9.5 -4 9.5 -78 q0 -23 19 -23 l0 -6 q-19 0 -19 -71 q-6 -28 -40 -34 l0 6 q25 8 25 77 q2 18 16 25 q-16 4 -16 74 Z" /><glyph glyph-name="" unicode="&#x3001;" d="M50.5 48 q17.5 -8 24 -14.5 q6.5 -6.5 6 -18 q-0.5 -11.5 -10 -11.5 q-9.5 0 -15.5 16 q-6 16 -15 24 q-9 8 -8 10 q1 2 18.5 -6 Z" /><glyph glyph-name="" unicode="&#x3002;" d="M32.5 26 q4.5 6 12 8.5 q7.5 2.5 15 0 q7.5 -2.5 12 -10 q4.5 -7.5 3.5 -15 q-1 -7.5 -7.5 -12.5 q-6.5 -5 -15 -5 q-8.5 0 -15.5 5.5 q-7 5.5 -8 14 q-1 8.5 3.5 14.5 ZM59.5 26 q-6.5 4 -13.5 1 q-7 -3 -8 -11.5 q-1 -8.5 6 -13 q7 -4.5 15 -1.5 q8 3 7.5 12 q-0.5 9 -7 13 Z" /><glyph glyph-name="" unicode="&#x201c;" d="M191 128 q0 -5 -4.5 -9.5 q-4.5 -4.5 -12 -4 q-7.5 0.5 -13.5 8.5 q-6 8 -4 24 q2 16 14 25.5 q12 9.5 13.5 9.5 q1.5 0 3 0 q1.5 0 1.5 -2 q0 -2 -5.5 -6.5 q-5.5 -4.5 -11.5 -14.5 q-6 -10 -4 -22 q7 4 11.5 3.5 q4.5 -0.5 8 -4 q3.5 -3.5 3.5 -8.5 ZM232 118.5 q-5 -4.5 -12.5 -3.5 q-7.5 1 -13 9.5 q-5.5 8.5 -3.5 23 q2 14.5 14.5 24.5 q12.5 10 14 10 q1.5 0 3 0 q1.5 0 1.5 -2 q0 -2 -7.5 -8 q-7.5 -6 -12 -14 q-4.5 -8 -1.5 -20 q7 3 11.5 2.5 q4.5 -0.5 7.5 -4 q3 -3.5 3 -8.5 q0 -5 -5 -9.5 Z" /><glyph glyph-name="" unicode="&#x201d;" d="M17 167.5 q0 4.5 3 8 q3 3.5 7.5 5 q4.5 1.5 9.5 0.5 q5 -1 10.5 -8.5 q5.5 -7.5 5 -22 q-0.5 -14.5 -14 -25.5 q-13.5 -11 -16 -11 q-2.5 0 -2.5 2.5 q0 2.5 6 7 q6 4.5 11.5 13.5 q5.5 9 3.5 22 q-10 -3 -13.5 -3 q-3.5 0 -7 3.5 q-3.5 3.5 -3.5 8 ZM63 167.5 q0 4.5 3 8.5 q3 4 9 5.5 q6 1.5 11 -1 q5 -2.5 9 -9 q4 -6.5 3 -20.5 q-1 -14 -14 -25.5 q-13 -11.5 -15.5 -11.5 q-2.5 0 -2.5 2.5 q0 2.5 5.5 6.5 q5.5 4 11 13.5 q5.5 9.5 2.5 24.5 q-8 -6 -12.5 -5.5 q-4.5 0.5 -7 4 q-2.5 3.5 -2.5 8 Z" /><glyph glyph-name="" unicode="&#xff01;" d="M68.5 33.5 q7.5 -3.5 8.5 -12 q1 -8.5 -7 -14 q-8 -5.5 -17 -0.5 q-9 5 -7.5 14 q1.5 9 8.5 12.5 q7 3.5 14.5 0 ZM64 58 l-6 0 q-8 104 -8 113 q0 9 5.5 11 q5.5 2 11 0 q5.5 -2 5.5 -13.5 q0 -11.5 -8 -110.5 Z" /><glyph glyph-name="" unicode="&#xff0c;" d="M45 30 q-5 0 -7.5 3.5 q-2.5 3.5 -2.5 8 q0 4.5 3 8 q3 3.5 7.5 5 q4.5 1.5 9.5 0 q5 -1.5 10 -8.5 q5 -7 4.5 -20.5 q-0.5 -13.5 -13 -25.5 q-12.5 -12 -15.5 -12 q-3 0 -3 2.5 q0 2.5 5.5 6.5 q5.5 4 10.5 11.5 q5 7.5 4.5 17 q-0.5 9.5 -4.5 7 q-4 -2.5 -9 -2.5 Z" /><glyph glyph-name="" unicode="&#xff1a;" d="M34.5 -4 q-8.5 4 -7.5 14 q1 10 8.5 13 q7.5 3 15 -0.5 q7.5 -3.5 8.5 -12 q1 -8.5 -7.5 -13.5 q-8.5 -5 -17 -1 ZM35.5 115.5 q7.5 2.5 14 -0.5 q6.5 -3 8.5 -11.5 q2 -8.5 -7 -14 q-9 -5.5 -17.5 -0.5 q-8.5 5 -7 14.5 q1.5 9.5 9 12 Z" /><glyph glyph-name="" unicode="&#xff1f;" d="M57 7 q-7 5 -6.5 13.5 q0.5 8.5 8 11.5 q7.5 3 14.5 0 q7 -3 8 -12 q1 -9 -8 -13.5 q-9 -4.5 -16 0.5 ZM39 170.5 q10 9.5 19 11 q9 1.5 19.5 -0.5 q10.5 -2 20 -12 q9.5 -10 9.5 -28 q0 -18 -19.5 -39.5 q-19.5 -21.5 -19.5 -43.5 l-7 0 q0 28 14.5 49 q14.5 21 14.5 35 q0 14 -6.5 22.5 q-6.5 8.5 -18.5 8.5 q-12 0 -17.5 -4 q-5.5 -4 -5.5 -9.5 q0 -5.5 4 -11 q4 -5.5 4 -9.5 q0 -4 -3 -7 q-3 -3 -8 -3 q-5 0 -7.5 4.5 q-2.5 4.5 -2.5 16 q0 11.5 10 21 Z" /><glyph glyph-name="" unicode="&#x7231;" d="M45 -31 l-3 3 q54 25 74 41.5 q20 16.5 44 49.5 q-43 -3 -52 -7 l-15 10 l62 5 q5 0 15 8 l10 -13 q-7 -6 -8.5 -7.5 q-1.5 -1.5 -13 -17 q-11.5 -15.5 -34 -33.5 q-22.5 -18 -79.5 -39 ZM114 33 q-10 10 -21 17 l0 2 l19 0 q3 -8 4.5 -10 q1.5 -2 26 -21 q24.5 -19 40 -25.5 q15.5 -6.5 46.5 -8.5 l1 -4 l-48 -7 q-58 47 -68 57 ZM21 -9 q32 26 53 53 q21 27 29.5 49.5 q8.5 22.5 6.5 36.5 l2 0 l16 -19 q-5 -4 -7 -7 q-2 -3 -8 -19 q-6 -16 -29 -44.5 q-23 -28.5 -60 -52.5 l-3 3 ZM52 142 q2 -19 0.5 -28 q-1.5 -9 -9.5 -23 l-4 0 l-6 17 q12 11 14 34 l5 0 ZM229 135 q-13 0 -32 -27 l-3 3 l11 23 l-157 -16 l2 9 l145 15 q12 1 17 12 l17 -19 ZM187 111 l15 -10 l0 -4 l-127 -13 q-6 0 -12 -4 l-15 9 l122 13 q7 0 17 9 ZM85 136 q-3 15 -16 36 l3 3 q23 -19 23.5 -23 q0.5 -4 -5.5 -17 l-5 1 ZM109 180 l3 3 q23 -19 23.5 -23.5 q0.5 -4.5 -7.5 -16.5 l-5 0 q-2 15 -14 37 ZM174 162.5 q-5 -6.5 -22 -30.5 l-3 3 q13 26 16.5 34 q3.5 8 4.5 19 l3 2 l14 -19 q-8 -2 -13 -8.5 ZM185 212 l3 0 l12 -14 q-14 -3 -41.5 -10.5 q-27.5 -7.5 -102.5 -15.5 l0 5 q72 13 94.5 20 q22.5 7 34.5 15 Z" /><glyph glyph-name="" unicode="&#x767d;" d="M88 138 q16 29 23 46.5 q7 17.5 7 30.5 l3 2 l15 -21 q-8 -5 -15.5 -19.5 q-7.5 -14.5 -24.5 -39.5 l-8 1 ZM46 161 l5 1 l14 -24 l8 -130 l-2 -27 l-5 -1 l-9 24 q4 5 4 9 q0 4 -4 61.5 q-4 57.5 -4.5 61.5 q-0.5 4 -6.5 25 ZM184 -14 l-8 24 q7 3 8 15 q1 12 3 112 l-129 -8 l-2 9 l125 8 q5 0 13 11 l14 -11 q-6 -7 -7.5 -9 q-1.5 -2 -2.5 -56.5 q-1 -54.5 -3 -67.5 q-2 -13 -6 -27 l-5 0 ZM170 78 l-109 -7 l0 10 l81 5 q8 2 16 6 l12 -9 l0 -5 ZM66 3 l0 10 q90 3 92.5 4 q2.5 1 10.5 5 l11 -10 l1 -4 l-115 -5 Z" /><glyph glyph-name="" unicode="&#x4f34;" d="M16 85 l-4 4 q25 29 38.5 52.5 q13.5 23.5 19.5 39 q6 15.5 7 31.5 l4 0 l12 -24 q-6 -5 -7 -7.5 q-1 -2.5 -7.5 -13.5 q-6.5 -11 -21 -33.5 q-14.5 -22.5 -41.5 -48.5 ZM171 117 l-6 2 q17 31 23 48 q6 17 6 29 l4 0 l12 -18 q-6 -4 -7 -6 q-1 -2 -7.5 -15.5 q-6.5 -13.5 -24.5 -39.5 ZM158.5 183 q-0.5 -6 -0.5 -92.5 q0 -86.5 0 -91.5 q0 -5 -3 -29 l-4 0 l-10 27 q4 5 5 10 q1 5 1 91 q0 86 0 92 q0 6 -5 25 l4 1 l17 -20 q-4 -7 -4.5 -13 ZM71 115 q-4 -7 -4.5 -11 q-0.5 -4 -0.5 -53 q0 -49 0 -57 q0 -8 -3 -27 l-5 0 l-9 27 q4 3 5 7.5 q1 4.5 1 54.5 q0 50 0 54.5 q0 4.5 -3 21.5 l4 2 l15 -19 ZM123 124 q-4 21 -19 46 l5 2 q25 -29 26 -30.5 q1 -1.5 -7 -17.5 l-5 0 ZM198.5 123.5 q1.5 0.5 9.5 4.5 l12 -7 l1 -5 l-104 -8 q-5 0 -13 -3 l-14 10 q107 8 108.5 8.5 ZM77 66 q141 9 143 10 q2 1 9 5 l12 -9 l1 -4 l-139 -9 q-5 0 -12 -4 l-14 11 Z" /><glyph glyph-name="" unicode="&#x534a;" d="M68 186 q29 -32 29 -34.5 q0 -2.5 -7 -19.5 l-4 0 q-6 24 -22 51 l4 3 ZM130.5 182.5 q-0.5 -5.5 -0.5 -87.5 q0 -82 0 -90.5 q0 -8.5 -4 -34.5 l-4 0 l-9 29 q4 5 5 9.5 q1 4.5 1 89.5 q0 85 -0.5 91.5 q-0.5 6.5 -4.5 25.5 l4 0 l17 -21 q-4 -6 -4.5 -11.5 ZM176.5 157 q-7.5 -13 -24.5 -35 l-6 2 q16 27 23 43 q7 16 7 27 l3 2 l13 -20 q-8 -6 -15.5 -19 ZM186 132 l14 -9 l0 -4 q-126 -7 -129 -7 q-3 0 -13 -4 l-13 12 l126 7 q5 0 15 5 ZM223 87 l14 -9 l0 -4 q-196 -9 -199.5 -9 q-3.5 0 -11.5 -3 l-13 12 l196 8 q6 0 14 5 Z" /><glyph glyph-name="" unicode="&#x5e2e;" d="M128 188 l12 -7 l1 -4 l-87 -8 q-4 0 -12 -4 l-13 10 q88 8 90.5 8.5 q2.5 0.5 8.5 4.5 ZM130 149 l-68 -7 q-6 -1 -12 -3 l-13 9 q72 7 74 8 q2 1 7 4 l12 -8 l0 -3 ZM80.5 112.5 q-9.5 -28.5 -52.5 -64.5 l-4 4 q39 38 46.5 66 q7.5 28 10 54.5 q2.5 26.5 -2.5 42.5 l4 1 l16 -17 q-4 -5 -4 -7 q0 -2 -2 -26.5 q-2 -24.5 -11.5 -53 ZM18 118 q96 9 98.5 9 q2.5 0 9.5 5 l12 -8 l0 -4 l-93 -9 q-5 -1 -13 -4 l-14 11 ZM157 101 q1 -5 -4 -27 l-3 0 l-8 22 q3 3 3.5 6.5 q0.5 3.5 0.5 38.5 q0 35 0 40 q0 5 -4 23 l4 1 l11 -17 l0 -87 ZM152 179 l0 9 l41 5 q4 1 12 9 l13 -11 q-8 -5 -25 -37 q15 -18 17 -27.5 q2 -9.5 0.5 -21 q-1.5 -11.5 -9.5 -21.5 l-2 -1 l-30 29 l1 4 l27 -16 q3 8 3.5 13.5 q0.5 5.5 -1 13.5 q-1.5 8 -15.5 27 l14 31 l-46 -6 ZM196 68 q-6 -7 -6.5 -9 q-0.5 -2 -0.5 -10.5 q0 -8.5 -2 -25.5 q-2 -17 -10 -31 l-4 0 l-32 26 l1 4 l30 -14 q3 10 4.5 21 q1.5 11 1.5 30 l-101 -8 l0 9 l94 8 q5 1 13 10 l12 -10 ZM130.5 81.5 q-0.5 -3.5 -0.5 -43.5 q0 -40 0 -44 q0 -4 -3 -27 l-4 0 l-9 19 q4 4 4.5 9.5 q0.5 5.5 0.5 47.5 q0 42 -0.5 46.5 q-0.5 4.5 -4.5 16.5 l4 1 l16 -17 q-3 -5 -3.5 -8.5 ZM81 10 l-3 -16 l-5 0 l-8 20 q4 5 4.5 7.5 q0.5 2.5 0.5 18 q0 15.5 0 19.5 q0 4 -4 17 l5 0 l10 -16 l0 -50 Z" /><glyph glyph-name="" unicode="&#x8f88;" d="M26 116 l83 8 l0 -9 l-56 -5 q-7 -2 -14 -5 l-13 11 ZM109 143 q-35 -2 -43 -6 l-13 10 l56 5 l0 -9 ZM40 173 l69 7 l0 -9 l-42 -4 q-4 0 -14 -4 l-13 10 ZM213 183 l0 -3 l-69 -8 l0 9 l43 5 q7 1 12 5 l14 -8 ZM205 152 l-61 -8 l0 9 l35 4 q5 1 14 5 l12 -7 l0 -3 ZM224 125 l-80 -8 l0 9 l54 5 q5 1 14 5 l12 -7 l0 -4 ZM185 88 l12 -7 l0 -4 q-121 -11 -123.5 -11 q-2.5 0 -9.5 -3 l-14 10 q122 10 125 11 q3 1 10 4 ZM234 20 l0 -4 q-180 -16 -183 -16.5 q-3 -0.5 -13 -3.5 l-14 11 l182 16 q5 0 13 6 l15 -9 ZM120 -13 q3 4 4 7.5 q1 3.5 1 30.5 q0 27 -0.5 32 q-0.5 5 -4.5 18 l5 0 l14 -15 q-3 -6 -3 -11.5 q0 -5.5 0.5 -30 q0.5 -24.5 -2.5 -49.5 l-3 0 l-11 18 ZM189 43 q-97 -11 -99.5 -11 q-2.5 0 -11.5 -5 l-11 11 q10 5 23 20 q13 15 20 26.5 q7 11.5 10 25.5 l2 1 l11 -17 q-5 -3 -14.5 -14.5 q-9.5 -11.5 -31.5 -38.5 q80 8 83.5 9 q3.5 1 7.5 4 l11 -8 l0 -3 ZM116 199 q-3 -8 -3.5 -12 q-0.5 -4 -0.5 -39.5 q0 -35.5 -2 -55.5 l-4 0 l-8 13 q3 7 3 10.5 q0 3.5 0 37 q0 33.5 0 38.5 q0 5 -4 23 l5 0 l14 -15 ZM138 153 q0 37 -0.5 42.5 q-0.5 5.5 -4.5 18.5 l4 1 l16 -15 q-2 -5 -3 -8.5 q-1 -3.5 -1 -41 q0 -37.5 -2 -58.5 l-3 0 l-10 14 q2 4 3 7 q1 3 1 40 Z" /><glyph glyph-name="" unicode="&#x88ab;" d="M202 150 l-85 -8 l0 9 l82 8 q7 4 12 10 l10 -12 q-8 -6 -24 -35 l-5 2 l10 26 ZM153 98 l0 86 q0 15 -5 31 l3 3 l18 -22 q-3 -5 -4 -9 q-1 -4 -1 -89 l-11 0 ZM80 125.5 q-8 -12.5 -22.5 -30 q-14.5 -17.5 -49.5 -40.5 l-3 5 q32 26 41.5 37 q9.5 11 27.5 41 l-30 -4 q-7 0 -15 -4 l-13 10 q58 6 60 7.5 q2 1.5 9 8.5 l11 -10 q-8 -8 -16 -20.5 ZM61 3 q0 -10 -2 -33 l-4 0 l-10 20 q3 4 4 8 q1 4 1 99 l11 11 l0 -105 ZM90 122 l3 0 l8 -18 q-8 -1 -14.5 -7 q-6.5 -6 -25.5 -18 l-3 3 q11 10 20 20 q9 10 12 20 ZM93 52 l-3 0 q-11 13 -32 27 l3 3 q33 -12 34 -14 q1 -2 -2 -16 ZM69 -20 q30 48 36 80.5 q6 32.5 6 62.5 q0 30 -5 49 l4 1 l13 -22 q1 -59 -7.5 -94.5 q-8.5 -35.5 -41.5 -79.5 l-5 3 ZM45 202 l4 3 l20 -13 q13 -10 13.5 -12.5 q0.5 -2.5 -6.5 -15.5 l-4 0 q-5 14 -27 38 ZM85 -21 q50 31 66 54 q16 23 32 64 l-43 -5 q-4 0 -10 -3 l-16 9 l65 7 q5 1 15 9 l8 -11 l-7 -6 q-2 -3 -10 -23.5 q-8 -20.5 -24.5 -44.5 q-16.5 -24 -71.5 -54 l-4 4 ZM242 -10 l0 -4 l-47 -4 q-61 87 -71 92 l18 2 q-1 -6 -0.5 -8.5 q0.5 -2.5 18.5 -25 q18 -22.5 34 -35 q16 -12.5 48 -17.5 Z" /><glyph glyph-name="" unicode="&#x5954;" d="M43 157 l-14 10 q164 13 166 14 q2 1 12 4 l13 -8 l1 -4 l-167 -14 q-4 0 -11 -2 ZM69 109 q80 8 82.5 8.5 q2.5 0.5 9.5 4.5 l11 -8 l1 -4 l-79 -8 q-4 0 -12 -4 l-13 11 ZM24 47 q174 15 176.5 15.5 q2.5 0.5 11.5 5.5 l14 -9 l0 -4 l-174 -15 q-7 -1 -15 -4 l-13 11 ZM78.5 13 q-11.5 -21 -45.5 -43 l-4 4 q30 23 39.5 42.5 q9.5 19.5 11.5 38.5 q2 19 -1 35 l2 3 l17 -14 q-4 -5 -6 -25 q-2 -20 -13.5 -41 ZM128.5 129.5 q-0.5 -3.5 -0.5 -20 q0 -16.5 0 -21.5 q0 -5 -2 -20 l-4 0 l-9 17 q2 3 3 5.5 q1 2.5 1 19.5 q0 17 -0.5 22.5 q-0.5 5.5 -4.5 18.5 l3 0 l17 -12 q-3 -6 -3.5 -9.5 ZM161 -30 l-3 0 l-11 21 q3 3 4 7 q1 4 1 35 q0 31 -0.5 38 q-0.5 7 -5.5 24 l4 0 l16 -16 q-2 -6 -2.5 -10.5 q-0.5 -4.5 -0.5 -73.5 l-2 -25 ZM243 99 l0 -4 l-46 -3 l-61 80 l8 0 q37 -46 53.5 -57.5 q16.5 -11.5 45.5 -15.5 ZM130 189.5 q-1 -2.5 -8.5 -18.5 q-7.5 -16 -29 -38.5 q-21.5 -22.5 -74.5 -50.5 l-2 5 q50 30 69.5 52.5 q19.5 22.5 26.5 41 q7 18.5 7 34.5 l3 1 l14 -20 q-5 -4 -6 -6.5 Z" /><glyph glyph-name="" unicode="&#x6bd5;" d="M66 177 q0 14 -5 25 l4 2 l17 -16 q-3 -5 -4 -8.5 q-1 -3.5 -1 -81.5 l-14 -1 q4 8 3 80 ZM130.5 -13.5 q-0.5 -5.5 -1.5 -19.5 l-5 0 l-9 19 q3 5 4 9.5 q1 4.5 1 42 q0 37.5 -0.5 43.5 q-0.5 6 -5.5 19 l3 3 l18 -16 q-2 -5 -3 -9 q-1 -4 -1 -45 q0 -41 -0.5 -46.5 ZM218 71 l14 -9 l0 -4 l-187 -14 q-5 0 -12 -3 l-15 11 l190 14 q5 2 10 5 ZM72 159 l21 4 q5 1 14 6 l10 -7 l0 -4 l-45 -8 l0 9 ZM141 140 l0 8 q26 12 37 20 q11 8 16 20 l3 0 l8 -20 q-9 -3 -21.5 -10 q-12.5 -7 -42.5 -18 ZM221 100 l-1 -4 q-20 -4 -42 -6 l-20 0 q-24 2 -22 25 l0 70 q-1 14 -6 27 l6 1 l16 -17 q-3 -5 -4 -9.5 q-1 -4.5 -1 -72.5 q0 -14 15 -14 l16 0 q14 2 19 2.5 q5 0.5 9 3.5 l2 34 l5 0 l8 -40 ZM114 122 l1 -5 q-34 -21 -45 -31 l-11 11 l55 25 Z" /><glyph glyph-name="" unicode="&#x5fc5;" d="M98.5 24.5 q-27.5 -24.5 -69.5 -46.5 l-3 5 q41 24 67.5 51 q26.5 27 45.5 68 q19 41 25 66.5 q6 25.5 3 38.5 l4 2 l17 -26 q-8 -3 -14.5 -27.5 q-6.5 -24.5 -27 -65.5 q-20.5 -41 -48 -65.5 ZM50 111 q0 -39 -1.5 -49.5 q-1.5 -10.5 -10.5 -33.5 l-5 0 l-8 23 q15 12 19 60 l6 0 ZM192 11 l2 47 l5 0 q6 -45 11 -66 q-60 11 -89 38 q-29 27 -47 108 l7 0 q20 -72 45 -95.5 q25 -23.5 66 -31.5 ZM93 193 q20 -15 28 -23 q8 -8 8 -10 q0 -2 -4 -22 l-4 -1 q-10 26 -31 52 l3 4 ZM189 118 q25 -13 35 -19.5 q10 -6.5 11.5 -8.5 q1.5 -2 -1.5 -22 l-5 0 q-16 23 -43 46 l3 4 Z" /><glyph glyph-name="" unicode="&#x8fb9;" d="M26 7 l-9 11 q35 4 50 3 q15 -1 42 -7 q27 -6 61.5 -14.5 q34.5 -8.5 77.5 -5.5 l1 -4 l-47 -14 q-73 25 -107 33 q-34 8 -69 -2 ZM72.5 51 q-1.5 7 -14.5 20 l13 33 l-35 -6 q-4 0 -12 -6 l-14 11 l57 10 q5 3 13 9 l8 -12 q-6 -4 -21 -37 q16 -14 17.5 -22.5 q1.5 -8.5 -2 -15 q-3.5 -6.5 -16.5 -18.5 l-8 1 q13 13 14.5 19.5 q1.5 6.5 0 13.5 ZM76 143 q-10 19 -31 40 l3 4 q34 -20 35.5 -22 q1.5 -2 -3.5 -22 l-4 0 ZM119 127 q-4 0 -12 -4 l-14 10 l92 12 q6 0 14 10 l13 -9 q-8 -8 -8 -10.5 q0 -2.5 -1.5 -24 q-1.5 -21.5 -7.5 -45 q-6 -23.5 -12.5 -35.5 q-6.5 -12 -10.5 -14 l-28 33 l2 5 l26 -19 q8 13 13 36.5 q5 23.5 8 63.5 l-74 -9 ZM104 18 l-5 3 q28 42 36 73.5 q8 31.5 9 66.5 q1 35 -3 57 l4 0 l17 -16 q-5 -6 -5 -10.5 q0 -4.5 -1.5 -39 q-1.5 -34.5 -11.5 -65.5 q-10 -31 -40 -69 Z" /><glyph glyph-name="" unicode="&#x53d8;" d="M230 -20 l0 -5 l-52 -3 q-82 81 -94 87 l1 1 l21 0 q0 -7 1.5 -9.5 q1.5 -2.5 19.5 -19 q18 -16.5 41 -31.5 q23 -15 62 -20 ZM153.5 52 q-13.5 -23 -38.5 -43 q-25 -20 -81 -42 l-3 5 q54 24 79 44.5 q25 20.5 47 64.5 l-53 -8 q-4 0 -12 -3 l-15 9 l74 10 q6 3 14 11 l13 -12 q-8 -6 -9.5 -9.5 q-1.5 -3.5 -15 -26.5 ZM27 78 q27 28 34.5 41 q7.5 13 10.5 27 l3 0 l10 -20 q-7 -4 -16 -15.5 q-9 -11.5 -38 -35.5 l-4 3 ZM204 120.5 q8 -5.5 9 -7 q1 -1.5 -3 -18.5 l-4 0 q-14 19 -41 40 l2 5 q29 -14 37 -19.5 ZM133 178 l-5 0 q-3 16 -16 37 l2 3 q15 -11 20.5 -16.5 q5.5 -5.5 5.5 -8.5 q0 -3 -7 -15 ZM112 167 l0 -54 q0 -10 -2 -26 l-5 0 l-9 19 q5 5 5 7 q0 2 0 54 l11 0 ZM133 107 q5 7 5 10 q0 3 0 53 l11 0 l0 -54 q0 -8 -2 -24 l-5 0 l-9 15 ZM53 155 l-13 10 l151 13 q5 0 13 5 l12 -8 l0 -4 l-149 -13 q-6 0 -14 -3 Z" /><glyph glyph-name="" unicode="&#x522b;" d="M63.5 31 q-14.5 -26 -50.5 -56 l-4 4 q33 34 45.5 57.5 q12.5 23.5 18 49 q5.5 25.5 5.5 41.5 l17 -16 q-6 -5 -11.5 -29.5 q-5.5 -24.5 -20 -50.5 ZM47.5 133.5 q0.5 4.5 0.5 25.5 q0 21 -1 24 q-1 3 -3 13 l4 2 l11 -15 q1 -55 -3 -75 l-3 0 l-10 16 q4 5 4.5 9.5 ZM154 176 l16 -19 q-3 -4 -4 -9 q-1 -5 -1 -34.5 q0 -29.5 -0.5 -35.5 q-0.5 -6 -3.5 -23 l-4 0 l-7 21 q3 4 4 8 q1 4 1 36 q0 32 0 37 q0 5 -5 18 l4 1 ZM194 -1 q2 5 3 15 l0 172 q-2 15 -5 26 l2 3 l18 -17 q-2 -7 -3 -10 q-1 -3 -1 -182 q-2 -13 -6 -28 l-4 0 l-41 37 l3 3 l34 -19 ZM53 183 l53 7 q6 1 15 11 l9 -12 q-8 -5 -8.5 -7.5 q-0.5 -2.5 -4.5 -43.5 l-12 0 l5 44 l-57 -8 l0 9 ZM56 132 l46 7 q7 1 15 4 l8 -10 l-69 -10 l0 9 ZM99 8 q8 15 11 28 q3 13 7 47 l-75 -10 q-5 0 -8 -3 l-14 10 l92 11 q5 1 13 12 l11 -13 q-7 -6 -7.5 -8.5 q-0.5 -2.5 -2 -15 q-1.5 -12.5 -5.5 -32.5 q-4 -20 -18 -44 l-3 0 l-33 28 l2 5 l30 -15 Z" /><glyph glyph-name="" unicode="&#x6ce2;" d="M42 186 l2 4 q39 -19 39 -21 q0 -2 -3 -18 l-4 0 q-8 13 -34 35 ZM65 110.5 q1 -4.5 -1 -18.5 l-4 0 q-11 16 -36 35 l2 3 q38 -15 39 -19.5 ZM50 -4 l-24 28 l2 4 l19 -11 l35 99 l6 0 l-34 -120 l-4 0 ZM72 -22 l-5 3 q25 53 31 83 q6 30 6 58.5 q0 28.5 -3 49.5 l5 0 l9 -21 q1 -62 -6.5 -92 q-7.5 -30 -36.5 -81 ZM152 38.5 q18 22.5 32 63.5 l-42 -7 q-5 0 -12 -4 l-13 9 l64 10 q5 3 11 12 l13 -13 q-11 -9 -11.5 -11.5 q-0.5 -2.5 -7 -19.5 q-6.5 -17 -24.5 -42 q-18 -25 -71 -55 l-3 5 q46 30 64 52.5 ZM242 -3 l0 -5 l-48 -4 q-61 89 -69 96 l16 0 q0 -8 1 -9.5 q1 -1.5 14.5 -19.5 q13.5 -18 31 -36 q17.5 -18 54.5 -22 ZM112 151 l84 10 q6 1 15 11 l12 -12 q-10 -7 -24 -32 l-5 1 l8 24 l-90 -11 l0 9 ZM153 103 l0 81 q0 15 -5 28 l3 3 l18 -19 q-3 -5 -4 -8.5 q-1 -3.5 -1 -84.5 l-11 0 Z" /><glyph glyph-name="" unicode="&#x4e0d;" d="M224 194 l0 -5 l-170 -15 q-4 0 -12 -4 l-13 11 q166 14 168 15 q2 1 12 7 l15 -9 ZM109.5 109 q-26.5 -28 -91.5 -70 l-3 5 q66 47 90 75.5 q24 28.5 31.5 40.5 q7.5 12 7.5 26 l5 -1 l11 -21 q-7 -3 -15.5 -15 q-8.5 -12 -35 -40 ZM120 50.5 q0 34.5 0 43.5 q0 9 -6 25 l5 0 l17 -19 q-5 -5 -5 -12.5 q0 -7.5 0 -43 q0 -35.5 0 -39.5 q0 -4 -3 -27 l-5 0 l-9 24 q4 6 5 10 q1 4 1 38.5 ZM222 77.5 q2 -2.5 0 -22.5 l-4 0 q-27 27 -66 56 l3 3 q43 -22 54 -28 q11 -6 13 -8.5 Z" /><glyph glyph-name="" unicode="&#x6b65;" d="M130 114 l0 81 q0 9 -5 20 l4 3 l16 -17 q-2 -5 -3 -8 q-1 -3 -1 -79 l-11 0 ZM82 108 l-2 54 q0 8 -6 18 l4 3 l18 -16 q-4 -4 -4.5 -8 q-0.5 -4 0.5 -51 l-10 0 ZM205 165 l0 -3 l-72 -8 l0 9 q48 5 50.5 6 q2.5 1 9.5 4 l12 -8 ZM233 121 l-1 -3 l-172 -15 q-7 0 -15 -4 l-13 11 q176 15 179 16 q3 1 8 4 l14 -9 ZM83.5 71.5 q9.5 12.5 12.5 26.5 l3 0 l8 -22 q-7 -1 -17 -12.5 q-10 -11.5 -34 -29.5 l-3 4 q21 21 30.5 33.5 ZM201 73 q-11 -4 -18.5 -12.5 q-7.5 -8.5 -40 -33 q-32.5 -24.5 -121.5 -60.5 l-3 5 q90 40 118 63 q28 23 38.5 35 q10.5 12 17.5 26 l4 1 l5 -24 ZM123 49 q4 6 4.5 9.5 q0.5 3.5 0.5 18 q0 14.5 0 19 q0 4.5 -6 18.5 l3 0 l19 -16 q-4 -6 -5 -9.5 q-1 -3.5 -1 -18.5 q0 -15 -2 -39 l-4 0 l-9 18 Z" /><glyph glyph-name="" unicode="&#x624d;" d="M101.5 67.5 q-26.5 -32.5 -85.5 -70.5 l-2 5 q57 43 78.5 70.5 q21.5 27.5 39.5 62.5 l12 3 q-16 -38 -42.5 -70.5 ZM61 122 q-5 0 -13 -4 l-14 10 l163 20 q4 0 12 6 l15 -8 l0 -4 l-163 -20 ZM147.5 183 q-0.5 -4 -0.5 -184 q-1 -11 -2.5 -19.5 q-1.5 -8.5 -5.5 -9.5 l-38 31 l1 5 l31 -16 q3 9 3 20 l0 173 q0 16 -6 29 l3 3 l19 -19 q-4 -9 -4.5 -13 Z" /><glyph glyph-name="" unicode="&#x53c2;" d="M18 26 l-3 4 q55 45 69.5 64 q14.5 19 21 32.5 q6.5 13.5 8.5 27.5 l14 -16 q-8 -6 -12.5 -17 q-4.5 -11 -23 -33.5 q-18.5 -22.5 -74.5 -61.5 ZM50 -28 q56 23 77 37.5 q21 14.5 29.5 23.5 q8.5 9 13.5 19 l4 0 l4 -21 q-8 -1 -16 -8.5 q-8 -7.5 -31.5 -22.5 q-23.5 -15 -78.5 -32 l-2 4 ZM72 15 q40 24 56 38.5 q16 14.5 22 28.5 l3 -1 l4 -20 q-7 -1 -25 -16 q-18 -15 -58 -34 l-2 4 ZM63 45 q35 21 49 34.5 q14 13.5 20 26.5 l3 0 l5 -18 q-6 -2 -21 -15 q-15 -13 -54 -32 l-2 4 ZM147 191 q43 -23 43.5 -26.5 q0.5 -3.5 -1.5 -16.5 l-5 0 q-16 22 -40 40 l3 3 ZM72 135 l-11 13 q9 4 21.5 16 q12.5 12 23 26 q10.5 14 14.5 28 l4 0 l7 -21 q-7 -1 -17 -12.5 q-10 -11.5 -33 -33.5 l100 13 l0 -6 q-97 -15 -109 -23 ZM200 55 l-64 64 l8 1 q33 -30 49.5 -41.5 q16.5 -11.5 56.5 -15.5 l0 -5 l-50 -3 ZM224 123 l-175 -19 q-5 0 -12 -3 l-13 9 l176 18 q4 2 11 7 l12 -9 l1 -3 Z" /><glyph glyph-name="" unicode="&#x573a;" d="M121 112 l83 9 q7 1 18 11 l11 -12 q-9 -6 -10 -9 q-1 -3 -5.5 -26.5 q-4.5 -23.5 -13 -54 q-8.5 -30.5 -29.5 -60.5 l-4 0 l-31 40 l3 4 l29 -26 q12 16 21 44 q9 28 19 81 l-97 -11 l6 10 ZM9 26 l96 37 l2 -5 q-72 -34 -82 -41 l-16 9 ZM176.5 78 q-7.5 -16 -24 -41 q-16.5 -25 -66.5 -65 l-3 5 q46 40 62.5 66.5 q16.5 26.5 22.5 43 q6 16.5 6 27.5 l16 -16 q-6 -4 -13.5 -20 ZM135 66.5 q-14 -24.5 -60 -64.5 l-3 5 q45 45 56 67.5 q11 22.5 14 36.5 l13 -16 q-6 -4 -20 -28.5 ZM59 204 l3 3 l17 -18 q-4 -6 -5 -10.5 q-1 -4.5 -1 -131.5 l-11 -3 l0 131 q-1 16 -3 29 ZM83 121 q6 3 12 6 l11 -8 l1 -3 l-61 -8 q-5 0 -13 -4 l-14 10 l64 7 ZM177 179 q-52 -5 -59 -10 l-13 11 l68 7 q6 1 17 9 l11 -10 q-11 -6 -13 -9 q-2 -3 -73 -79 l-10 8 q18 10 72 73 Z" /><glyph glyph-name="" unicode="&#x957f;" d="M76 -10 q3 6 3.5 12.5 q0.5 6.5 0.5 91.5 q0 85 -0.5 93.5 q-0.5 8.5 -5.5 22.5 l3 2 l19 -18 q-3 -8 -4 -11.5 q-1 -3.5 -1 -191.5 l-15 -1 ZM13 93 l184 19 q4 2 11 5 l12 -8 l1 -4 l-178 -19 q-5 0 -16 -5 l-14 12 ZM85 -21 l-11 12 l64 40 l3 -6 q-49 -37 -56 -46 ZM229 4 l0 -5 l-48 -3 l-83 102 l7 2 q50 -59 71.5 -75.5 q21.5 -16.5 52.5 -20.5 ZM154.5 160 q-15.5 -16 -66.5 -49 l-3 6 q43 33 60 51 q17 18 23 31 l4 0 l6 -21 q-8 -2 -23.5 -18 Z" /><glyph glyph-name="" unicode="&#x8f66;" d="M34 160 q155 13 157 14 q2 1 8 4 l15 -8 l-1 -4 l-153 -13 q-4 0 -12 -3 l-14 10 ZM21 44 l185 17 q5 0 10 6 l13 -8 l0 -5 l-182 -16 q-5 -1 -13 -5 l-13 11 ZM121 144 l4 2 l17 -17 q-5 -7 -5 -11 q0 -4 0.5 -61 q0.5 -57 -2.5 -85 l-3 0 l-11 24 q3 6 4 9 q1 3 1 58 q0 55 -0.5 61 q-0.5 6 -4.5 20 ZM66 84 l-8 11 q8 5 23 29.5 q15 24.5 26 48 q11 23.5 13 38.5 l4 -1 l11 -20 q-8 -2 -20 -24.5 q-12 -22.5 -40 -67.5 q89 10 90.5 11 q1.5 1 12.5 4 l11 -7 l0 -4 q-111 -13 -114 -14 q-3 -1 -9 -4 Z" /><glyph glyph-name="" unicode="&#x57ce;" d="M50 44 l0 122 q0 12 -5 25 l3 3 l17 -19 q-4 -5 -4 -9 q0 -4 0 -116 l-11 -6 ZM178.5 56 q13.5 -36 42.5 -60 l4 51 l5 0 l2 -69 l-5 -1 q-39 28 -55.5 69 q-16.5 41 -20 91 q-3.5 50 -3 57.5 q0.5 7.5 -4.5 20.5 l2 3 l16 -11 q-5 -8 -1 -61.5 q4 -53.5 17.5 -89.5 ZM21 18 l-13 13 l93 43 l0 -5 q-73 -43 -80 -51 ZM124 14 q6 15 7.5 30.5 q1.5 15.5 3.5 44.5 l-34 -6 l0 9 l29 5 q4 1 11 11 l11 -10 q-7 -8 -6.5 -10.5 q0.5 -2.5 -0.5 -16 q-1 -13.5 -3.5 -32 q-2.5 -18.5 -13.5 -43.5 l-27 28 l3 4 l20 -14 ZM95 32 q-15 -34 -37 -61 l-5 3 q21 32 32.5 63 q11.5 31 11.5 67 q0 36 -4 53 l4 1 l11 -20 q2 -72 -13 -106 ZM90 118 l-54 -9 q-4 0 -12 -4 l-14 9 l62 10 q3 2 8 5 l10 -7 l0 -4 ZM104 138 l99 15 q5 0 13 6 l11 -8 l-1 -4 l-122 -18 l0 9 ZM173 194 l3 3 q30 -14 31 -16 q1 -2 -2 -17 l-4 0 q-7 12 -28 30 ZM196.5 75.5 q-10.5 -25.5 -55.5 -79.5 l-4 5 q44 57 53.5 86 q9.5 29 9.5 43 l4 0 l12 -19 q-7 -5 -8 -7.5 q-1 -2.5 -11.5 -28 Z" /><glyph glyph-name="" unicode="&#x6210;" d="M56 111.5 q1 28.5 -4 50.5 l4 0 l12 -19 q-1 -61 -7.5 -89.5 q-6.5 -28.5 -39.5 -75.5 l-5 3 q29 51 34 76.5 q5 25.5 6 54 ZM58 81 l0 9 l40 6 q6 2 14 10 l10 -8 q-7 -11 -7 -13.5 q0 -2.5 -1 -13 q-1 -10.5 -3.5 -30 q-2.5 -19.5 -8.5 -32.5 q-6 -13 -10 -13 l-29 37 l3 4 l26 -22 q6 15 8 30 q2 15 4 43 l-46 -7 ZM64 143 q120 13 122.5 14 q2.5 1 7.5 5 l11 -7 l0 -5 l-144 -16 l3 9 ZM130 194.5 q0 4.5 -5 17.5 l3 3 l18 -13 q-4 -7 -4 -15.5 q0 -8.5 3 -55.5 q3 -47 17 -82 q14 -35 51 -53 l3 51 l5 0 l6 -67 l-3 -2 q-55 22 -71 66 q-16 44 -19.5 95 q-3.5 51 -3.5 55.5 ZM179.5 72 q-13.5 -17 -65.5 -57 l-3 6 q50 42 64 63.5 q14 21.5 17 34.5 l3 0 l9 -21 q-8 -4 -9.5 -6.5 q-1.5 -2.5 -15 -19.5 ZM197 172 l-5 0 q-8 13 -27 32 l3 3 q30 -16 30.5 -19 q0.5 -3 -1.5 -16 Z" /><glyph glyph-name="" unicode="&#x7a0b;" d="M80 176.5 q-19 -9.5 -56 -19.5 l-1 5 q35 13 51 23.5 q16 10.5 22 18.5 l4 0 l12 -15 q-13 -3 -32 -12.5 ZM17 31 l-4 4 q29 37 61 95 l3 -19 q-30 -49 -60 -80 ZM65 -4 q3 8 4 9.5 q1 1.5 1 174.5 l11 6 l0 -176 q0 -7 -2 -35 l-4 0 l-10 21 ZM129 124 q3 6 2.5 9 q-0.5 3 -1 24 q-0.5 21 -1 23.5 q-0.5 2.5 -4.5 18.5 l5 1 l10 -17 q2 -53 0 -75 l-3 0 l-8 16 ZM170 2 l-11 0 l0 90 l11 0 l0 -90 ZM120 132 l0 -3 l-76 -7 q-4 -1 -12 -4 l-14 10 l78 8 q7 3 13 6 l11 -10 ZM112 92 q80 8 82 9.5 q2 1.5 8 4.5 l15 -8 l-1 -4 l-79 -8 q-4 0 -12 -3 l-13 9 ZM114 50 q72 8 74 8.5 q2 0.5 8 5.5 l13 -7 l1 -5 l-68 -7 q-6 -1 -14 -4 l-14 9 ZM93 0 q120 10 122 11 q2 1 7 4 l13 -8 l-1 -4 l-116 -10 q-4 0 -12 -3 l-13 10 ZM74 116 l3 3 q30 -14 31 -16 q1 -2 -2 -16 l-4 0 q-7 11 -28 29 ZM136 132 l49 6 q4 0 12 5 l11 -8 l0 -4 l-72 -8 l0 9 ZM208 189 q-7 -6 -7 -8.5 q0 -2.5 -3 -45.5 l-11 0 l3 47 l-54 -8 l0 9 l49 7 q4 1 13 8 l10 -9 Z" /><glyph glyph-name="" unicode="&#x62bd;" d="M16 135 q66 8 69 9 q3 1 8 4 l12 -7 l1 -4 l-63 -8 q-6 0 -14 -4 l-13 10 ZM128 66 q51 5 53.5 5.5 q2.5 0.5 7.5 4.5 l11 -7 l0 -4 l-47 -6 q-4 0 -12 -3 l-13 10 ZM120 3 q65 5 67 5.5 q2 0.5 8 3.5 l13 -11 l-88 -8 l0 10 ZM113 58 q-1 57 -1 60.5 q0 3.5 -3 16.5 l3 0 l11 -13 q3 -126 1 -150 l-4 0 l-8 19 q3 6 2.5 8 q-0.5 2 -1.5 59 ZM157 181 q-1 18 -5 34 l3 3 l19 -20 q-4 -7 -5 -11 q-1 -4 -1 -185 l-11 0 l0 179 ZM82 197 q-3 -6 -4 -13.5 q-1 -7.5 -1 -184.5 q0 -11 -4 -29 l-3 0 l-33 40 l3 4 l24 -19 q2 4 2 15 l0 168 q-1 24 -5 37 l3 3 l18 -21 ZM27 53 l-17 10 l94 43 l1 -6 q-64 -36 -78 -47 ZM210 -17 l-3 0 l-8 19 q6 5 6 7.5 q0 2.5 4 113.5 l-92 -10 l0 9 l86 9 q5 1 13 12 l12 -11 q-8 -8 -8 -10.5 q0 -2.5 -1.5 -60.5 q-1.5 -58 -8.5 -78 Z" /><glyph glyph-name="" unicode="&#x521d;" d="M45 140 q-3 0 -11 -3 l-13 9 l62 8 q7 0 15 10 l14 -10 q-11 -6 -17 -19.5 q-6 -13.5 -23 -33.5 q-17 -20 -59 -46 l-3 5 q37 27 52.5 45.5 q15.5 18.5 26.5 40.5 l-44 -6 ZM77 112 l0 -100 q0 -7 -2 -34 l-4 0 l-10 24 q3 5 4 7.5 q1 2.5 1 94.5 l11 8 ZM74 84 l3 3 q38 -14 38.5 -16 q0.5 -2 -1.5 -15 l-5 0 q-8 11 -35 28 ZM77 84 l-3 6 q22 13 31 21 q9 8 12 19 l4 -1 l4 -23 q-8 0 -17 -5 q-9 -5 -31 -17 ZM120 154 l88 10 q5 0 13 11 l13 -11 q-7 -8 -7.5 -10.5 q-0.5 -2.5 -2.5 -33 q-2 -30.5 -7.5 -67.5 q-5.5 -37 -19.5 -67 l-4 0 l-34 37 l3 5 l31 -23 q8 22 13 53.5 q5 31.5 9 96.5 l-68 -8 q-5 0 -11 -3 l-16 10 ZM171 156 q-6 -66 -21 -100 q-15 -34 -57 -70 l-3 4 q40 42 51.5 73 q11.5 31 17.5 91 l12 2 ZM88 175 l-5 0 q-6 17 -22 35 l4 3 q30 -20 30 -23 q0 -3 -7 -15 Z" /><glyph glyph-name="" unicode="&#x51fa;" d="M55 93 q9 7 7 30 q-2 23 -3 28 q-1 5 -9 21 l5 1 l20 -19 q-3 -6 -3 -9.5 q0 -3.5 2 -44.5 l113 14 l0 -9 q-108 -14 -111.5 -14.5 q-3.5 -0.5 -10.5 -7.5 l-10 10 ZM43 -11 q9 8 8.5 30.5 q-0.5 22.5 -1 26.5 q-0.5 4 -5.5 20 l5 1 l17 -20 q-4 -5 -4 -8 q0 -3 0 -43 l132 16 l0 -9 q-122 -15 -128 -16.5 q-6 -1.5 -10 -8.5 l-14 11 ZM189 87 l-3 0 l-8 19 q4 5 4 9 q0 4 2 24 q2 20 1 24 q-1 4 -4 17 l2 3 l19 -19 q-4 -4 -5 -8.5 q-1 -4.5 -2.5 -25.5 q-1.5 -21 -5.5 -43 ZM195 -22 l-3 0 l-7 24 q5 7 5.5 10 q0.5 3 1.5 24 q1 21 1.5 24 q0.5 3 -4.5 16 l4 2 l17 -20 q-6 -6 -6 -9 q0 -3 -1.5 -27 q-1.5 -24 -7.5 -44 ZM117 -4 l0 176 q-1 27 -5 40 l2 3 l19 -24 q-3 -5 -4 -12.5 q-1 -7.5 -1 -182.5 l-11 0 Z" /><glyph glyph-name="" unicode="&#x89e6;" d="M141 54 l0 9 l56 5 q3 1 13 5 l8 -11 l-77 -8 ZM135 60 q3 6 2.5 8.5 q-0.5 2.5 -1 23 q-0.5 20.5 -0.5 22.5 q0 2 -6 24 l4 0 l12 -22 q2 -55 0 -74 l-4 0 l-7 18 ZM78.5 15 q0.5 5 0.5 104 l10 0 l0 -104 q0 -11 -2 -29 l-4 0 l-8 20 q3 4 3.5 9 ZM187 189 q-3 -6 -4 -12 q-1 -6 -1 -167 l-11 -3 l0 171 q-1 16 -5 29 l3 3 l18 -21 ZM53 35.5 q-6 -28.5 -32 -68.5 l-5 4 q22 39 27 68 q5 29 5 53 q0 24 -3 38 l14 -11 q0 -55 -6 -83.5 ZM111 85 l1 -3 q-32 -3 -40 -6 l-11 8 q32 3 43 7 l7 -6 ZM93 -12 l1 5 l16 -8 q2 9 2 19 l0 114 l-56 -8 l0 9 l52 6 q4 2 12 10 l10 -8 q-7 -8 -7 -10 q0 -2 0 -123 q0 -11 -5 -27 l-25 21 ZM65 172 q12 24 12 38 l4 1 l10 -25 q-7 -3 -8 -5.5 q-1 -2.5 -12.5 -20.5 q-11.5 -18 -55.5 -64 l-3 5 q41 47 53 71 ZM61 150 l6 9 l28 4 q3 1 13 10 l9 -12 q-9 -4 -31 -44 l-5 2 l16 36 l-36 -5 ZM82 45 q-5 0 -12 -4 l-14 9 q37 4 40 4.5 q3 0.5 8 4.5 l10 -6 l0 -4 l-32 -4 ZM141 116 l59 7 q5 1 14 12 l10 -12 q-7 -7 -7.5 -9 q-0.5 -2 -2.5 -46 l-11 0 l3 47 l-65 -8 l0 9 ZM138 -12 l-10 14 l90 18 l3 -6 q-71 -19 -83 -26 ZM234 3 q0 -4 -8 -15 l-4 0 q-3 20 -17 51 l4 3 q25 -35 25 -39 Z" /><glyph glyph-name="" unicode="&#x7a7f;" d="M193 83 q9 3 15 6 l13 -8 l0 -4 q-132 -14 -135.5 -14.5 q-3.5 -0.5 -11.5 -7.5 l-9 11 q9 5 13 13 q4 8 4 19 l4 -1 l10 -10 q-6 -3 -12 -15 l109 11 ZM142 -10 q2 9 2 20 l0 106 l11 0 l0 -117 q0 -17 -6 -31 l-40 34 l2 4 l31 -16 ZM143 74 q-24 -29 -47.5 -49 q-23.5 -20 -70.5 -40 l-2 5 q46 23 68.5 43.5 q22.5 20.5 34.5 38.5 l17 2 ZM93.5 129.5 q-19.5 -13.5 -53.5 -29.5 l-3 4 q35 21 51 34 q16 13 21 24 l3 0 l8 -16 q-7 -3 -26.5 -16.5 ZM69 111 q92 10 93 11 q1 1 8 4 l11 -7 l0 -4 l-86 -10 q-5 0 -13 -4 l-13 10 ZM210 116 l-4 0 q-28 22 -65 40 l3 4 q39 -13 51 -18 q12 -5 13.5 -6.5 q1.5 -1.5 1.5 -19.5 ZM56 191 l5 0 q0 -30 -1 -36 q-1 -6 -7 -23 l-4 0 l-6 23 q9 9 13 36 ZM58 170 l143 15 q4 1 12 9 l10 -12 q-7 -4 -23 -32 l-3 3 l8 24 l-149 -16 l2 9 ZM117 213 q27 -17 27.5 -20 q0.5 -3 -6.5 -15 l-4 0 q-6 17 -20 32 l3 3 Z" /><glyph glyph-name="" unicode="&#x6625;" d="M197 170 l-121 -11 q-4 0 -12 -3 l-14 10 q125 10 126.5 11.5 q1.5 1.5 7.5 4.5 l13 -9 l0 -3 ZM183 139 l-92 -7 q-6 0 -14 -3 l-13 9 q98 8 99.5 9 q1.5 1 6.5 4 l13 -9 l0 -3 ZM221 113 l-166 -16 q-5 0 -13 -4 l-13 10 q168 16 170.5 16.5 q2.5 0.5 8.5 4.5 l13 -8 l0 -3 ZM130 44 l13 -7 l1 -4 l-59 -6 l0 8 q36 3 38 4 q2 1 7 5 ZM139 4 l13 -9 l-1 -3 l-66 -4 l3 9 q39 1 42.5 2 q3.5 1 8.5 5 ZM146 -5 q7 5 7.5 10 q0.5 5 2.5 64 l-71 -7 l0 9 l66 6 q3 1 11 12 l11 -11 q-6 -8 -6 -10 q0 -2 -1 -33.5 q-1 -31.5 -7 -55.5 l-3 0 l-10 16 ZM84 -24 l-7 18 q4 6 4 14 q-1 51 -1 53 q0 2 -5 18 l3 3 l12 -11 q2 -75 -2 -95 l-4 0 ZM16 30 q60 49 74.5 78 q14.5 29 22 60 q7.5 31 7.5 50 l3 1 l15 -25 q-7 -3 -8 -6.5 q-1 -3.5 -7.5 -28.5 q-6.5 -25 -23.5 -56 q-17 -31 -79 -76 l-4 3 ZM205 36 q-59 67 -67 72 l7 3 q41 -39 55.5 -50.5 q14.5 -11.5 47.5 -17.5 l0 -4 l-43 -3 Z" /><glyph glyph-name="" unicode="&#x6b21;" d="M67 158.5 q8 -5.5 9.5 -8 q1.5 -2.5 -2.5 -20.5 l-4 0 q-12 21 -33 42 l3 3 q19 -11 27 -16.5 ZM157 103 q-7 -5 -10 -20.5 q-3 -15.5 -19 -43 q-16 -27.5 -66 -63.5 l-4 4 q46 39 59 63.5 q13 24.5 17 42 q4 17.5 4 36.5 l5 -1 l14 -18 ZM155 187 q-7 -5 -8 -8 q-1 -3 -7.5 -21 q-6.5 -18 -44.5 -75 l-5 3 q33 56 40.5 83 q7.5 27 7.5 43 l4 -1 l13 -24 ZM194 146 q4 1 14 10 l13 -15 q-12 -6 -40 -41 l-3 3 l22 35 l-79 -8 l3 9 l70 7 ZM237 -12 l0 -5 l-45 -3 q-48 97 -54 97 l3 15 q38 -68 53.5 -84 q15.5 -16 42.5 -20 ZM90 132 l5 -2 l-45 -112 l-5 0 l-27 40 l5 1 l21 -20 l46 93 Z" /><glyph glyph-name="" unicode="&#x4ece;" d="M20 -21 l-4 4 q44 62 52 103 q8 41 9.5 70.5 q1.5 29.5 -0.5 47.5 l4 0 l15 -16 q-6 -8 -7 -38.5 q-1 -30.5 -10 -70 q-9 -39.5 -59 -100.5 ZM153.5 154.5 q2.5 39.5 -2.5 59.5 l4 1 l18 -19 q-5 -8 -5.5 -13 q-0.5 -5 -3 -40 q-2.5 -35 -13 -75.5 q-10.5 -40.5 -61.5 -93.5 l-5 4 q49 58 57.5 97.5 q8.5 39.5 11 79 ZM122 55 l-5 -1 q-12 23 -41 44 l1 5 q28 -15 36.5 -21 q8.5 -6 8.5 -7.5 q0 -1.5 0 -19.5 ZM154 116 q42 -72 56 -92 q14 -20 40 -23 l0 -5 l-42 -2 l-56 111 l2 11 Z" /><glyph glyph-name="" unicode="&#x5b58;" d="M152 -11 q5 10 6 20 q1 10 0 26 q-1 16 -5 30 q-4 14 -12 38 l5 0 q12 -21 16.5 -35 q4.5 -14 6 -32 q1.5 -18 -0.5 -33 q-2 -15 -10 -33 l-3 0 l-38 37 l3 3 l32 -21 ZM85 63 l123 13 q4 2 10 6 l15 -8 l-1 -4 l-122 -13 q-4 0 -12 -3 l-13 9 ZM45 146 l-13 10 q162 16 164 17 q2 1 9 5 l13 -8 l0 -4 l-161 -16 q-3 0 -12 -4 ZM10 44 l-3 5 q54 42 74 74 q20 32 28.5 53 q8.5 21 10.5 39 l4 -1 l12 -26 q-8 -2 -17 -21 q-9 -19 -30 -51 q-21 -32 -79 -72 ZM81 108 q-4 -10 -4 -14.5 q0 -4.5 0 -51 q0 -46.5 0.5 -51 q0.5 -4.5 -1.5 -21.5 l-5 0 l-10 20 q3 5 4 9 q1 4 1 51.5 q0 47.5 0 51.5 q0 4 -5 20 l4 1 l16 -15 ZM149 82 l29 40 l-49 -8 q-4 0 -11 -4 l-14 9 l68 10 q6 0 18 9 l8 -12 q-7 -3 -45 -47 l-4 3 Z" /><glyph glyph-name="" unicode="&#x8fbe;" d="M93 127 q99 10 101 11 q2 1 8 4 l14 -7 l0 -4 l-97 -10 q-5 0 -13 -3 l-13 9 ZM53 18 q10 13 12 20 q2 7 1 13.5 q-1 6.5 -8 19.5 l15 36 l-35 -6 q-5 0 -13 -5 l-12 11 q59 8 61 9 q2 1 8 7 l11 -13 q-7 -4 -8.5 -6 q-1.5 -2 -18.5 -32 q9 -13 10.5 -20 q1.5 -7 -0.5 -14 q-2 -7 -16 -20 l-7 0 ZM74 151 l-4 0 q-12 21 -33 40 l3 3 q21 -11 30 -17.5 q9 -6.5 9.5 -10 q0.5 -3.5 -5.5 -15.5 ZM138 218 l3 0 l19 -22 q-6 -5 -6 -8 q0 -3 -1.5 -30.5 q-1.5 -27.5 -9.5 -57.5 q-8 -30 -45 -77 l-4 3 q35 53 40.5 81 q5.5 28 7 60 q1.5 32 -3.5 51 ZM205 34 l-4 0 q-10 19 -60 69 l1 3 q39 -29 52 -40 q13 -11 13.5 -12.5 q0.5 -1.5 -2.5 -19.5 ZM242 -11 l-46 -13 q-74 28 -102.5 33.5 q-28.5 5.5 -34.5 5.5 q-6 0 -41 -5 l-8 8 q39 4 52.5 3.5 q13.5 -0.5 38 -5.5 q24.5 -5 60 -14.5 q35.5 -9.5 80.5 -8.5 l1 -4 Z" /><glyph glyph-name="" unicode="&#x5927;" d="M225 127 l-1 -3 l-163 -16 q-5 0 -13 -3 l-14 10 l166 16 q4 2 10 5 l15 -9 ZM26 -22 l-5 4 q68 49 83.5 89 q15.5 40 16.5 80 q1 40 -3 56 l3 1 l21 -22 q-8 -6 -8 -11 q0 -5 -2 -40.5 q-2 -35.5 -20.5 -75 q-18.5 -39.5 -85.5 -81.5 ZM237 -4 l0 -5 l-48 -3 q-64 124 -71 128 l10 3 q45 -80 62.5 -100 q17.5 -20 46.5 -23 Z" /><glyph glyph-name="" unicode="&#x6020;" d="M114 180 q-11 -13 -43 -42 l115 18 l2 -8 q-118 -18 -126 -24 l-9 14 q8 2 22.5 16 q14.5 14 27.5 31.5 q13 17.5 17 29.5 l4 0 l9 -20 q-8 -2 -19 -15 ZM194 -25 q-53 -3 -79 14 q-26 17 -42 53 l5 2 q21 -32 43.5 -45 q22.5 -13 53.5 -13 l-5 42 l5 0 l19 -53 ZM37 -14 l-5 20 q13 9 18 44 l6 0 q0 -27 -2 -37.5 q-2 -10.5 -12 -27.5 l-5 1 ZM195 135 q-17 24 -46 43 l3 4 q31 -15 39 -20.5 q8 -5.5 9 -7 q1 -1.5 0 -19.5 l-5 0 ZM230.5 29.5 q1.5 -2.5 -4.5 -17.5 l-4 0 q-12 21 -36 44 l3 3 q24 -15 32 -21 q8 -6 9.5 -8.5 ZM117 55 l3 3 q17 -11 23.5 -16.5 q6.5 -5.5 6.5 -8 q0 -2.5 -6 -13.5 l-4 0 q-7 16 -23 35 ZM84 111 q2 -45 1 -61 l-3 0 l-11 18 q3 5 3.5 7.5 q0.5 2.5 0 16 q-0.5 13.5 -0.5 16 q0 2.5 -4 13.5 l2 3 l12 -13 ZM82 71 l74 8 q6 0 14 5 l8 -11 l-96 -11 l0 9 ZM156 121 q6 1 14 11 l11 -10 q-8 -8 -8 -10.5 q0 -2.5 -3 -35.5 l-10 0 l3 37 l-83 -11 l0 9 l76 10 Z" /><glyph glyph-name="" unicode="&#x5355;" d="M80 202 l4 2 q16 -16 22 -23 q6 -7 6 -9.5 q0 -2.5 -7 -12.5 l-4 0 q-5 18 -21 43 ZM75 148 q2 -68 -1 -88 l-3 0 l-10 19 q3 5 4 7.5 q1 2.5 0.5 26.5 q-0.5 24 -1 29.5 q-0.5 5.5 -6.5 21.5 l3 3 l14 -19 ZM115 -11 q3 7 4 11 q1 4 1 151 l11 0 l0 -155 l-2 -26 l-3 0 l-11 19 ZM140 151 l-7 0 q13 29 17 41 q4 12 4 26 l3 0 l13 -19 q-6 -5 -10.5 -14 q-4.5 -9 -19.5 -34 ZM176 90 l6 60 l-116 -11 l0 9 l108 10 q5 0 17 10 l10 -11 q-8 -6 -8 -8.5 q0 -2.5 -6 -58.5 l-11 0 ZM195 90 l-1 -3 l-125 -13 l0 9 l103 10 q6 2 14 6 l9 -9 ZM82 116 q59 6 61 6.5 q2 0.5 9 4.5 l13 -7 l0 -4 l-56 -5 q-5 0 -13 -4 l-14 9 ZM42 34 q-5 0 -13 -3 l-13 10 q192 15 194.5 15.5 q2.5 0.5 9.5 6.5 l15 -10 l1 -4 l-194 -15 Z" /><glyph glyph-name="" unicode="&#x5230;" d="M141 98 l-5 0 q-11 21 -30 45 l4 2 q32 -27 33 -29 q1 -2 -2 -18 ZM34 170 q91 8 93 9 q2 1 9 4 l12 -6 l1 -5 l-87 -8 q-6 0 -14 -3 l-14 9 ZM61 51 q-5 0 -13 -4 l-14 10 q83 8 85 9 q2 1 9 4 l12 -8 l1 -3 l-80 -8 ZM145 28 q-105 -29 -112 -37 l-12 13 l123 30 l1 -6 ZM220 191 q-2 -6 -3 -10 q-1 -4 -1 -185 q-1 -15 -5 -29 l-4 0 l-42 43 l3 3 l34 -22 q2 5 3 16 l0 175 q0 9 -5 25 l2 3 l18 -19 ZM173 136 q-1 -3 -1 -78 l-2 -22 l-4 0 l-9 24 q2 5 4 8 q2 3 1.5 36.5 q-0.5 33.5 -1 38.5 q-0.5 5 -4.5 21 l4 1 l15 -19 q-2 -7 -3 -10 ZM103 87 q-4 -4 -4.5 -7.5 q-0.5 -3.5 -0.5 -61.5 l-11 0 l0 59 q0 13 -4 26 l3 3 l17 -19 ZM84.5 142 q-8.5 -12 -30.5 -39 l82 13 l0 -6 q-83 -16 -91 -22 l-11 12 q9 3 28 29.5 q19 26.5 22 40.5 l14 -14 q-5 -2 -13.5 -14 Z" /><glyph glyph-name="" unicode="&#x5f97;" d="M14 66 q40 37 53.5 57 q13.5 20 14.5 31 l4 2 l8 -21 q-8 -3 -19 -19.5 q-11 -16.5 -58 -53.5 l-3 4 ZM90 191 q-8 -3 -21 -20 q-13 -17 -45 -39 l-3 3 q29 25 42.5 44.5 q13.5 19.5 14.5 31.5 l3 1 l9 -21 ZM57 103 l11 11 l0 -118 l-1 -18 l-4 -1 l-11 22 q3 7 4 9.5 q1 2.5 1 94.5 ZM106 202 l5 0 l11 -14 q1 -58 -2 -77 l-3 0 l-8 19 q2 5 3 7.5 q1 2.5 0.5 23 q-0.5 20.5 -1.5 23.5 q-1 3 -5 18 ZM117 188 l61 7 q6 1 14 10 l11 -10 q-8 -7 -7.5 -9.5 q0.5 -2.5 -2.5 -51.5 l-10 -2 l2 55 l-68 -8 l0 9 ZM174 -4 q2 6 2 16 l0 65 q0 10 -3 23 l3 3 l16 -16 q-3 -6 -4 -9 q-1 -3 -1 -76 q0 -11 -6 -30 l-3 1 l-37 39 l3 3 l30 -19 ZM120 130 l60 7 q4 1 12 6 l8 -8 l0 -4 l-80 -10 l0 9 ZM117 160 q37 4 39 5.5 q2 1.5 6 4.5 l12 -7 l-1 -4 l-56 -8 l0 9 ZM98 98 q96 10 97.5 10.5 q1.5 0.5 9.5 5.5 l13 -9 l0 -3 l-94 -11 q-4 0 -12 -2 l-14 9 ZM82 60 q134 14 135.5 14.5 q1.5 0.5 8.5 4.5 l12 -8 l2 -4 l-131 -13 q-5 0 -13 -3 l-14 9 ZM114 58 l3 2 q24 -24 24.5 -26.5 q0.5 -2.5 -5.5 -13.5 l-3 0 q-6 19 -19 38 Z" /><glyph glyph-name="" unicode="&#x7684;" d="M168 52 q-10 24 -30 48 l4 3 q20 -16 26 -23 q6 -7 7 -9 q1 -2 -3 -19 l-4 0 ZM185 -8 q8 16 11.5 48.5 q3.5 32.5 6.5 93.5 l-70 -8 l2 9 l61 7 q6 1 16 11 l12 -11 q-11 -7 -10.5 -11 q0.5 -4 -1 -31 q-1.5 -27 -6 -65.5 q-4.5 -38.5 -18.5 -63.5 l-4 1 l-35 43 l3 3 l33 -26 ZM118 138 q-8 -8 -8 -11 q0 -3 -2 -53.5 q-2 -50.5 -5 -69.5 l-3 0 l-9 16 q4 10 4 11.5 q0 1.5 4 99.5 l-57 -8 l0 9 l52 7 q4 1 10 9 l14 -10 ZM48 132 q15 30 18.5 43.5 q3.5 13.5 2.5 28.5 l3 1 l16 -25 q-7 -4 -12.5 -14 q-5.5 -10 -19.5 -36 l-8 2 ZM146 212 l3 -1 l15 -19 q-6 -5 -9.5 -17 q-3.5 -12 -9 -30 q-5.5 -18 -30.5 -64 l-5 3 q22 52 28 77 q6 25 7 31 q1 6 1 20 ZM47 132 q2 -115 -1 -136 l-4 0 l-8 21 q3 6 3.5 8 q0.5 2 -0.5 52 q-1 50 -0.5 53 q0.5 3 -4.5 21 l4 0 l11 -19 ZM72 90 l16 -7 l0 -4 l-46 -5 l0 8 q20 2 22 2.5 q2 0.5 8 5.5 ZM98 20 l-56 -5 l0 9 q29 3 30.5 4 q1.5 1 7.5 4 l18 -12 Z" /><glyph glyph-name="" unicode="&#x6ef4;" d="M162 127 q8 16 11 26.5 q3 10.5 3 18.5 l15 -15 q-7 -3 -10 -10 q-3 -7 -14 -22 l-5 2 ZM88 -6 q3 5 4 7 q1 2 1 58.5 q0 56.5 -0.5 59.5 q-0.5 3 -4.5 19 l4 0 l12 -14 l0 -128 l-2 -21 l-4 0 l-10 19 ZM132 60 q3 -39 1 -53 l-3 0 l-8 13 q3 6 2.5 7.5 q-0.5 1.5 -1.5 14.5 q-1 13 -1 14.5 q0 1.5 -5 14.5 l3 0 l12 -11 ZM128 52 l0 8 l37 6 q3 0 10 7 l9 -7 q-6 -8 -6 -10 q0 -2 -2 -25 l-10 0 l2 27 l-40 -6 ZM130 31 l31 3 q7 0 15 5 l8 -11 l-56 -5 l2 8 ZM109 161 q-5 -1 -13 -4 l-14 10 l122 12 q4 1 14 6 l14 -9 l0 -4 l-123 -11 ZM136 83 q-6 0 -14 -4 l-13 10 q64 6 66.5 7 q2.5 1 8.5 4 l13 -7 l0 -4 l-61 -6 ZM224 135 q-8 -8 -8 -11 q0 -3 0 -128 q-1 -15 -6 -26 l-40 32 l3 3 l30 -13 q2 4 2 15 l0 119 l-107 -11 l0 9 l99 10 q5 1 14 11 l13 -10 ZM122 162 q22 -18 23 -20 q1 -2 -4 -15 l-4 0 q-5 15 -18 32 l3 3 ZM146 58 q5 56 2 66 l3 3 l14 -11 q-5 -5 -5 -7.5 q0 -2.5 -5 -48.5 l-9 -2 ZM160 180 l-4 0 q-4 16 -18 35 l3 3 q14 -11 19.5 -16.5 q5.5 -5.5 6 -8 q0.5 -2.5 -6.5 -13.5 ZM68.5 180 q6.5 -4 6.5 -7.5 q0 -3.5 -3 -13.5 l-3 0 q-10 14 -27 29 l3 3 q17 -7 23.5 -11 ZM52 95 q-10 15 -28 29 l2 3 q18 -7 25 -11 q7 -4 7.5 -7.5 q0.5 -3.5 -2.5 -13.5 l-4 0 ZM25 17 l2 4 l18 -9 l32 120 l5 -1 l-29 -140 l-5 0 l-23 26 Z" /><glyph glyph-name="" unicode="&#x7b2c;" d="M203 82 l14 -11 q-9 -10 -9.5 -13 q-0.5 -3 -3 -17.5 q-2.5 -14.5 -14.5 -36.5 l-5 0 l-38 32 l2 3 l35 -18 q8 7 12 42 l-118 -13 q-5 0 -16 -6 l-8 8 q5 5 6 6.5 q1 1.5 3 16.5 q2 15 -1 31 l4 0 l13 -12 q-5 -8 -8 -35 l118 12 q6 1 14 11 ZM67 95 l99 10 q5 1 13 3 l8 -9 l-120 -13 l0 9 ZM130 179 l1 -4 l-64 -8 l6 9 l36 4 q4 1 11 6 l10 -7 ZM233 179 l-88 -8 l5 9 q61 6 62.5 7 q1.5 1 9.5 4 l11 -8 l0 -4 ZM120 127 l11 0 l0 -133 l-2 -24 l-3 0 l-12 18 q4 6 5 9.5 q1 3.5 1 129.5 ZM23 -16 q42 24 62.5 42.5 q20.5 18.5 29.5 33.5 l14 0 q-9 -18 -34 -38 q-25 -20 -68 -42 l-4 4 ZM57 124 l109 13 q5 0 15 9 l10 -11 q-9 -8 -9 -10.5 q0 -2.5 -3 -21.5 l-10 -3 l3 29 l-90 -11 q-4 0 -12 -3 l-13 9 ZM86 170 l3 2 q21 -21 21.5 -23.5 q0.5 -2.5 -5.5 -10.5 l-3 0 q-5 17 -16 32 ZM169 175 l2 3 q22 -14 22 -16.5 q0 -2.5 -3 -13.5 l-3 0 q-8 15 -18 27 ZM153 170.5 q-9 -14.5 -32 -35.5 l-3 2 q18 25 25 38.5 q7 13.5 9.5 21.5 q2.5 8 5.5 21 l4 -1 l10 -20 q-6 -3 -8 -7.5 q-2 -4.5 -11 -19 ZM68 159 q-12 -16 -38 -40 l-3 4 q24 29 34 43.5 q10 14.5 15 26.5 q5 12 5 23 l4 1 l10 -21 q-7 -5 -11 -13 q-4 -8 -16 -24 Z" /><glyph glyph-name="" unicode="&#x70b9;" d="M74 60 l82 6 q6 0 17 5 l10 -8 l1 -4 l-107 -8 l-3 9 ZM68 52 q4 6 4 9 q0 3 -1 21.5 q-1 18.5 -1.5 22 q-0.5 3.5 -5.5 19.5 l4 1 l12 -14 q3 -54 1 -75 l-3 0 l-10 16 ZM129 187.5 q-1 -3.5 -1 -76.5 l-11 0 l0 73 q0 18 -5 31 l2 3 l19 -22 q-3 -5 -4 -8.5 ZM122 164 l52 5 q4 1 12 6 l15 -9 l1 -3 l-80 -8 l0 9 ZM74 111 l87 8 q4 0 12 11 l12 -12 q-8 -7 -8 -9 q0 -2 -3 -46 l-10 0 l3 47 l-93 -8 l0 9 ZM214 9 q7 -8 8 -10 q1 -2 -6 -19 l-4 0 q-12 28 -36 62 l4 2 q27 -27 34 -35 ZM145 -14 q-2 21 -12 48 l3 2 q11 -13 16 -22 q5 -9 5 -11.5 q0 -2.5 -8 -16.5 l-4 0 ZM107.5 -4.5 q0.5 -3.5 -10.5 -14.5 l-4 2 q1 25 -3 48 l3 3 q8 -17 11 -26 q3 -9 3.5 -12.5 ZM51 42 l5 0 q0 -29 -2.5 -40.5 q-2.5 -11.5 -12.5 -29.5 l-5 0 l-4 24 q12 10 19 46 Z" /><glyph glyph-name="" unicode="&#x7535;" d="M57 143 q2 -96 1 -117 l-4 0 l-9 21 q3 7 2.5 8.5 q-0.5 1.5 -1 42 q-0.5 40.5 -1 44.5 q-0.5 4 -5.5 20 l4 0 l13 -19 ZM122 194 q-3 -4 -4 -8 q-1 -4 -1 -177 q0 -13 16 -13 l32 0 q29 1 43 4 l2 42 l5 0 l9 -51 q-30 -4 -59 -5 l-36 0 q-23 0 -23 21 l0 178 q0 14 -5 30 l4 1 l17 -22 ZM192 156 q-9 -7 -9 -9.5 q0 -2.5 -6 -80.5 l-10 0 l5 81 l-122 -13 l0 9 l115 13 q5 0 14 12 l13 -12 ZM53 58 l107 10 q5 0 16 6 l8 -13 l-131 -13 l0 10 ZM159 106 l1 -3 l-68 -8 q-4 0 -12 -3 l-14 9 q70 8 72 8.5 q2 0.5 9 4.5 l12 -8 Z" /><glyph glyph-name="" unicode="&#x52a8;" d="M122 172 l-44 -5 q-6 0 -14 -5 l-14 10 q48 6 50 6.5 q2 0.5 9 4.5 l12 -8 l1 -3 ZM130 122 l-81 -11 q-4 0 -12 -4 l-13 10 q82 11 84 12 q2 1 9 4 l13 -11 ZM88 100 q-5 -2 -13 -15.5 q-8 -13.5 -26 -40.5 l64 14 l1 -8 q-68 -16 -74 -23 l-11 12 q8 3 18.5 19.5 q10.5 16.5 18 32.5 q7.5 16 8.5 28 l14 -19 ZM180 10 q8 12 14 38.5 q6 26.5 11 74.5 l-55 -5 q-6 0 -14 -3 l-16 9 l78 7 q4 0 16 12 l13 -12 q-11 -7 -11.5 -10 q-0.5 -3 -3 -28 q-2.5 -25 -10 -56 q-7.5 -31 -21.5 -49 l-29 40 l2 3 l26 -21 ZM97 84 q24 -30 25 -31.5 q1 -1.5 -5 -16.5 l-3 0 q-6 21 -21 46 l4 2 ZM82 -30 l-4 3 q44 46 64 89.5 q20 43.5 24 88.5 q4 45 2 67 l4 0 l14 -19 q-5 -5 -5 -8.5 q0 -3.5 -4.5 -46 q-4.5 -42.5 -24.5 -86.5 q-20 -44 -70 -88 Z" /><glyph glyph-name="" unicode="&#x6597;" d="M113 143 q-14 19 -36 37 l3 3 q38 -19 38 -21 q0 -2 -1 -19 l-4 0 ZM112 92 l-3 0 q-19 19 -48 38 l3 2 q48 -20 48 -22 q0 -2 0 -18 ZM210 89 l13 -8 l1 -4 l-173 -21 q-6 0 -13 -4 l-14 11 l176 20 q5 4 10 6 ZM138 -9 q4 7 5 13 q1 6 1 94.5 q0 88.5 -0.5 93 q-0.5 4.5 -5.5 18.5 l2 2 l20 -18 q-3 -5 -4 -8 q-1 -3 -1 -95.5 q0 -92.5 -1 -120.5 l-3 0 l-13 21 Z" /><glyph glyph-name="" unicode="&#x90fd;" d="M97 62 l9 -7 l0 -4 l-45 -5 l0 8 q27 3 28.5 3.5 q1.5 0.5 7.5 4.5 ZM61 18 q29 2 31 2.5 q2 0.5 5 4.5 l17 -11 l-53 -5 l0 9 ZM50 98 l3 2 l14 -16 q1 -67 -1 -93 l-4 0 l-9 21 q2 4 3 6 q1 2 0.5 29 q-0.5 27 -1 31 q-0.5 4 -5.5 20 ZM156 -30 l-9 26 q4 5 5 11 q0 156 -1 162 q-1 6 -5 22 l3 3 l14 -24 l0 -175 l-3 -25 l-4 0 ZM197 39.5 q2 -1.5 5.5 5 q3.5 6.5 5 14 q1.5 7.5 -1 21 q-2.5 13.5 -20.5 36.5 l14 49 l-43 -4 l0 9 l38 4 q5 1 13 10 l11 -11 q-7 -6 -8 -9 q-1 -3 -17 -47 q24 -27 25.5 -39.5 q1.5 -12.5 -1 -27 q-2.5 -14.5 -15.5 -30.5 l-3 0 q-11 14 -27 32 l2 3 q20 -14 22 -15.5 ZM135.5 125.5 q2.5 1.5 6.5 4.5 l15 -11 l-118 -11 q-5 0 -13 -3 l-13 10 q120 9 122.5 10.5 ZM120 154 l-58 -6 q-4 0 -12 -3 l-13 10 q59 5 61 5.5 q2 0.5 8 4.5 l14 -8 l0 -3 ZM88.5 185 q-0.5 -4 -0.5 -69 l-11 0 l0 72 q-1 14 -5 24 l4 2 l17 -20 q-4 -5 -4.5 -9 ZM83 113.5 q17 18.5 32 42.5 q15 24 15 38 l4 -1 l10 -18 q-8 -5 -9 -7.5 q-1 -2.5 -13 -21 q-12 -18.5 -30 -37.5 q-18 -19 -82 -67 l-4 4 q60 49 77 67.5 ZM106 15 q5 5 5.5 6.5 q0.5 1.5 2.5 60.5 l-53 -6 l0 8 l47 5 q4 1 13 11 l13 -12 q-9 -6 -8.5 -9 q0.5 -3 -1 -32 q-1.5 -29 -6.5 -53 l-4 0 l-8 21 Z" /><glyph glyph-name="" unicode="&#x65ad;" d="M108 22 q2 1 7 3 l13 -10 l-82 -9 q-6 1 -14 -7 l-9 11 q4 3 6 5.5 q2 2.5 2 70 q0 67.5 0 72 q0 4.5 -4 22.5 l4 0 l15 -18 q-3 -7 -3.5 -10.5 q-0.5 -3.5 -0.5 -136.5 q64 6 66 7 ZM183 -1.5 q1 2.5 1 115.5 l11 0 l0 -116 l-2 -28 l-3 0 l-10 21 q2 5 3 7.5 ZM100 195 q-4 -6 -4.5 -10.5 q-0.5 -4.5 -0.5 -138.5 l-2 -26 l-3 0 l-10 22 q3 6 4 9 q1 3 1 67 q0 64 -0.5 73 q-0.5 9 -4.5 24 l4 0 l16 -20 ZM137 54.5 q9 32.5 9 72.5 q0 40 -5 61 l5 -2 l11 -22 q1 -78 -11 -113 q-12 -35 -42 -81 l-6 2 q30 50 39 82.5 ZM196.5 171.5 q-15.5 -7.5 -44.5 -15.5 l-3 7 q27 8 40 16.5 q13 8.5 19 16.5 l3 0 l7 -17 q-6 0 -21.5 -7.5 ZM102 132 q10 22 14 34 q4 12 4 22 l5 -1 l8 -17 q-5 -3 -9 -11 q-4 -8 -17 -29 l-5 2 ZM90 114 q-10 -30 -18 -43 q-8 -13 -30 -35 l-2 3 q18 26 24.5 38.5 q6.5 12.5 13.5 35.5 l12 1 ZM66 107 q-5 1 -13 -4 l-13 10 q72 8 74 9 q2 1 8 4 l13 -7 l1 -3 l-70 -9 ZM222 127 l12 -8 l0 -3 l-85 -9 l0 9 l61 6 q3 1 12 5 ZM93 103 q33 -18 34 -20.5 q1 -2.5 1 -16.5 l-3 0 q-13 18 -35 34 l3 3 ZM56 178 q21 -26 21 -29.5 q0 -3.5 -8 -13.5 l-3 0 q-2 21 -13 40 l3 3 Z" /><glyph glyph-name="" unicode="&#x5151;" d="M106 151 l-4 0 q-6 26 -25 53 l3 3 q33 -37 33.5 -40.5 q0.5 -3.5 -7.5 -15.5 ZM161 182 q-7 -15 -23 -42 l-8 0 q17 32 21.5 49.5 q4.5 17.5 5.5 28.5 l4 0 l12 -19 q-5 -2 -12 -17 ZM69 83 q3 5 3.5 7.5 q0.5 2.5 0 23.5 q-0.5 21 -0.5 23 q0 2 -6 19 l4 0 l13 -18 q1 -52 -1 -75 l-4 0 l-9 20 ZM173 92 l-10 0 l5 45 l-91 -8 l3 9 l82 8 q6 0 15 10 l9 -11 q-8 -7 -8 -9.5 q0 -2.5 -5 -43.5 ZM149.5 64 q-0.5 -5 -0.5 -58 q0 -13 17 -13 l18 0 q21 1 30 4 l2 50 l4 0 l9 -60 q-24 -4 -45 -4 l-21 0 q-24 1 -25 19 l0 59 q0 13 -5 26 l3 0 l17 -13 q-3 -5 -3.5 -10 ZM86.5 10.5 q-17.5 -18.5 -73.5 -40.5 l-2 4 q50 24 66 42.5 q16 18.5 21.5 38 q5.5 19.5 2.5 32.5 l17 -21 q-5 -6 -9.5 -21.5 q-4.5 -15.5 -22 -34 ZM77 78 l3 9 l77 8 q5 0 16 5 l8 -12 l-104 -10 Z" /><glyph glyph-name="" unicode="&#x5bf9;" d="M78.5 52 q-18.5 -30 -59.5 -68 l-4 4 q36 40 54 68.5 q18 28.5 37 88.5 l-51 -8 q-5 0 -12 -4 l-14 10 l73 11 q4 0 12 10 l14 -10 q-9 -9 -10 -10.5 q-1 -1.5 -11 -31.5 q-10 -30 -28.5 -60 ZM116 18 l-4 -1 q-24 51 -62 99 l3 3 q37 -40 51.5 -58.5 q14.5 -18.5 15 -21 q0.5 -2.5 -3.5 -21.5 ZM130 100 l4 2 q26 -29 26 -31.5 q0 -2.5 -6 -12.5 l-4 0 q-3 13 -20 42 ZM242 130 l0 -3 l-101 -11 q-3 0 -11 -3 l-13 10 q101 10 103 11.5 q2 1.5 9 4.5 l13 -9 ZM197.5 184 q-0.5 -3 -0.5 -188 q-2 -14 -3 -22 q-1 -8 -5 -7 l-43 43 l3 2 l35 -20 q2 4 2 15 l0 176 q0 13 -5 29 l3 3 l18 -24 q-4 -4 -4.5 -7 Z" /><glyph glyph-name="" unicode="&#x591a;" d="M114 83 q17 22 22 33 l3 -1 l7 -18 q-7 -3 -26 -24 q-19 -21 -75 -54 l-3 4 q55 38 72 60 ZM26 -32 l-3 5 q78 29 110 54 q32 25 54 54 l-46 -8 q-5 0 -11 -5 l-10 11 l64 11 q5 0 17 9 l12 -9 q-8 -6 -9.5 -7.5 q-1.5 -1.5 -15.5 -18.5 q-14 -17 -46.5 -43.5 q-32.5 -26.5 -115.5 -52.5 ZM109 63 q30 -15 30 -18.5 q0 -3.5 -3 -13.5 l-3 0 q-8 16 -27 29 l3 3 ZM93 154 l3 2 q24 -13 24 -16 q0 -3 -3 -13 l-3 0 q-7 15 -21 27 ZM167 166 l-40 -5 q-5 0 -10 -4 l-11 10 l59 8 q5 0 17 10 l11 -13 q-11 -5 -12.5 -7 q-1.5 -2 -7 -10 q-5.5 -8 -31 -32 q-25.5 -24 -100.5 -54 l-1 5 q63 30 86.5 49.5 q23.5 19.5 39.5 42.5 ZM107.5 163.5 q-17.5 -17.5 -57.5 -41.5 l-3 4 q37 26 50.5 41.5 q13.5 15.5 22 27.5 q8.5 12 10.5 23 l4 0 l10 -20 q-8 -2 -13.5 -9.5 q-5.5 -7.5 -23 -25 Z" /><glyph glyph-name="" unicode="&#x6069;" d="M177 -16 l-7 55 l3 0 l24 -68 q-53 0 -85 16 q-32 16 -48 63 l5 0 q22 -40 46.5 -52.5 q24.5 -12.5 61.5 -13.5 ZM32 -9 l-7 22 q10 13 18 45 l5 0 q0 -30 -3 -41.5 q-3 -11.5 -9 -25.5 l-4 0 ZM157 100 q-16 16 -42 29 l2 3 q40 -12 40.5 -14 q0.5 -2 2.5 -18 l-3 0 ZM112 63 l2 3 q32 -18 32.5 -20.5 q0.5 -2.5 -2.5 -17.5 l-3 0 q-12 18 -29 35 ZM222.5 44.5 q10.5 -6.5 11.5 -8.5 q1 -2 -2 -18 l-3 0 q-19 21 -48 45 l3 3 q28 -15 38.5 -21.5 ZM120 131.5 q-6 -17.5 -32 -41.5 l-4 3 q24 28 27.5 43 q3.5 15 4.5 26.5 q1 11.5 -2 24.5 l4 -1 l16 -14 q-6 -6 -7 -14.5 q-1 -8.5 -7 -26 ZM58.5 133 q-1.5 43 -2 48 q-0.5 5 -6.5 21 l5 0 l12 -14 l4 -97 l-1 -31 l-4 0 l-10 19 q4 8 4 9.5 q0 1.5 -1.5 44.5 ZM61 180 l0 8 l111 8 q6 0 15 10 l11 -11 q-8 -7 -8 -10 q0 -3 -4 -98 l-10 -3 l3 104 l-118 -8 ZM66 146 q80 5 82 5.5 q2 0.5 9 3.5 l12 -7 l1 -4 l-77 -5 q-5 0 -13 -4 l-14 11 ZM64 73 l0 9 l105 6 q4 0 17 6 l6 -14 l-128 -7 Z" /><glyph glyph-name="" unicode="&#x653e;" d="M202 14.5 q14 -16.5 38 -18.5 l0 -4 l-38 -4 l-63 112 l13 3 q0 -11 1 -13 q1 -2 18 -30.5 q17 -28.5 31 -45 ZM52 56 q10 26 14.5 50 q4.5 24 3.5 37 l18 -13 q-5 -6 -5.5 -8.5 q-0.5 -2.5 -4.5 -21 q-4 -18.5 -15 -47 q-11 -28.5 -49 -69.5 l-3 3 q31 43 41 69 ZM154.5 131.5 q-8.5 -29.5 -27.5 -61.5 l-4 2 q21 56 26 82.5 q5 26.5 6 36.5 q1 10 -1 25 l3 1 l17 -21 q-5 -3 -5 -5.5 q0 -2.5 -3 -16 q-3 -13.5 -11.5 -43 ZM167 37.5 q-16 -26.5 -66 -58.5 l-4 3 q47 36 62.5 63 q15.5 27 20 54.5 q4.5 27.5 4.5 38.5 l16 -16 q-5 -6 -5.5 -9 q-0.5 -3 -6 -26 q-5.5 -23 -21.5 -49.5 ZM229 144 l0 -4 l-80 -10 l4 9 l50 7 q4 1 12 6 l14 -8 ZM18 140 q94 11 96 11.5 q2 0.5 8 4.5 l13 -7 l1 -4 l-93 -11 q-3 0 -11 -4 l-14 10 ZM72 100 l28 4 q4 0 12 10 l11 -12 q-9 -6 -9 -9.5 q0 -3.5 -2.5 -22 q-2.5 -18.5 -7.5 -38 q-5 -19.5 -15 -36.5 l-4 0 l-24 32 l3 3 l22 -16 q5 9 8.5 23.5 q3.5 14.5 8.5 56.5 l-34 -4 l3 9 ZM69 210 l3 2 q15 -18 19.5 -25.5 q4.5 -7.5 4 -11 q-0.5 -3.5 -7.5 -13.5 l-4 0 q-3 18 -15 48 Z" /><glyph glyph-name="" unicode="&#x8d39;" d="M56.5 131.5 q4.5 14.5 4.5 24.5 l4 0 l9 -13 q-5 -5 -13 -29 l138 15 q6 1 16 10 l11 -10 q-8 -7 -8.5 -8.5 q-0.5 -1.5 -2.5 -15 q-2 -13.5 -11 -31.5 l-26 21 l3 3 l19 -8 q4 10 8 32 q-137 -16 -141.5 -16.5 q-4.5 -0.5 -10.5 -5.5 l-10 12 q3 1 4.5 3 q1.5 2 6 16.5 ZM202 151 l-136 -16 l0 9 l115 13 q5 0 14 5 l7 -11 ZM66 166 l-8 -3 l-13 9 l138 14 q6 1 14 9 l9 -10 q-9 -6 -9.5 -8.5 q-0.5 -2.5 -1.5 -22.5 l-11 -3 l3 27 l-121 -12 ZM73 31 q4 6 4.5 8 q0.5 2 0.5 13.5 q0 11.5 -0.5 13.5 q-0.5 2 -1.5 15 l12 -2 q0 -40 -2 -67 l-3 0 l-10 19 ZM185 85 q-9 -8 -9.5 -10 q-0.5 -2 -0.5 -20 q0 -18 -4 -37 l-3 0 l-7 17 q4 9 4 11 q0 2 1 32 l-84 -8 l0 9 l78 7 q5 1 15 9 l10 -10 ZM103 9.5 q13 17.5 15.5 30 q2.5 12.5 2.5 26.5 l2 2 l16 -19 q-7 -4 -11 -17 q-4 -13 -17 -29 q-13 -16 -69 -36 l-2 5 q50 20 63 37.5 ZM138 15 l1 3 q58 -26 58 -28.5 q0 -2.5 0 -17.5 l-3 0 q-24 22 -56 43 ZM156 200 q-2 -4 -3.5 -7.5 q-1.5 -3.5 -0.5 -84.5 l-2 -24 l-3 0 l-11 22 q4 7 4.5 11 q0.5 4 0.5 40 q0 36 -0.5 39.5 q-0.5 3.5 -4.5 21.5 l3 0 l17 -18 ZM118 204 q-4 -5 -4 -8 q0 -3 0 -34.5 q0 -31.5 -12 -57.5 q-12 -26 -73 -61 l-2 5 q57 39 66.5 64.5 q9.5 25.5 10 57.5 q0.5 32 -3.5 47 l3 1 l15 -14 Z" /><glyph glyph-name="" unicode="&#x5206;" d="M106 167 q-8 -3 -15 -15 q-7 -12 -23 -31.5 q-16 -19.5 -52 -52.5 l-4 4 q30 31 44.5 51 q14.5 20 24 36 q9.5 16 10.5 31 l3 1 l12 -24 ZM73 26.5 q16 22.5 27 64.5 l13 1 q-12 -47 -31.5 -71.5 q-19.5 -24.5 -65.5 -48.5 l-3 3 q44 29 60 51.5 ZM246 91 l0 -4 l-46 -3 q-78 117 -84 124 l20 -1 q-5 -8 -3.5 -11 q1.5 -3 20.5 -28 q19 -25 39.5 -48.5 q20.5 -23.5 53.5 -28.5 ZM151 26 q6 21 12 68 l-75 -10 q-5 0 -14 -4 l-13 10 l96 13 q5 0 13 10 l13 -12 q-9 -6 -9 -9 q0 -3 -2.5 -24 q-2.5 -21 -8.5 -46.5 q-6 -25.5 -21 -49.5 l-3 0 q-13 18 -42 38 l2 3 q34 -17 37.5 -17.5 q3.5 -0.5 6 4.5 q2.5 5 8.5 26 Z" /><glyph glyph-name="" unicode="&#x594b;" d="M32 154 q162 16 164.5 17 q2.5 1 8.5 4 l12 -8 l1 -3 l-160 -16 q-5 0 -13 -4 l-13 10 ZM161 46 l1 -3 l-57 -6 q-4 0 -12 -3 l-11 9 q56 5 58.5 6 q2.5 1 8.5 4 l12 -7 ZM85 -1 l0 -24 l-4 0 l-11 22 q3 5 3 8 q0 3 -2 32 q-2 29 -2 31.5 q0 2.5 -5 21.5 l2 0 l14 -6 l5 -85 ZM121 215 l4 -1 l13 -23 q-5 -3 -6.5 -6.5 q-1.5 -3.5 -12 -24.5 q-10.5 -21 -33.5 -47 q-23 -26 -73 -61 l-3 5 q43 35 65 60 q22 25 34 52.5 q12 27.5 12 45.5 ZM204 81 q-71 74 -79 79 l12 1 q42 -40 60.5 -54 q18.5 -14 49.5 -18 l0 -4 l-43 -4 ZM80 3 q72 7 73.5 7.5 q1.5 0.5 8.5 4.5 l19 -12 l-101 -10 l0 10 ZM74 84 l98 10 q6 0 14 9 l11 -8 q-8 -8 -8 -10.5 q0 -2.5 -2 -39.5 q-2 -37 -5 -62 l-3 0 l-10 20 q6 7 6 9.5 q0 2.5 3 72.5 l-106 -11 l2 10 ZM121 2 l0 82 l11 0 l0 -82 l-11 0 Z" /><glyph glyph-name="" unicode="&#x4efd;" d="M70.5 182.5 q7.5 16.5 9.5 32.5 l4 0 l12 -24 q-9 -4 -15 -17 q-6 -13 -20.5 -31 q-14.5 -18 -50.5 -50 l-3 4 q33 34 44.5 51.5 q11.5 17.5 19 34 ZM52 61 q0 49 0 53 q0 4 -4 24 l2 0 l16 -17 q-2 -7 -2.5 -10.5 q-0.5 -3.5 -0.5 -100.5 l-1 -35 l-4 0 l-10 24 q3 5 3.5 9 q0.5 4 0.5 53 ZM101 127.5 q13 20.5 19.5 34 q6.5 13.5 7.5 29.5 l4 0 l10 -23 q-6 -4 -13 -16 q-7 -12 -20 -31.5 q-13 -19.5 -45 -45.5 l-2 5 q26 27 39 47.5 ZM205 103 q-53 97 -60 104 l18 0 q-3 -7 -2 -9 q1 -2 13.5 -23 q12.5 -21 29 -42 q16.5 -21 39.5 -24 l0 -3 l-38 -3 ZM164 4 q6 13 9.5 33.5 q3.5 20.5 5.5 62.5 l-70 -8 q-5 0 -8 -3 l-13 9 l85 10 q5 0 15 10 l11 -11 q-10 -7 -10 -10 q0 -3 -1 -21 q-1 -18 -4.5 -41.5 q-3.5 -23.5 -14.5 -51.5 l-4 0 l-37 37 l2 3 l34 -19 ZM122.5 29 q-13.5 -27 -50.5 -57 l-4 4 q33 33 45 60.5 q12 27.5 15 63.5 l13 0 q-5 -44 -18.5 -71 Z" /><glyph glyph-name="" unicode="&#x5426;" d="M221 82 l-4 -1 q-31 30 -71 54 l3 3 q73 -36 73 -38 q0 -2 -1 -18 ZM87 -17 l-3 0 l-9 17 q3 6 3 9 q0 3 0 25.5 q0 22.5 -0.5 26 q-0.5 3.5 -5.5 21.5 l4 0 l14 -19 q1 -59 -3 -80 ZM120 143 l16 -14 q-4 -5 -5 -8.5 q-1 -3.5 -1 -18.5 q0 -15 -2 -36 l-3 0 l-11 18 q4 5 4.5 7 q0.5 2 0.5 17.5 q0 15.5 0 18.5 q0 3 -3 16 l4 0 ZM108.5 126.5 q-19.5 -17.5 -87.5 -49.5 l-1 5 q58 33 78.5 51 q20.5 18 29.5 31.5 q9 13.5 12 23.5 l14 -18 q-8 -3 -17 -14.5 q-9 -11.5 -28.5 -29 ZM37 183 q155 11 156.5 11.5 q1.5 0.5 8.5 4.5 l14 -7 l0 -5 l-152 -11 q-6 0 -14 -3 l-13 10 ZM184 7 l-102 -8 l3 10 l76 6 q4 -1 15 5 l8 -9 l0 -4 ZM82 54 l0 9 l82 8 q4 0 12 11 l10 -11 q-8 -8 -7.5 -10 q0.5 -2 -2.5 -51 l-11 0 l2 52 l-85 -8 Z" /><glyph glyph-name="" unicode="&#x6276;" d="M116 142 l1 -3 l-71 -8 q-4 0 -12 -4 l-13 10 q72 8 74.5 9 q2.5 1 8.5 4 l12 -8 ZM117 132 q77 8 79 8.5 q2 0.5 9 5.5 l12 -7 l1 -4 l-76 -9 q-4 1 -12 -3 l-13 9 ZM101 84 q107 11 108.5 12 q1.5 1 8.5 4 l15 -8 l-1 -3 l-106 -11 q-4 0 -12 -3 l-13 9 ZM162 87 q24 -52 40 -76.5 q16 -24.5 42 -26.5 l0 -4 l-42 -3 l-48 109 l8 1 ZM26 54 l-10 14 l98 43 l2 -5 q-81 -44 -90 -52 ZM66 -2 q2 4 2 14 l0 176 q0 14 -5 24 l2 3 l19 -21 q-3 -5 -4 -9 q-1 -4 -1 -183 q-1 -15 -8 -30 l-31 38 l2 2 l24 -14 ZM154 57.5 q-14 -43.5 -68 -89.5 l-4 4 q51 52 63 93 q12 41 12 89 q0 48 -5 61 l4 0 l18 -18 q-4 -5 -4.5 -9 q-0.5 -4 -1 -45.5 q-0.5 -41.5 -14.5 -85 Z" /><glyph glyph-name="" unicode="&#x798f;" d="M59 -12 q3 8 4 10 q1 2 1 100 l11 10 q0 -111 -1 -138 l-4 0 l-11 18 ZM94 66 q-6 12 -22 24 l2 2 q26 -9 27 -13.5 q1 -4.5 -3 -12.5 l-4 0 ZM21 135 l58 8 q6 0 16 11 l9 -13 q-8 -6 -14 -16.5 q-6 -10.5 -24 -33.5 q-18 -23 -48 -45 l-4 4 q28 25 43 44.5 q15 19.5 25 39.5 l-37 -5 q-4 0 -12 -4 l-12 10 ZM78 164 q-9 22 -28 40 l3 3 q33 -24 34 -26 q1 -2 -5 -17 l-4 0 ZM226 189 l-93 -9 q-5 0 -13 -4 l-14 10 q96 10 97.5 10.5 q1.5 0.5 8.5 4.5 l14 -8 l0 -4 ZM126 116 q4 6 3.5 7.5 q-0.5 1.5 -1 11 q-0.5 9.5 -0.5 12.5 q0 3 -4 17 l2 2 l12 -12 l1 -40 l-1 -16 l-3 0 l-9 18 ZM130 154 l52 7 q7 1 17 9 l7 -10 q-6 -6 -6 -9 q0 -3 -3 -27 l-10 -2 l3 31 l-60 -8 l0 9 ZM136 120 q53 4 61 10 l5 -12 l-69 -8 l3 10 ZM211 -17 l-3 0 l-8 24 q4 8 5 10 q1 2 4 66 l-95 -8 l0 9 l88 8 q6 0 15 10 l12 -11 q-9 -7 -9 -10.5 q0 -3.5 -1.5 -38.5 q-1.5 -35 -7.5 -59 ZM122 84 q2 -95 0 -112 l-2 0 l-11 19 q3 8 3.5 11.5 q0.5 3.5 -0.5 38 q-1 34.5 -0.5 39 q0.5 4.5 -5.5 23.5 l5 0 l11 -19 ZM168 84 l0 -77 l-11 0 l0 77 l11 0 ZM120 47 q56 5 58 5.5 q2 0.5 8 5.5 l13 -10 l1 -3 l-59 -5 q-3 0 -11 -3 l-10 10 ZM117 7 q67 5 69.5 6 q2.5 1 5.5 5 l18 -13 l-93 -8 l0 10 Z" /><glyph glyph-name="" unicode="&#x7236;" d="M30 107 q22 21 34.5 36 q12.5 15 21.5 29 q9 14 12 30 l3 0 l11 -22 q-7 -3 -15 -14.5 q-8 -11.5 -23.5 -28 q-15.5 -16.5 -40.5 -34.5 l-3 4 ZM118 43 q-26 -29 -100 -68 l-3 5 q68 40 93.5 70 q25.5 30 35.5 55 q10 25 13 41 l3 0 l11 -21 q-7 -3 -17 -28 q-10 -25 -36 -54 ZM91 130 q-1 -11 1 -13.5 q2 -2.5 29 -34.5 q27 -32 52.5 -58.5 q25.5 -26.5 59.5 -27.5 l1 -5 l-48 -5 l-110 139 l15 5 ZM141 196 l3 3 q41 -29 52 -38.5 q11 -9.5 11 -12 q0 -2.5 -2 -18.5 l-3 0 q-22 29 -61 66 Z" /><glyph glyph-name="" unicode="&#x611f;" d="M24 50 l-5 3 q15 25 20.5 43.5 q5.5 18.5 7 43 q1.5 24.5 -3.5 39.5 l4 1 l13 -18 q-2 -44 -9.5 -65 q-7.5 -21 -26.5 -47 ZM180.5 108 q-10.5 -21 -47.5 -54 l-3 4 q33 37 42.5 57.5 q9.5 20.5 11.5 35.5 l4 -1 l9 -20 q-6 -1 -16.5 -22 ZM165 -14 l-5 37 l4 0 l20 -51 q-47 3 -70.5 18 q-23.5 15 -39.5 54 l6 1 q21 -35 39.5 -46 q18.5 -11 45.5 -13 ZM53 162 q139 10 140 10.5 q1 0.5 10 5.5 l13 -9 l0 -4 l-163 -13 l0 10 ZM104 73 q3 1 13 5 l8 -11 l-55 -6 l0 9 l34 3 ZM130 130 l0 -3 l-52 -5 q-4 0 -12 -3 l-13 9 q56 5 57.5 6 q1.5 1 6.5 5 l13 -9 ZM74 100 q2 -26 -1 -48 l-3 1 l-8 15 q4 5 4 6 q0 1 -0.5 9.5 q-0.5 8.5 -1 10.5 q-0.5 2 -3.5 14 l4 1 l9 -9 ZM216 98 l5 -1 l8 -55 l-4 -1 q-54 24 -70.5 54.5 q-16.5 30.5 -21 61.5 q-4.5 31 -5 35 q-0.5 4 -6.5 18 l3 2 l19 -16 q-6 -5 1.5 -43 q7.5 -38 22.5 -59.5 q15 -21.5 46 -34.5 l2 39 ZM51 42 l5 0 q0 -25 -2 -34 q-2 -9 -12 -25 l-5 0 l-3 22 q13 8 17 37 ZM164 204 q20 -15 21 -17 q1 -2 -4 -17 l-3 0 q-7 17 -18 32 l4 2 ZM206 -1 q-14 23 -38 45 l2 3 q27 -18 34.5 -24 q7.5 -6 8.5 -7.5 q1 -1.5 -3 -16.5 l-4 0 ZM133 41.5 q5 -4.5 5.5 -7 q0.5 -2.5 -2.5 -16.5 l-4 0 q-6 17 -20 34 l4 3 q12 -9 17 -13.5 ZM69 100 l36 5 q4 1 13 9 l9 -10 q-7 -6 -7 -9 q0 -3 -2 -24 l-10 0 l2 26 l-41 -6 l0 9 Z" /><glyph glyph-name="" unicode="&#x521a;" d="M127 179 l-90 -10 l0 9 l82 9 q6 1 14 12 l13 -11 q-8 -10 -8 -12.5 q0 -2.5 0 -168.5 q-1 -18 -6 -27 l-3 0 l-36 40 l1 4 l31 -21 q2 3 2 12 l0 164 ZM26 12 q3 8 4 11 q1 3 1 76 q0 73 0 77 q0 4 -5 20 l5 0 l11 -18 l0 -160 l-3 -32 l-3 0 l-10 26 ZM162 115.5 q0 29.5 0 33.5 q0 4 -5 21 l3 2 l17 -21 q-4 -5 -4.5 -9.5 q-0.5 -4.5 -0.5 -33 q0 -28.5 -2 -56.5 l-4 0 l-9 19 q4 6 4.5 10.5 q0.5 4.5 0.5 34 ZM81.5 76.5 q-12.5 -21.5 -36.5 -48.5 l-3 5 q23 32 33.5 53 q10.5 21 16.5 39 q6 18 6 31 l5 0 l10 -22 q-7 -5 -13 -20.5 q-6 -15.5 -18.5 -37 ZM53 143 l5 2 q54 -72 53.5 -75 q-0.5 -3 -2.5 -20 l-3 0 q-22 48 -53 93 ZM202 184 q0 12 -5 28 l3 3 l17 -23 q-3 -8 -3.5 -11 q-0.5 -3 -0.5 -177 q-1 -20 -5 -29 l-4 1 l-36 39 l2 3 l31 -20 q1 6 1 17 l0 169 Z" /><glyph glyph-name="" unicode="&#x9ad8;" d="M42 38 q0 39 0 41.5 q0 2.5 -5 20.5 l5 0 l12 -18 q1 -88 -2 -112 l-3 0 l-11 21 q2 4 3 6 q1 2 1 41 ZM75 106 q4 5 3.5 8 q-0.5 3 -0.5 11.5 q0 8.5 -0.5 11.5 q-0.5 3 -5.5 17 l4 1 l12 -12 q1 -35 -1 -53 l-3 0 l-9 16 ZM95 55 q1 -37 1 -56 l-3 0 l-11 15 q4 7 3.5 8.5 q-0.5 1.5 -1 12 q-0.5 10.5 -1 14 q-0.5 3.5 -3.5 14.5 l2 3 l13 -11 ZM90 21 q56 5 67 9 l8 -10 l-75 -8 l0 9 ZM85 99 l-3 9 q78 7 83 10 l11 -10 l-91 -9 ZM201 25 q2 20 5 61 l-161 -13 l3 9 l151 13 q6 0 16 12 l11 -14 q-10 -6 -10 -9.5 q0 -3.5 -0.5 -21 q-0.5 -17.5 -4.5 -45.5 q-4 -28 -17 -50 l-34 32 l3 4 l28 -14 q8 16 10 36 ZM82 143 l70 7 q5 1 14 10 l11 -9 q-8 -8 -8 -11 q0 -3 -3 -26 l-11 0 l3 28 l-76 -8 l0 9 ZM90 55 l53 7 q6 1 16 10 l11 -9 q-8 -8 -8.5 -11 q-0.5 -3 -2.5 -29 l-11 0 l3 31 l-61 -8 l0 9 ZM123 175 q-5 14 -22 35 l3 3 q30 -19 30 -21 q0 -2 -6 -17 l-5 0 ZM229 176 l-183 -16 q-4 0 -12 -3 l-13 10 q184 16 186.5 16.5 q2.5 0.5 8.5 4.5 l13 -8 l0 -4 Z" /><glyph glyph-name="" unicode="&#x4e2a;" d="M90 130.5 q-23 -30.5 -74 -64.5 l-4 4 q45 35 67.5 66.5 q22.5 31.5 29.5 47.5 q7 16 8 30 l3 1 l14 -25 q-6 -2 -13.5 -15.5 q-7.5 -13.5 -30.5 -44 ZM118 61 q0 49 0 54.5 q0 5.5 -4 24.5 l4 0 l17 -21 q-4 -6 -5 -10 q-1 -4 -1 -54 q0 -50 -1 -85 l-4 0 l-10 29 q2 5 3 9 q1 4 1 53 ZM198 110 q17 -14 47 -19 l0 -4 l-43 -3 q-82 93 -87 93 l5 9 q61 -62 78 -76 Z" /><glyph glyph-name="" unicode="&#x66f4;" d="M242 -9 l-47 -10 l-145 77 l21 5 q0 -8 2.5 -9.5 q2.5 -1.5 40.5 -19.5 q38 -18 62.5 -28.5 q24.5 -10.5 64.5 -9.5 l1 -5 ZM124 186 l11 0 q3 -106 -17 -141.5 q-20 -35.5 -98 -72.5 l-3 5 q69 37 89.5 70 q20.5 33 17.5 139 ZM36 183 q158 13 161 14 q3 1 7 5 l13 -10 l1 -3 l-154 -13 q-6 0 -14 -3 l-14 10 ZM169 121 l1 -4 l-63 -6 q-4 0 -12 -3 l-13 9 q64 6 66.5 7 q2.5 1 7.5 4 l13 -7 ZM63 162 l5 0 l11 -14 q4 -74 3 -88 l-4 0 l-11 17 q3 5 3.5 10 q0.5 5 -1.5 28.5 q-2 23.5 -2 25.5 q0 2 -4 21 ZM173 158 q7 1 18 11 l11 -10 q-10 -8 -10.5 -12 q-0.5 -4 -6.5 -60 l-11 -3 l7 65 l-107 -11 l2 10 l97 10 ZM76 82 l96 8 q6 2 13 5 l11 -13 l-120 -10 l0 10 Z" /><glyph glyph-name="" unicode="&#x5de5;" d="M42 159 q136 13 138.5 13.5 q2.5 0.5 8.5 5.5 l12 -9 l1 -4 l-134 -13 q-4 0 -12 -3 l-14 10 ZM234 23 l-192 -16 q-5 0 -13 -3 l-13 11 l194 16 q4 1 11 5 l13 -9 l0 -4 ZM121 20 l0 119 q-1 12 -5 23 l3 2 l19 -18 q-5 -6 -5 -9 q0 -3 0 -117 l-12 0 Z" /><glyph glyph-name="" unicode="&#x516c;" d="M146 57 q43 -41 44.5 -44 q1.5 -3 -4.5 -22 l-5 0 q-13 31 -40 64 l5 2 ZM64 -10 l-11 16 q12 4 29 29 q17 25 26 46.5 q9 21.5 12 40.5 l3 0 l12 -24 q-6 -2 -16 -24 q-10 -22 -45 -68 l106 12 l1 -8 q-104 -15 -107 -16.5 q-3 -1.5 -10 -3.5 ZM66 101 q-15 -19 -53 -49 l-4 5 q34 30 48 51.5 q14 21.5 23.5 38.5 q9.5 17 9.5 31 l5 0 l10 -24 q-6 -1 -15 -17.5 q-9 -16.5 -24 -35.5 ZM200.5 101.5 q17.5 -20.5 47.5 -23.5 l0 -5 l-48 -2 l-73 131 l17 0 q-2 -10 -1 -12.5 q1 -2.5 20.5 -35 q19.5 -32.5 37 -53 Z" /><glyph glyph-name="" unicode="&#x5b64;" d="M64 -4 q6 20 7.5 35 q1.5 15 1 27.5 q-0.5 12.5 -2.5 25.5 q-2 13 -14 62 l5 2 q16 -40 19 -58.5 q3 -18.5 4 -34 q1 -15.5 -1 -34 q-2 -18.5 -14 -46.5 l-4 0 l-32 34 l3 4 l28 -17 ZM45 169 q-6 -2 -13 -6 l-14 9 l68 14 q4 0 12 10 l12 -13 q-9 -3 -41 -56 l-5 4 l25 46 l-44 -8 ZM21 65 l-11 11 l96 38 l3 -5 q-74 -35 -88 -44 ZM114 124 q0 40 -5 54 l3 0 l13 -14 q1 -82 -6.5 -113.5 q-7.5 -31.5 -31.5 -71.5 l-5 4 q20 39 26 70 q6 31 6 71 ZM194 207 l3 0 l11 -16 q-10 -2 -28.5 -12 q-18.5 -10 -59.5 -23 l0 6 q37 16 53 25.5 q16 9.5 21 19.5 ZM153 2 l-12 0 q4 7 4.5 11 q0.5 4 0.5 128 q0 12 -5 26 l3 3 l16 -21 q-3 -5 -3.5 -8.5 q-0.5 -3.5 0 -63.5 q0.5 -60 -3.5 -75 ZM184 18 q-32 -22 -35 -29 l-10 13 l42 21 l3 -5 ZM249 6 l0 -4 l-39 -2 l-40 181 l6 5 q31 -128 39.5 -151.5 q8.5 -23.5 33.5 -28.5 ZM180 3 q-3 20 -12 49 l3 3 q21 -38 20.5 -40.5 q-0.5 -2.5 -7.5 -12.5 l-4 1 Z" /><glyph glyph-name="" unicode="&#x9f13;" d="M109 68 l-10 0 l3 29 l-52 -6 l0 9 l44 5 q7 1 15 9 l10 -9 q-7 -7 -7.5 -10 q-0.5 -3 -2.5 -27 ZM44 58 q4 8 3.5 10.5 q-0.5 2.5 -1 14.5 q-0.5 12 -1 14 q-0.5 2 -5.5 17 l4 0 l12 -14 q2 -35 0 -53 l-4 0 l-8 11 ZM87.5 191.5 q-0.5 -3.5 -0.5 -59.5 l-11 0 l0 58 q-1 12 -5 22 l2 3 l19 -16 q-4 -4 -4.5 -7.5 ZM180 194 q-5 -6 -5 -11.5 q0 -5.5 0 -82.5 l-11 0 l0 82 q0 17 -5 30 l2 3 l19 -21 ZM249 -14 l0 -4 l-41 -3 l-73 100 l14 3 q0 -11 2 -13.5 q2 -2.5 19.5 -25 q17.5 -22.5 33 -37.5 q15.5 -15 45.5 -20 ZM80 -25 l-3 5 q56 29 77.5 50.5 q21.5 21.5 37.5 68.5 q-40 -4 -48 -8 l-14 9 l60 8 q4 0 12 8 l11 -8 q-9 -8 -10 -11.5 q-1 -3.5 -11 -28 q-10 -24.5 -32.5 -46 q-22.5 -21.5 -79.5 -47.5 ZM228 144 l1 -4 l-78 -7 q-5 -1 -13 -3 l-13 9 q80 8 82 9 q2 1 9 4 l12 -8 ZM136 166 l0 -4 l-83 -8 q-5 0 -13 -3 l-14 9 q86 8 88 9 q2 1 8 4 l14 -7 ZM115 136 l2 -4 l-50 -5 q-6 0 -14 -3 l-13 9 q55 5 57.5 5.5 q2.5 0.5 7.5 3.5 l10 -6 ZM53 57 l0 9 q48 5 56 8 l8 -9 l-64 -8 ZM83 15 q7 21 8.5 30.5 q1.5 9.5 -1.5 22.5 l19 -18 q-5 -2 -7.5 -8.5 q-2.5 -6.5 -10.5 -28.5 l-8 2 ZM62 12 q-3 14 -12 30 l3 2 q18 -15 18.5 -18 q0.5 -3 -5.5 -14 l-4 0 ZM26 -11 l-13 13 l112 24 l1 -5 q-85 -25 -100 -32 Z" /><glyph glyph-name="" unicode="&#x89c4;" d="M52 133 q-4 0 -12 -3 l-14 10 q62 6 64 6.5 q2 0.5 8 4.5 l13 -8 l1 -4 l-60 -6 ZM112 96 l-68 -7 q-4 -1 -12 -4 l-14 10 q70 8 71 8 q1 0 9 5 l13 -8 l1 -4 ZM24 -22 l-5 3 q34 57 41.5 92.5 q7.5 35.5 7.5 79 q0 43.5 -5 59.5 l4 1 l18 -17 q-5 -5 -5.5 -9.5 q-0.5 -4.5 -0.5 -46 q0 -41.5 -9.5 -78 q-9.5 -36.5 -45.5 -84.5 ZM72 76 q31 -21 31.5 -23.5 q0.5 -2.5 0.5 -18.5 l-4 -1 q-10 20 -31 39 l3 4 ZM171 137 q-5 -6 -5 -10.5 q0 -4.5 -3.5 -32.5 q-3.5 -28 -15.5 -54 q-12 -26 -67 -68 l-4 4 q54 47 64 73.5 q10 26.5 13 58.5 q3 32 -2 48 l4 0 l16 -19 ZM130 180 l0 -97 l-2 -25 l-3 0 l-10 19 q3 5 3.5 8.5 q0.5 3.5 0.5 45 q0 41.5 -0.5 45.5 q-0.5 4 -4.5 20 l4 0 l12 -16 ZM192 60 l-8 16 q4 11 4.5 16 q0.5 5 3.5 87 l-67 -8 l-3 9 l66 8 q4 0 11 9 l13 -10 q-9 -9 -8.5 -13 q0.5 -4 -2 -46.5 q-2.5 -42.5 -5.5 -67.5 l-4 0 ZM163 4 l0 48 q0 14 -3 27 l4 0 l15 -16 q-5 -5 -5 -10 q0 -5 0 -46 q0 -11 16 -11 l11 0 q17 0 22 2 l3 52 l5 0 l6 -62 q-19 -2 -37 -2 l-13 0 q-23 0 -24 18 Z" /><glyph glyph-name="" unicode="&#x8d35;" d="M133.5 191 q-0.5 -4 -1.5 -80 l-11 0 l0 78 q0 13 -5 26 l3 3 l18 -19 q-3 -4 -3.5 -8 ZM61 188 l5 0 l11 -13 q4 -38 1 -56 l-3 0 l-9 14 q3 6 3 8 q0 2 -1 14 q-1 12 -1.5 16.5 q-0.5 4.5 -5.5 16.5 ZM86 84 q2 -54 0 -72 l-4 0 l-10 16 q4 6 4 8 q0 2 -1 21.5 q-1 19.5 -1 22 q0 2.5 -5 18.5 l4 0 l13 -14 ZM168 185 q6 1 14 9 l12 -10 q-8 -9 -8 -11 q0 -2 -2 -27 l-10 0 l2 31 l-104 -11 l2 9 l94 10 ZM163.5 39 q0.5 4 2.5 43 l-86 -8 l0 10 l81 7 q4 1 14 9 l11 -9 q-9 -9 -9 -11.5 q0 -2.5 -1 -22.5 q-1 -20 -6 -42 l-3 0 l-8 13 q4 7 4.5 11 ZM237 116 l-195 -16 q-5 0 -13 -3 l-13 10 q197 16 199 16.5 q2 0.5 9 4.5 l13 -8 l0 -4 ZM74 140 q102 8 110 11 l8 -10 l-118 -10 l0 9 ZM104 4.5 q-15 -16.5 -67 -34.5 l-3 4 q48 20 61 36.5 q13 16.5 17.5 32 q4.5 15.5 1.5 31.5 l4 3 l15 -22 q-6 -5 -10 -19.5 q-4 -14.5 -19 -31 ZM131 21 q61 -26 61.5 -29 q0.5 -3 4.5 -20 l-4 -1 q-28 25 -65 47 l3 3 Z" /><glyph glyph-name="" unicode="&#x8fc7;" d="M73 76 q9 -14 10 -20.5 q1 -6.5 0 -14 q-1 -7.5 -16 -23.5 l-7 0 q12 18 13 24.5 q1 6.5 0.5 13 q-0.5 6.5 -8.5 20.5 l14 37 l-40 -10 q-5 -1 -11 -5 l-12 10 l58 13 q4 0 12 10 l11 -13 q-8 -5 -24 -42 ZM18 20 q44 6 80 -2.5 q36 -8.5 73 -19 q37 -10.5 77 -8.5 l1 -4 l-47 -13 q-72 29 -106.5 37.5 q-34.5 8.5 -69.5 -0.5 l-8 10 ZM141.5 81.5 q4.5 -6.5 4.5 -10 q0 -3.5 -8 -13.5 l-4 0 q-1 18 -12 40 l4 2 q11 -12 15.5 -18.5 ZM75.5 178 q8.5 -5 9 -8 q0.5 -3 -2.5 -19 l-4 -1 q-10 19 -33 38 l3 4 q19 -9 27.5 -14 ZM235 136 l-1 -4 l-109 -8 q-5 0 -13 -3 l-14 10 q112 8 114 9 q2 1 9 4 l14 -8 ZM180 183 q0 16 -5 29 l2 3 l19 -22 q-4 -6 -4.5 -10.5 q-0.5 -4.5 -0.5 -148.5 q-2 -17 -8 -27 l-37 37 l3 4 l28 -16 q3 8 3 18 l0 133 Z" /><glyph glyph-name="" unicode="&#x597d;" d="M13 124 l93 14 l-1 -10 l-68 -10 q-3 0 -11 -4 l-13 10 ZM55 68 q60 -24 62 -31.5 q2 -7.5 3 -18.5 l-3 -1 q-35 30 -72 49 q23 124 23.5 130 q0.5 6 -2.5 22 l5 0 l14 -21 q-5 -5 -5.5 -9 q-0.5 -4 -24.5 -120 ZM94 59 q-12 -28 -77 -75 l-4 4 q60 50 70 76 q10 26 14 47 q4 21 3 41 l4 0 l13 -14 q-5 -8 -8 -29.5 q-3 -21.5 -15 -49.5 ZM128 12 l2 4 l37 -20 q4 14 5.5 24.5 q1.5 10.5 1 30 q-0.5 19.5 -2.5 37.5 q-2 18 -20 56 l6 2 q21 -38 24.5 -57.5 q3.5 -19.5 4 -34 q0.5 -14.5 -1 -33.5 q-1.5 -19 -11.5 -49 l-45 40 ZM190 187 q7 1 18 11 l10 -13 q-11 -6 -50 -63 l-6 5 l34 51 l-55 -6 q-6 0 -14 -5 l-13 11 l76 9 ZM101 98 q120 10 122 11 q2 1 9 5 l13 -9 l0 -4 l-118 -11 q-5 0 -13 -3 l-13 11 Z" /><glyph glyph-name="" unicode="&#x53f7;" d="M132 -8 q24 21 33 74 q-63 -7 -66 -7 q-3 0 -12 -6 l-10 13 q5 3 7 4.5 q2 1.5 9 32.5 l13 0 l-11 -35 l66 7 q4 -1 15 9 l12 -12 q-10 -6 -10.5 -8.5 q-0.5 -2.5 -8 -31 q-7.5 -28.5 -35.5 -60.5 l-4 0 l-37 40 l4 3 l35 -23 ZM223 114 l1 -4 l-177 -16 q-5 0 -13 -3 l-13 10 q179 16 180.5 16.5 q1.5 0.5 8.5 5.5 l13 -9 ZM173 139 l-96 -8 l2 10 q81 6 86 8 l8 -10 ZM77 188 l74 8 q6 0 15 9 l12 -11 q-9 -8 -9 -11.5 q0 -3.5 -3 -39.5 l-11 0 l3 44 l-81 -8 l0 9 ZM84 116 l-4 0 l-10 19 q4 8 4 10.5 q0 2.5 -1 20.5 q-1 18 -1 20 q0 2 -6 18 l5 0 l13 -16 q2 -50 0 -72 Z" /><glyph glyph-name="" unicode="&#x548c;" d="M20 21 l-4 3 q37 41 47 57.5 q10 16.5 19 39.5 l7 -12 q-2 -9 -13 -28 q-11 -19 -56 -60 ZM78 -11 q4 6 4.5 9.5 q0.5 3.5 0.5 176.5 l11 6 q0 -187 -1 -211 l-4 0 l-11 19 ZM155 15 l-10 19 q5 9 4.5 11.5 q-0.5 2.5 -1.5 45.5 q-1 43 -2 47.5 q-1 4.5 -5 20.5 l4 0 l13 -24 q4 -96 1 -120 l-4 0 ZM121 130 q5 1 11 5 l12 -8 l1 -3 l-100 -13 q-4 0 -12 -3 l-13 10 l101 12 ZM210 50 l5 83 l-62 -8 l0 10 l57 7 q5 1 14 11 l10 -12 q-8 -6 -8 -9 q0 -3 -5 -82 l-11 0 ZM205 52 q7 1 15 6 l11 -13 l-77 -8 l0 10 l51 5 ZM126 185 q-9 0 -27 -10.5 q-18 -10.5 -66 -25.5 l-1 6 q44 18 60 30 q16 12 22 20 l3 -1 l9 -19 ZM127 63 q-14 24 -38 46 l3 2 q42 -30 42.5 -31.5 q0.5 -1.5 -2.5 -16.5 l-5 0 Z" /><glyph glyph-name="" unicode="&#x5f88;" d="M83.5 172 q-5.5 -5 -17 -15 q-11.5 -10 -44.5 -33 l-3 5 q31 25 42 36.5 q11 11.5 16.5 19 q5.5 7.5 10.5 19.5 l4 -1 l4 -25 q-7 -1 -12.5 -6 ZM64.5 115.5 q14.5 19.5 17.5 31.5 l3 1 l9 -23 q-8 0 -24 -19 q-16 -19 -54 -44 l-3 4 q37 30 51.5 49.5 ZM58 39.5 q0 38.5 0 43 q0 4.5 -2 20.5 l2 0 l17 -16 q-6 -5 -6 -10 q0 -5 0 -44.5 q0 -39.5 -1 -62.5 l-4 0 l-11 18 q4 6 4.5 9.5 q0.5 3.5 0.5 42 ZM112 -14 l0 185 q0 12 -5 25 l3 3 l13 -16 l0 -192 l-11 -5 ZM117 111 l53 5 q5 0 16 6 l11 -12 l-80 -8 l0 9 ZM169 49 l-4 6 q19 16 24 22.5 q5 6.5 11 20.5 l3 -2 l5 -22 q-7 -1 -14 -6.5 q-7 -5.5 -25 -18.5 ZM123 107 l8 1 q49 -69 65.5 -84.5 q16.5 -15.5 46.5 -20.5 l0 -4 l-46 -1 l-74 109 ZM119 -23 l-13 12 l46 42 l3 -4 q-33 -39 -36 -50 ZM117 174 l3 9 l56 7 q5 1 15 11 l11 -10 q-9 -8 -9 -11 q0 -3 -6 -69 l-11 0 l6 71 l-65 -8 ZM117 139 l0 9 q35 3 36.5 4 q1.5 1 6.5 2 l9 -6 l1 -4 l-53 -5 Z" /><glyph glyph-name="" unicode="&#x8bdd;" d="M40 191 q39 -24 39 -25.5 q0 -1.5 -5 -14.5 l-4 -1 q-12 19 -33 38 l3 3 ZM166.5 190 q17.5 9 22.5 14 l3 0 l10 -19 q-11 -2 -33.5 -8.5 q-22.5 -6.5 -75.5 -14.5 l0 5 q56 14 73.5 23 ZM164 164 q-4 -5 -4 -8.5 q0 -3.5 -5 -89.5 l-10 0 l3 87 q1 8 -4 25 l5 0 l15 -14 ZM104 79 l3 2 l15 -15 q0 -66 -2 -91 l-4 0 l-10 19 q4 9 4 11 q0 2 0 26.5 q0 24.5 -1 29.5 q-1 5 -5 18 ZM117 5 q64 5 75 10 l10 -12 l-88 -8 l3 10 ZM98 52 l3 -4 q-37 -44 -38 -51 l-14 11 l49 44 ZM10 111 l41 7 q5 1 13 12 l12 -11 q-8 -8 -8 -10.5 q0 -2.5 -2 -98.5 l-11 -3 l2 102 l-21 -3 q-4 -1 -12 -4 l-14 9 ZM114 56 l3 10 l64 7 q5 1 14 11 l11 -11 q-8 -7 -8 -10.5 q0 -3.5 -5 -55.5 l-11 0 l4 57 l-72 -8 ZM85 116 q117 11 119 12 q2 1 9 4 l13 -10 l0 -3 l-116 -10 q-4 0 -12 -4 l-13 11 Z" /><glyph glyph-name="" unicode="&#x6b22;" d="M48 119 l4 3 q31 -38 41 -54 q10 -16 10 -19.5 q0 -3.5 -4 -19.5 l-5 0 q-11 36 -46 90 ZM91 162 q7 2 13 13 l16 -11 q-9 -8 -10 -10.5 q-1 -2.5 -7.5 -31.5 q-6.5 -29 -20 -58.5 q-13.5 -29.5 -60.5 -74.5 l-4 4 q41 48 54 74.5 q13 26.5 25 86.5 l-47 -8 q-6 0 -13 -5 l-13 10 l67 11 ZM146 184.5 q3 15.5 3 29.5 l4 0 l13 -26 q-6 -3 -7 -6 q-1 -3 -3 -10.5 q-2 -7.5 -8.5 -30 q-6.5 -22.5 -30.5 -60.5 l-5 3 q21 46 26 65.5 q5 19.5 8 35 ZM77 -33 l-4 4 q41 33 56 57.5 q15 24.5 20 50.5 q5 26 3 40 l4 -1 l14 -15 q-4 -4 -5 -8.5 q-1 -4.5 -5.5 -27 q-4.5 -22.5 -21.5 -46 q-17 -23.5 -61 -54.5 ZM245 -21 l0 -4 l-46 -1 l-47 98 l2 12 q34 -63 46 -81 q12 -18 45 -24 ZM202 136 l-67 -9 l6 10 l55 8 q6 1 14 11 l11 -13 q-7 -5 -24 -46 l-5 2 l10 37 Z" /><glyph glyph-name="" unicode="&#x8fd8;" d="M72 176.5 q8 -6.5 8 -8.5 q0 -2 -6 -17 l-4 0 q-8 18 -30 40 l3 4 q21 -12 29 -18.5 ZM168 119 l3 4 q26 -16 37 -24 q11 -8 11 -10.5 q0 -2.5 -1 -20.5 l-3 -2 q-15 24 -47 53 ZM88 66 l-3 5 q45 45 58.5 72 q13.5 27 13.5 40 l16 -19 q-8 -5 -21 -30 q-13 -25 -64 -68 ZM57 76 l13 35 l-34 -6 q-5 0 -13 -4 l-10 10 l51 8 q4 0 15 10 l10 -13 q-9 -5 -25 -40 q10 -13 11.5 -20 q1.5 -7 0 -13.5 q-1.5 -6.5 -14.5 -19.5 l-6 3 q9 13 10 18.5 q1 5.5 0 13.5 q-1 8 -8 18 ZM162 7.5 q39 -10.5 87 -8.5 l1 -4 l-54 -14 q-74 29 -109 37.5 q-35 8.5 -66 -0.5 l-8 10 q43 6 76.5 -2 q33.5 -8 72.5 -18.5 ZM145 85.5 q0 26.5 0 31.5 q0 5 -4 18 l3 3 l16 -19 q-4 -5 -4 -9.5 q0 -4.5 0.5 -31.5 q0.5 -27 -1.5 -55 l-4 0 l-11 24 q4 5 4.5 8.5 q0.5 3.5 0.5 30 ZM118 173 q-4 0 -12 -3 l-13 10 q104 8 105.5 9 q1.5 1 9.5 5 l12 -9 l1 -4 l-103 -8 Z" /><glyph glyph-name="" unicode="&#x6362;" d="M21 140 q53 6 55.5 7 q2.5 1 8.5 4 l13 -6 l0 -5 l-51 -6 q-5 0 -13 -4 l-13 10 ZM80 60 q133 11 135 12 q2 1 9 4 l12 -8 l1 -3 l-132 -12 q-4 0 -12 -3 l-13 10 ZM114 60 l-3 51 q0 5 -5 16 l3 3 l13 -11 l2 -59 l-10 0 ZM127.5 156.5 q-10.5 -13.5 -31.5 -34.5 l-4 4 q19 21 27.5 35 q8.5 14 15.5 27.5 q7 13.5 9 26.5 l4 -1 l9 -18 q-5 -2 -12 -14 q-7 -12 -17.5 -25.5 ZM117 119 l72 7 q5 1 14 11 l12 -11 q-10 -7 -10 -10.5 q0 -3.5 -4 -50.5 l-11 1 l5 52 l-78 -8 l0 9 ZM80 -28 l-4 4 q45 36 56.5 56.5 q11.5 20.5 16 45.5 q4.5 25 2.5 41 l17 -16 q-5 -5 -5 -8.5 q0 -3.5 -4.5 -24.5 q-4.5 -21 -18 -43.5 q-13.5 -22.5 -60.5 -54.5 ZM240 -16 l0 -4 l-38 -3 l-51 86 l9 0 q31 -50 44 -62.5 q13 -12.5 36 -16.5 ZM26 58 l-16 8 l83 40 l3 -5 q-59 -35 -70 -43 ZM58 0 q2 8 2 18 l0 161 q0 23 -5 33 l3 3 l19 -21 q-5 -5 -5.5 -11 q-0.5 -6 -0.5 -181 q-1 -17 -5 -27 l-40 35 l3 2 l29 -12 ZM141 119 l30 44 l-46 -5 l3 9 l39 5 q6 0 17 11 l10 -13 q-10 -3 -45 -52 l-8 1 Z" /><glyph glyph-name="" unicode="&#x56de;" d="M49 170 q8 -156 6 -190 l-4 0 l-11 22 q4 10 4 12 q0 2 -3 74.5 q-3 72.5 -3.5 77 q-0.5 4.5 -5.5 20.5 l5 0 l12 -16 ZM96 124 q5 -61 4 -85 l-4 0 l-10 19 q3 7 3 8.5 q0 1.5 -1.5 25.5 q-1.5 24 -2 28 q-0.5 4 -5.5 20 l5 0 l11 -16 ZM42 160 l3 10 l143 12 q6 1 16 11 l12 -12 q-9 -9 -8.5 -11 q0.5 -2 -3 -74.5 q-3.5 -72.5 -8.5 -104.5 l-4 0 l-10 26 q6 6 7 8.5 q1 2.5 7 147.5 l-154 -13 ZM90 127 l50 7 q6 1 12 9 l13 -8 q-8 -8 -8 -10 q0 -2 -3 -49 l-11 0 l3 49 l-56 -8 l0 10 ZM93 74 q48 5 59 8 l8 -10 l-67 -8 l0 10 ZM48 15 q114 8 115.5 8.5 q1.5 0.5 6.5 5.5 l22 -13 l-142 -11 l-2 10 Z" /><glyph glyph-name="" unicode="&#x4f1a;" d="M89 130.5 q-23 -27.5 -71 -62.5 l-4 4 q42 34 65 63 q23 29 32 48 q9 19 9 32 l4 0 l12 -23 q-7 -2 -15.5 -18 q-8.5 -16 -31.5 -43.5 ZM245 90 l0 -5 l-43 -2 l-84 104 l2 7 q61 -70 79.5 -84.5 q18.5 -14.5 45.5 -19.5 ZM80 106 q64 5 66.5 6 q2.5 1 7.5 4 l13 -8 l1 -4 l-63 -5 q-4 0 -12 -3 l-13 10 ZM65 52 q-4 0 -12 -3 l-13 10 l144 13 q5 1 10 5 l14 -8 l0 -4 l-143 -13 ZM66 -20 l-10 13 q9 1 32 28.5 q23 27.5 24 38.5 l14 -18 q-7 -2 -16 -12 q-9 -10 -36 -36 l104 10 l1 -6 q-105 -13 -113 -18 ZM194 -7.5 q1 -2.5 -5 -17.5 l-5 0 q-16 32 -43 61 l5 3 q30 -26 38.5 -35 q8.5 -9 9.5 -11.5 Z" /><glyph glyph-name="" unicode="&#x6d3b;" d="M231 130 l1 -4 l-118 -11 q-7 0 -13 -3 l-13 11 q120 10 122 10.5 q2 0.5 8 5.5 l13 -9 ZM27 135 q33 -18 34 -20.5 q1 -2.5 -3 -16.5 l-4 -1 q-10 18 -30 33 l3 5 ZM80 159 l-4 -1 q-12 18 -31 36 l4 3 q32 -19 33 -22 q1 -3 -2 -16 ZM166 180 q-22 -8 -68 -16 l-1 6 q47 11 67 21.5 q20 10.5 25 18.5 l3 -1 l10 -18 q-14 -3 -36 -11 ZM165 170 q-4 -6 -4 -9.5 q0 -3.5 -8 -92.5 l-10 0 q8 99 5 112 l3 3 l14 -13 ZM119 68 q3 -59 1 -85 l-4 0 l-9 19 q3 6 3 9 q0 3 -0.5 26 q-0.5 23 -1 26 q-0.5 3 -4.5 19 l4 0 l11 -14 ZM114 7 l62 6 q7 0 18 5 l11 -12 l-91 -8 l0 9 ZM114 68 l65 7 q7 1 15 12 l13 -12 q-8 -7 -8 -10.5 q0 -3.5 -3 -54.5 l-11 0 l3 56 l-74 -8 l0 10 ZM88 135 l6 -3 l-42 -136 l-5 0 l-21 35 l4 3 l16 -13 l42 114 Z" /><glyph glyph-name="" unicode="&#x83b7;" d="M67 -10 q6 20 7.5 32 q1.5 12 1 27 q-0.5 15 -6.5 37.5 q-6 22.5 -30 50.5 l5 3 q30 -32 36 -50.5 q6 -18.5 7 -36 q1 -17.5 -1.5 -39 q-2.5 -21.5 -12.5 -44.5 l-39 29 l3 4 l30 -13 ZM97 -30 l-5 4 q38 46 47 75 q9 29 11 56 q2 27 -1 46 l3 1 l16 -17 q-5 -5 -5.5 -8 q-0.5 -3 -1.5 -27.5 q-1 -24.5 -11.5 -55 q-10.5 -30.5 -52.5 -74.5 ZM246 -16 l-44 -1 l-51 99 l6 5 q35 -66 48 -79.5 q13 -13.5 41 -19.5 l0 -4 ZM101 84 q99 11 101 12 q2 1 8 4 l13 -7 l1 -4 l-98 -11 q-4 0 -12 -3 l-13 9 ZM26 172 q179 16 181.5 17 q2.5 1 8.5 5 l13 -10 l0 -3 l-175 -16 q-6 0 -14 -3 l-14 10 ZM80 72 q-8 -14 -18 -26 q-10 -12 -44 -36 l-3 3 q31 28 40 41 q9 13 19 36 l6 -18 ZM82 123 q6 6 11 20 l4 -1 l5 -21 q-6 -3 -11 -7 q-5 -4 -18.5 -15 q-13.5 -11 -51.5 -31 l-3 5 q32 20 45 32 q13 12 19 18 ZM197 103 l-4 0 q-6 13 -20 29 l3 3 q24 -14 24 -16.5 q0 -2.5 -3 -15.5 ZM102.5 172.5 q0.5 -13.5 -1.5 -29.5 l-3 0 l-10 16 q3 4 3.5 6.5 q0.5 2.5 0 14 q-0.5 11.5 -1 14.5 q-0.5 3 -5.5 16 l5 0 l15 -14 q-3 -4 -3 -7 q0 -3 0.5 -16.5 ZM169.5 182 q-4.5 -12 -24.5 -45 l-4 3 q16 35 19.5 51 q3.5 16 1.5 27 l4 -1 l15 -20 q-7 -3 -11.5 -15 Z" /><glyph glyph-name="" unicode="&#x51fb;" d="M201 152 l1 -3 l-124 -13 q-6 0 -14 -4 l-14 11 l128 13 q6 2 12 4 l11 -8 ZM53 83 q-6 0 -19 -4 l-13 11 l187 18 q5 2 10 6 l14 -9 l0 -4 l-179 -18 ZM181 7 l-103 -13 q-4 0 -12 -8 l-9 10 q4 4 6 6 q2 2 -0.5 24.5 q-2.5 22.5 -3 25.5 q-0.5 3 -7.5 19 l5 1 l17 -17 q-2 -7 -2 -10.5 q0 -3.5 4 -40.5 l106 12 l-1 -9 ZM137 192 q-4 -5 -4.5 -9 q-0.5 -4 -0.5 -179 l-11 0 l0 178 q0 17 -4 28 l3 2 l17 -20 ZM197 53 q-4 -4 -5 -7.5 q-1 -3.5 -2.5 -19.5 q-1.5 -16 -5.5 -40 l-4 0 l-7 21 q3 5 4 8 q1 3 2.5 19.5 q1.5 16.5 1 20 q-0.5 3.5 -4.5 19.5 l4 0 l17 -21 Z" /><glyph glyph-name="" unicode="&#x673a;" d="M119 140 l1 -4 l-87 -8 q-4 0 -12 -3 l-13 11 q88 7 90 8 q2 1 8 5 l13 -9 ZM66 110 q-9 -27 -16 -42 q-7 -15 -38 -55 l-4 4 q25 41 33 58.5 q8 17.5 20 59.5 l5 -25 ZM60.5 5.5 q0.5 4.5 0.5 91.5 q0 87 -0.5 94 q-0.5 7 -4.5 27 l4 0 l16 -25 q-3 -6 -3.5 -9.5 q-0.5 -3.5 -0.5 -93 q0 -89.5 -1 -120.5 l-4 0 l-11 26 q4 5 4.5 9.5 ZM69 118 q35 -26 36 -28 q1 -2 -1 -19 l-4 -1 q-12 23 -34 44 l3 4 ZM126 45 q-12 -38 -44 -77 l-5 2 q31 49 39.5 83 q8.5 34 8.5 78 q0 44 0 47 q0 3 -5 19 l4 0 l12 -16 q2 -98 -10 -136 ZM130 172 l0 10 l38 4 q7 2 17 10 l11 -11 q-8 -8 -8 -10.5 q0 -2.5 0 -168.5 q1 -11 12 -12 l10 0 q8 1 14 3 l2 57 l6 0 l7 -67 q-16 -2 -25 -3 l-17 0 q-19 1 -20 17 l0 177 l-47 -6 Z" /><glyph glyph-name="" unicode="&#x79ef;" d="M78 116 q39 -21 39 -23.5 q0 -2.5 0 -18.5 l-4 -1 q-12 18 -36 39 l1 4 ZM220.5 19 q5.5 -11 5.5 -14 q0 -3 -8 -20 l-5 0 q-8 37 -29 82 l5 2 q26 -39 31.5 -50 ZM141.5 27 q-8.5 -16 -39.5 -50 l-5 3 q29 40 38.5 60 q9.5 20 10.5 34 l4 0 l11 -23 q-7 -3 -9 -5.5 q-2 -2.5 -10.5 -18.5 ZM82.5 195 q14.5 8 20.5 15 l3 2 l8 -20 q-10 0 -26 -7.5 q-16 -7.5 -56 -14.5 l-1 5 q37 12 51.5 20 ZM53 94.5 q11 18.5 21 43.5 l3 -26 q-21 -40 -61 -73 l-4 4 q30 33 41 51.5 ZM70 3.5 q1 3.5 1 182.5 l11 2 l0 -184 l-2 -32 l-4 0 l-11 22 q4 6 5 9.5 ZM21 135 q83 8 85.5 8.5 q2.5 0.5 7.5 4.5 l14 -8 l0 -4 l-81 -8 q-5 0 -13 -3 l-13 10 ZM205 114 l12 -11 l-79 -8 l3 10 q57 4 64 9 ZM142 172 q3 -70 3 -90 l-4 0 l-10 16 q3 5 3 8.5 q0 3.5 -1.5 31.5 q-1.5 28 -2 32.5 q-0.5 4.5 -5.5 20.5 l4 0 l13 -19 ZM195 106 l3 64 l-62 -8 l2 10 l52 7 q7 1 15 12 l14 -11 q-10 -10 -10 -13.5 q0 -3.5 -3 -60.5 l-11 0 Z" /><glyph glyph-name="" unicode="&#x96c6;" d="M74 165 q103 10 106.5 10.5 q3.5 0.5 10.5 4.5 l13 -7 l1 -4 l-105 -11 q-4 0 -12 -3 l-14 10 ZM85 138 q83 8 85 8.5 q2 0.5 8 4.5 l14 -7 l0 -4 l-81 -8 q-5 0 -13 -3 l-13 9 ZM85 111 q85 8 87.5 8.5 q2.5 0.5 8.5 4.5 l13 -8 l0 -3 l-82 -8 q-6 0 -14 -3 l-13 9 ZM208 91 l0 -3 l-110 -11 q-5 0 -13 -3 l-13 10 q112 10 114 11 q2 1 8 4 l14 -8 ZM26 42 q179 16 181 17 q2 1 9 4 l12 -8 l1 -4 l-176 -16 q-5 0 -13 -3 l-14 10 ZM129 167 l11 0 l0 -83 l-11 0 l0 83 ZM89.5 184 q-4.5 -7 -18 -24 q-13.5 -17 -45.5 -41 l-3 4 q31 29 43.5 47.5 q12.5 18.5 15.5 25 q3 6.5 6 19.5 l3 0 l8 -22 q-5 -2 -9.5 -9 ZM63 78 q2 4 3 7.5 q1 3.5 1 81.5 l11 11 l0 -91 l-2 -27 l-3 0 l-10 18 ZM86 10.5 q-18 -14.5 -68 -35.5 l-3 5 q49 24 63.5 37.5 q14.5 13.5 24.5 26.5 l17 3 q-16 -22 -34 -36.5 ZM119 27.5 q0 30.5 0 34.5 q0 4 -5 17 l0 3 l3 0 l16 -14 q-3 -5 -3 -8 q0 -3 0.5 -33 q0.5 -30 -1.5 -60 l-3 0 l-11 19 q3 3 3.5 7 q0.5 4 0.5 34.5 ZM239 -11 l0 -4 l-45 -3 l-67 65 l11 0 q38 -35 55 -44.5 q17 -9.5 46 -13.5 ZM128 212 l2 3 q22 -18 23 -20.5 q1 -2.5 -5 -15.5 l-3 0 q-5 15 -17 33 Z" /><glyph glyph-name="" unicode="&#x5373;" d="M45 15 l0 152 q0 8 -5 24 l4 3 l12 -19 l0 -152 l-11 -8 ZM149 167 q1 -168 -2 -200 l-4 0 l-10 27 q3 4 4 7 q1 3 1 78.5 q0 75.5 0 82 q0 6.5 -5 24.5 l5 0 l11 -19 ZM197.5 97.5 q0.5 24.5 0.5 68.5 l-54 -8 l0 9 l47 7 q6 1 14 12 l13 -12 q-9 -7 -8.5 -12 q0.5 -5 0 -22.5 q-0.5 -17.5 -1.5 -51 q-1 -33.5 -8 -57.5 l-4 0 l-42 35 l3 3 l35 -16 q5 20 5.5 44.5 ZM50 175 l49 7 q5 1 13 12 l12 -12 q-10 -7 -10 -10.5 q0 -3.5 -5 -71.5 l-10 0 l5 73 l-54 -8 l0 10 ZM50 101 q48 5 59 9 l8 -10 l-67 -8 l0 9 ZM93 138 l-45 -8 l0 9 q26 4 28 4.5 q2 0.5 6 5.5 l11 -8 l0 -3 ZM114 26 l-5 -1 q-8 27 -27 51 l5 2 q30 -31 30.5 -34 q0.5 -3 -3.5 -18 ZM50 7 l-13 11 l64 40 l3 -7 q-49 -35 -54 -44 Z" /><glyph glyph-name="" unicode="&#x51e0;" d="M73.5 63 q8.5 36 8.5 72 q0 36 0 39.5 q0 3.5 -5 27.5 l4 1 l12 -23 q2 -87 -10 -124 q-12 -37 -60 -78 l-4 4 q46 45 54.5 81 ZM215 68 l5 0 l9 -71 q-16 -2 -27 -3 l-28 0 q-22 1 -22 24 l0 159 l-64 -6 l0 9 l57 6 q5 0 16 10 l12 -12 q-10 -8 -10 -11 q0 -3 0 -158 q0 -10 15 -11 l21 0 q11 2 12.5 2.5 q1.5 0.5 3.5 61.5 Z" /><glyph glyph-name="" unicode="&#x5df1;" d="M148 119 q6 1 14 5 l11 -12 l-103 -11 l0 10 l78 8 ZM153 114 l8 65 l-86 -8 q-4 0 -12 -3 l-13 10 l105 10 q5 0 13 11 l14 -11 q-8 -7 -9 -10.5 q-1 -3.5 -8 -63.5 l-12 0 ZM222 -8 q-15 -5 -42 -7 l-88 0 q-28 -1 -29 19 l0 94 q0 14 -5 34 l4 0 l12 -21 l0 -103 q0 -13 15 -13 l84 0 q30 3 32 5 q2 2 3 65 l6 0 l8 -73 Z" /><glyph glyph-name="" unicode="&#x8bb0;" d="M66 10 l-11 -3 l4 106 l-18 -4 q-4 0 -12 -4 l-13 9 l37 7 q5 1 16 11 l11 -10 q-10 -8 -10.5 -10.5 q-0.5 -2.5 -3.5 -101.5 ZM61 -4 l-12 13 l60 49 l3 -3 q-46 -50 -51 -59 ZM176 -6 l-31 0 q-23 0 -24 18 l0 98 q0 12 -5 25 l4 0 l12 -16 l0 -104 q2 -12 17 -11 l27 0 q26 0 43 3 l2 51 l5 0 l8 -61 q-30 -3 -58 -3 ZM128 119 l50 5 q6 0 16 6 l11 -13 l-77 -8 l0 10 ZM135 171 q-5 -1 -13 -3 l-13 10 l69 7 q8 1 17 11 l13 -12 q-10 -6 -10 -9 q0 -3 -3 -53 l-11 0 l3 54 l-52 -5 ZM46 197 q34 -21 35 -23.5 q1 -2.5 -1 -17.5 l-5 -1 q-11 20 -33 39 l4 3 Z" /><glyph glyph-name="" unicode="&#x5bb6;" d="M123.5 76 q-2.5 10 -20.5 36 l6 4 q19 -23 23.5 -34 q4.5 -11 6 -29 q1.5 -18 -0.5 -33.5 q-2 -15.5 -14 -44.5 l-4 0 l-35 35 l3 3 l31 -18 q6 20 7.5 31.5 q1.5 11.5 0.5 25.5 q-1 14 -3.5 24 ZM102 38.5 q-18 -14.5 -84 -44.5 l-2 5 q66 35 84.5 52 q18.5 17 27.5 28 l5 -13 q-13 -13 -31 -27.5 ZM117 103 l8 -11 q-28 -21 -40 -28.5 q-12 -7.5 -45 -21.5 l-3 5 q38 20 49.5 29 q11.5 9 30.5 27 ZM100.5 104.5 q-16.5 -11.5 -57.5 -27.5 l-2 5 q39 19 51.5 29 q12.5 10 27.5 24 l16 0 q-19 -19 -35.5 -30.5 ZM175 141 l1 -3 l-84 -11 q-4 0 -12 -3 l-14 10 q86 9 88 10 q2 1 8 4 l13 -7 ZM166.5 105.5 q6.5 8.5 11.5 18.5 l3 -1 l8 -18 q-8 -1 -17.5 -9.5 q-9.5 -8.5 -38.5 -25.5 l-3 4 q30 23 36.5 31.5 ZM144 82 q36 -42 53 -52.5 q17 -10.5 40 -12.5 l0 -4 l-43 -3 l-55 67 l5 5 ZM199 171 l-154 -16 l1 9 l148 16 q6 0 15 11 l12 -15 q-8 -2 -32 -34 l-4 3 l14 26 ZM106 215 l4 2 q23 -19 24.5 -21.5 q1.5 -2.5 -6.5 -15.5 l-5 0 q-5 17 -17 35 ZM50 186 q0 -26 0.5 -34.5 q0.5 -8.5 -4.5 -24.5 l-4 0 l-9 19 q8 11 11 40 l6 0 Z" /><glyph glyph-name="" unicode="&#x4ef7;" d="M76 88 l-3 4 q29 28 43 48.5 q14 20.5 23 39.5 q9 19 10 35 l4 -1 l12 -20 q-5 -3 -6.5 -5.5 q-1.5 -2.5 -10.5 -18.5 q-9 -16 -24 -36 q-15 -20 -48 -46 ZM96 188 q-9 -3 -24.5 -31 q-15.5 -28 -57.5 -67 l-4 4 q44 52 57 78.5 q13 26.5 13 39.5 l4 0 l12 -24 ZM244 109 l0 -4 l-39 -2 l-58 77 l2 8 q40 -48 53 -60 q13 -12 42 -19 ZM76 -24 q27 31 36 55 q9 24 11 46.5 q2 22.5 -3 41.5 l5 0 l16 -22 q-5 -5 -5 -8 q0 -3 -1.5 -20.5 q-1.5 -17.5 -13 -43 q-11.5 -25.5 -42.5 -53.5 l-3 4 ZM170 53 q0 39 0 44 q0 5 -5 22 l3 3 l18 -24 q-5 -6 -5 -10 q0 -4 0 -85 l-2 -31 l-4 0 l-10 27 q3 7 4 11 q1 4 1 43 ZM51 -1 q4 5 4.5 9 q0.5 4 0.5 55 q0 51 0 56 q0 5 -2 21 l2 0 l17 -18 q-4 -5 -5 -9 q-1 -4 -1 -110 l-2 -31 l-4 0 l-10 27 Z" /><glyph glyph-name="" unicode="&#x95f4;" d="M48 196 l3 3 q32 -21 32 -23 q0 -2 -3 -17 l-5 0 q-6 16 -27 37 ZM58 151 q-5 -8 -5 -11.5 q0 -3.5 0 -73 q0 -69.5 -1 -96.5 l-4 0 l-11 21 q4 5 4.5 12 q0.5 7 0.5 73.5 q0 66.5 0 71 q0 4.5 -5 22.5 l4 1 l17 -20 ZM85.5 114.5 q-0.5 4.5 -5.5 17.5 l5 0 l11 -13 q4 -74 3 -96 l-4 0 l-10 16 q4 9 3.5 11.5 q-0.5 2.5 -1.5 31 q-1 28.5 -1.5 33 ZM90 110 l0 9 l48 7 q8 1 16 12 l12 -12 q-8 -7 -8 -9.5 q0 -2.5 -3 -64.5 l-11 0 l3 66 l-57 -8 ZM93 53 q53 5 61 10 l12 -12 l-73 -8 l0 10 ZM93 87 q24 3 26 4 q2 1 6 4 l13 -7 l0 -4 l-45 -6 l0 9 ZM203 -31 l-44 42 l2 4 l35 -23 q2 8 2 19 l0 163 l-70 -8 q-5 0 -14 -4 l-13 10 l88 10 q7 1 15 12 l15 -12 q-10 -10 -10 -12.5 q0 -2.5 0 -168.5 q0 -17 -6 -32 Z" /></font>
</defs>
</svg>
