# 3ds Max Wavefront OBJ Exporter v0.97b - (c)2007 guruware
# 创建的文件:18.10.2017 16:23:03

mtllib lifangti.mtl

#
# object Box001
#

v  -5.2087 0.2623 -0.0000
v  -5.2087 17.0143 0.0000
v  5.2087 17.0143 0.0000
v  5.2087 0.2623 -0.0000
v  -5.2087 0.2623 10.4173
v  5.2087 0.2623 10.4173
v  5.2087 17.0143 10.4173
v  -5.2087 17.0143 10.4173
# 8 vertices

vn 0.0000 0.0000 -1.0000
vn 0.0000 -0.0000 1.0000
vn 0.0000 -1.0000 -0.0000
vn 1.0000 0.0000 -0.0000
vn 0.0000 1.0000 0.0000
vn -1.0000 0.0000 -0.0000
# 6 vertex normals

vt 0.9952 0.3826 0.0000
vt 0.3920 0.3826 0.0000
vt 0.3920 0.0076 0.0000
vt 0.9952 0.0076 0.0000
vt 0.6211 0.3886 0.0000
vt 0.9962 0.3886 0.0000
vt 0.9962 0.9917 0.0000
vt 0.6211 0.9917 0.0000
vt 0.3914 0.3884 0.0000
vt 0.6154 0.3884 0.0000
vt 0.6154 0.6125 0.0000
vt 0.3914 0.6125 0.0000
vt 0.3839 0.0088 0.0000
vt 0.3839 0.6131 0.0000
vt 0.0081 0.6131 0.0000
vt 0.0081 0.0088 0.0000
vt 0.3918 0.3887 0.0000
vt 0.6159 0.3887 0.0000
vt 0.6159 0.6128 0.0000
vt 0.3918 0.6128 0.0000
vt 0.6116 0.9922 0.0000
vt 0.0089 0.9922 0.0000
vt 0.0089 0.6174 0.0000
vt 0.6116 0.6174 0.0000
# 24 texture coords

g Box001
usemtl 01___Default
s 2
f 1/1/1 2/2/1 3/3/1 4/4/1 
s 4
f 5/5/2 6/6/2 7/7/2 8/8/2 
s 8
f 1/9/3 4/10/3 6/11/3 5/12/3 
s 16
f 4/13/4 3/14/4 7/15/4 6/16/4 
s 32
f 3/17/5 2/18/5 8/19/5 7/20/5 
s 64
f 2/21/6 1/22/6 5/23/6 8/24/6 
# 6 polygons

