# 3ds Max Wavefront OBJ Exporter v0.97b - (c)2007 guruware
# 创建的文件:16.10.2017 18:40:51

mtllib lifangti.mtl

#
# object Box001
#

v  -20.3777 0.0000 20.3777
v  -20.3777 0.0000 -20.3777
v  20.3777 0.0000 -20.3777
v  20.3777 0.0000 20.3777
v  -18.8654 60.6744 18.8654
v  18.8654 60.6744 18.8654
v  18.8654 60.6744 -18.8654
v  -18.8654 60.6744 -18.8654
# 8 vertices

vn 0.0000 -1.0000 -0.0000
vn 0.0000 1.0000 -0.0000
vn 0.0000 0.0249 0.9997
vn 0.9997 0.0249 -0.0000
vn 0.0000 0.0249 -0.9997
vn -0.9997 0.0249 -0.0000
# 6 vertex normals

vt 0.9909 0.2508 0.0000
vt 0.9909 0.5513 0.0000
vt 0.6904 0.5513 0.0000
vt 0.6904 0.2508 0.0000
vt 0.6807 0.6795 0.0000
vt 0.9956 0.6795 0.0000
vt 0.9956 0.9944 0.0000
vt 0.6807 0.9944 0.0000
vt 0.0080 0.0089 0.0000
vt 0.3364 0.0089 0.0000
vt 0.3242 0.4980 0.0000
vt 0.0202 0.4980 0.0000
vt 0.3486 0.5041 0.0000
vt 0.6770 0.5041 0.0000
vt 0.6649 0.9932 0.0000
vt 0.3608 0.9932 0.0000
vt 0.0087 0.5045 0.0000
vt 0.3371 0.5045 0.0000
vt 0.3249 0.9936 0.0000
vt 0.0209 0.9936 0.0000
vt 0.3481 0.0087 0.0000
vt 0.6765 0.0087 0.0000
vt 0.6643 0.4978 0.0000
vt 0.3603 0.4978 0.0000
# 24 texture coords

g Box001
usemtl wire_153228184
s 2
f 1/1/1 2/2/1 3/3/1 4/4/1 
s 4
f 5/5/2 6/6/2 7/7/2 8/8/2 
s 8
f 1/9/3 4/10/3 6/11/3 5/12/3 
s 16
f 4/13/4 3/14/4 7/15/4 6/16/4 
s 32
f 3/17/5 2/18/5 8/19/5 7/20/5 
s 64
f 2/21/6 1/22/6 5/23/6 8/24/6 
# 6 polygons

